G75*
%MOIN*%
%OFA0B0*%
%FSLAX25Y25*%
%IPPOS*%
%LPD*%
%AMOC8*
5,1,8,0,0,1.08239X$1,22.5*
%
%ADD10C,0.00000*%
%ADD11C,0.10039*%
%ADD12C,0.07400*%
%ADD13C,0.06693*%
%ADD14C,0.01200*%
D10*
X0001500Y0001500D02*
X0001500Y0111500D01*
X0196500Y0111500D01*
X0196500Y0001500D01*
X0001500Y0001500D01*
X0004300Y0011500D02*
X0004302Y0011677D01*
X0004309Y0011853D01*
X0004320Y0012030D01*
X0004335Y0012206D01*
X0004354Y0012381D01*
X0004378Y0012556D01*
X0004406Y0012731D01*
X0004438Y0012905D01*
X0004475Y0013078D01*
X0004516Y0013249D01*
X0004561Y0013420D01*
X0004610Y0013590D01*
X0004663Y0013759D01*
X0004721Y0013926D01*
X0004782Y0014091D01*
X0004848Y0014255D01*
X0004918Y0014418D01*
X0004991Y0014578D01*
X0005069Y0014737D01*
X0005150Y0014894D01*
X0005235Y0015049D01*
X0005324Y0015202D01*
X0005417Y0015352D01*
X0005513Y0015500D01*
X0005613Y0015646D01*
X0005717Y0015789D01*
X0005824Y0015930D01*
X0005934Y0016068D01*
X0006048Y0016203D01*
X0006165Y0016335D01*
X0006285Y0016465D01*
X0006409Y0016591D01*
X0006535Y0016715D01*
X0006665Y0016835D01*
X0006797Y0016952D01*
X0006932Y0017066D01*
X0007070Y0017176D01*
X0007211Y0017283D01*
X0007354Y0017387D01*
X0007500Y0017487D01*
X0007648Y0017583D01*
X0007798Y0017676D01*
X0007951Y0017765D01*
X0008106Y0017850D01*
X0008263Y0017931D01*
X0008422Y0018009D01*
X0008582Y0018082D01*
X0008745Y0018152D01*
X0008909Y0018218D01*
X0009074Y0018279D01*
X0009241Y0018337D01*
X0009410Y0018390D01*
X0009580Y0018439D01*
X0009751Y0018484D01*
X0009922Y0018525D01*
X0010095Y0018562D01*
X0010269Y0018594D01*
X0010444Y0018622D01*
X0010619Y0018646D01*
X0010794Y0018665D01*
X0010970Y0018680D01*
X0011147Y0018691D01*
X0011323Y0018698D01*
X0011500Y0018700D01*
X0011677Y0018698D01*
X0011853Y0018691D01*
X0012030Y0018680D01*
X0012206Y0018665D01*
X0012381Y0018646D01*
X0012556Y0018622D01*
X0012731Y0018594D01*
X0012905Y0018562D01*
X0013078Y0018525D01*
X0013249Y0018484D01*
X0013420Y0018439D01*
X0013590Y0018390D01*
X0013759Y0018337D01*
X0013926Y0018279D01*
X0014091Y0018218D01*
X0014255Y0018152D01*
X0014418Y0018082D01*
X0014578Y0018009D01*
X0014737Y0017931D01*
X0014894Y0017850D01*
X0015049Y0017765D01*
X0015202Y0017676D01*
X0015352Y0017583D01*
X0015500Y0017487D01*
X0015646Y0017387D01*
X0015789Y0017283D01*
X0015930Y0017176D01*
X0016068Y0017066D01*
X0016203Y0016952D01*
X0016335Y0016835D01*
X0016465Y0016715D01*
X0016591Y0016591D01*
X0016715Y0016465D01*
X0016835Y0016335D01*
X0016952Y0016203D01*
X0017066Y0016068D01*
X0017176Y0015930D01*
X0017283Y0015789D01*
X0017387Y0015646D01*
X0017487Y0015500D01*
X0017583Y0015352D01*
X0017676Y0015202D01*
X0017765Y0015049D01*
X0017850Y0014894D01*
X0017931Y0014737D01*
X0018009Y0014578D01*
X0018082Y0014418D01*
X0018152Y0014255D01*
X0018218Y0014091D01*
X0018279Y0013926D01*
X0018337Y0013759D01*
X0018390Y0013590D01*
X0018439Y0013420D01*
X0018484Y0013249D01*
X0018525Y0013078D01*
X0018562Y0012905D01*
X0018594Y0012731D01*
X0018622Y0012556D01*
X0018646Y0012381D01*
X0018665Y0012206D01*
X0018680Y0012030D01*
X0018691Y0011853D01*
X0018698Y0011677D01*
X0018700Y0011500D01*
X0018698Y0011323D01*
X0018691Y0011147D01*
X0018680Y0010970D01*
X0018665Y0010794D01*
X0018646Y0010619D01*
X0018622Y0010444D01*
X0018594Y0010269D01*
X0018562Y0010095D01*
X0018525Y0009922D01*
X0018484Y0009751D01*
X0018439Y0009580D01*
X0018390Y0009410D01*
X0018337Y0009241D01*
X0018279Y0009074D01*
X0018218Y0008909D01*
X0018152Y0008745D01*
X0018082Y0008582D01*
X0018009Y0008422D01*
X0017931Y0008263D01*
X0017850Y0008106D01*
X0017765Y0007951D01*
X0017676Y0007798D01*
X0017583Y0007648D01*
X0017487Y0007500D01*
X0017387Y0007354D01*
X0017283Y0007211D01*
X0017176Y0007070D01*
X0017066Y0006932D01*
X0016952Y0006797D01*
X0016835Y0006665D01*
X0016715Y0006535D01*
X0016591Y0006409D01*
X0016465Y0006285D01*
X0016335Y0006165D01*
X0016203Y0006048D01*
X0016068Y0005934D01*
X0015930Y0005824D01*
X0015789Y0005717D01*
X0015646Y0005613D01*
X0015500Y0005513D01*
X0015352Y0005417D01*
X0015202Y0005324D01*
X0015049Y0005235D01*
X0014894Y0005150D01*
X0014737Y0005069D01*
X0014578Y0004991D01*
X0014418Y0004918D01*
X0014255Y0004848D01*
X0014091Y0004782D01*
X0013926Y0004721D01*
X0013759Y0004663D01*
X0013590Y0004610D01*
X0013420Y0004561D01*
X0013249Y0004516D01*
X0013078Y0004475D01*
X0012905Y0004438D01*
X0012731Y0004406D01*
X0012556Y0004378D01*
X0012381Y0004354D01*
X0012206Y0004335D01*
X0012030Y0004320D01*
X0011853Y0004309D01*
X0011677Y0004302D01*
X0011500Y0004300D01*
X0011323Y0004302D01*
X0011147Y0004309D01*
X0010970Y0004320D01*
X0010794Y0004335D01*
X0010619Y0004354D01*
X0010444Y0004378D01*
X0010269Y0004406D01*
X0010095Y0004438D01*
X0009922Y0004475D01*
X0009751Y0004516D01*
X0009580Y0004561D01*
X0009410Y0004610D01*
X0009241Y0004663D01*
X0009074Y0004721D01*
X0008909Y0004782D01*
X0008745Y0004848D01*
X0008582Y0004918D01*
X0008422Y0004991D01*
X0008263Y0005069D01*
X0008106Y0005150D01*
X0007951Y0005235D01*
X0007798Y0005324D01*
X0007648Y0005417D01*
X0007500Y0005513D01*
X0007354Y0005613D01*
X0007211Y0005717D01*
X0007070Y0005824D01*
X0006932Y0005934D01*
X0006797Y0006048D01*
X0006665Y0006165D01*
X0006535Y0006285D01*
X0006409Y0006409D01*
X0006285Y0006535D01*
X0006165Y0006665D01*
X0006048Y0006797D01*
X0005934Y0006932D01*
X0005824Y0007070D01*
X0005717Y0007211D01*
X0005613Y0007354D01*
X0005513Y0007500D01*
X0005417Y0007648D01*
X0005324Y0007798D01*
X0005235Y0007951D01*
X0005150Y0008106D01*
X0005069Y0008263D01*
X0004991Y0008422D01*
X0004918Y0008582D01*
X0004848Y0008745D01*
X0004782Y0008909D01*
X0004721Y0009074D01*
X0004663Y0009241D01*
X0004610Y0009410D01*
X0004561Y0009580D01*
X0004516Y0009751D01*
X0004475Y0009922D01*
X0004438Y0010095D01*
X0004406Y0010269D01*
X0004378Y0010444D01*
X0004354Y0010619D01*
X0004335Y0010794D01*
X0004320Y0010970D01*
X0004309Y0011147D01*
X0004302Y0011323D01*
X0004300Y0011500D01*
X0179300Y0101500D02*
X0179302Y0101677D01*
X0179309Y0101853D01*
X0179320Y0102030D01*
X0179335Y0102206D01*
X0179354Y0102381D01*
X0179378Y0102556D01*
X0179406Y0102731D01*
X0179438Y0102905D01*
X0179475Y0103078D01*
X0179516Y0103249D01*
X0179561Y0103420D01*
X0179610Y0103590D01*
X0179663Y0103759D01*
X0179721Y0103926D01*
X0179782Y0104091D01*
X0179848Y0104255D01*
X0179918Y0104418D01*
X0179991Y0104578D01*
X0180069Y0104737D01*
X0180150Y0104894D01*
X0180235Y0105049D01*
X0180324Y0105202D01*
X0180417Y0105352D01*
X0180513Y0105500D01*
X0180613Y0105646D01*
X0180717Y0105789D01*
X0180824Y0105930D01*
X0180934Y0106068D01*
X0181048Y0106203D01*
X0181165Y0106335D01*
X0181285Y0106465D01*
X0181409Y0106591D01*
X0181535Y0106715D01*
X0181665Y0106835D01*
X0181797Y0106952D01*
X0181932Y0107066D01*
X0182070Y0107176D01*
X0182211Y0107283D01*
X0182354Y0107387D01*
X0182500Y0107487D01*
X0182648Y0107583D01*
X0182798Y0107676D01*
X0182951Y0107765D01*
X0183106Y0107850D01*
X0183263Y0107931D01*
X0183422Y0108009D01*
X0183582Y0108082D01*
X0183745Y0108152D01*
X0183909Y0108218D01*
X0184074Y0108279D01*
X0184241Y0108337D01*
X0184410Y0108390D01*
X0184580Y0108439D01*
X0184751Y0108484D01*
X0184922Y0108525D01*
X0185095Y0108562D01*
X0185269Y0108594D01*
X0185444Y0108622D01*
X0185619Y0108646D01*
X0185794Y0108665D01*
X0185970Y0108680D01*
X0186147Y0108691D01*
X0186323Y0108698D01*
X0186500Y0108700D01*
X0186677Y0108698D01*
X0186853Y0108691D01*
X0187030Y0108680D01*
X0187206Y0108665D01*
X0187381Y0108646D01*
X0187556Y0108622D01*
X0187731Y0108594D01*
X0187905Y0108562D01*
X0188078Y0108525D01*
X0188249Y0108484D01*
X0188420Y0108439D01*
X0188590Y0108390D01*
X0188759Y0108337D01*
X0188926Y0108279D01*
X0189091Y0108218D01*
X0189255Y0108152D01*
X0189418Y0108082D01*
X0189578Y0108009D01*
X0189737Y0107931D01*
X0189894Y0107850D01*
X0190049Y0107765D01*
X0190202Y0107676D01*
X0190352Y0107583D01*
X0190500Y0107487D01*
X0190646Y0107387D01*
X0190789Y0107283D01*
X0190930Y0107176D01*
X0191068Y0107066D01*
X0191203Y0106952D01*
X0191335Y0106835D01*
X0191465Y0106715D01*
X0191591Y0106591D01*
X0191715Y0106465D01*
X0191835Y0106335D01*
X0191952Y0106203D01*
X0192066Y0106068D01*
X0192176Y0105930D01*
X0192283Y0105789D01*
X0192387Y0105646D01*
X0192487Y0105500D01*
X0192583Y0105352D01*
X0192676Y0105202D01*
X0192765Y0105049D01*
X0192850Y0104894D01*
X0192931Y0104737D01*
X0193009Y0104578D01*
X0193082Y0104418D01*
X0193152Y0104255D01*
X0193218Y0104091D01*
X0193279Y0103926D01*
X0193337Y0103759D01*
X0193390Y0103590D01*
X0193439Y0103420D01*
X0193484Y0103249D01*
X0193525Y0103078D01*
X0193562Y0102905D01*
X0193594Y0102731D01*
X0193622Y0102556D01*
X0193646Y0102381D01*
X0193665Y0102206D01*
X0193680Y0102030D01*
X0193691Y0101853D01*
X0193698Y0101677D01*
X0193700Y0101500D01*
X0193698Y0101323D01*
X0193691Y0101147D01*
X0193680Y0100970D01*
X0193665Y0100794D01*
X0193646Y0100619D01*
X0193622Y0100444D01*
X0193594Y0100269D01*
X0193562Y0100095D01*
X0193525Y0099922D01*
X0193484Y0099751D01*
X0193439Y0099580D01*
X0193390Y0099410D01*
X0193337Y0099241D01*
X0193279Y0099074D01*
X0193218Y0098909D01*
X0193152Y0098745D01*
X0193082Y0098582D01*
X0193009Y0098422D01*
X0192931Y0098263D01*
X0192850Y0098106D01*
X0192765Y0097951D01*
X0192676Y0097798D01*
X0192583Y0097648D01*
X0192487Y0097500D01*
X0192387Y0097354D01*
X0192283Y0097211D01*
X0192176Y0097070D01*
X0192066Y0096932D01*
X0191952Y0096797D01*
X0191835Y0096665D01*
X0191715Y0096535D01*
X0191591Y0096409D01*
X0191465Y0096285D01*
X0191335Y0096165D01*
X0191203Y0096048D01*
X0191068Y0095934D01*
X0190930Y0095824D01*
X0190789Y0095717D01*
X0190646Y0095613D01*
X0190500Y0095513D01*
X0190352Y0095417D01*
X0190202Y0095324D01*
X0190049Y0095235D01*
X0189894Y0095150D01*
X0189737Y0095069D01*
X0189578Y0094991D01*
X0189418Y0094918D01*
X0189255Y0094848D01*
X0189091Y0094782D01*
X0188926Y0094721D01*
X0188759Y0094663D01*
X0188590Y0094610D01*
X0188420Y0094561D01*
X0188249Y0094516D01*
X0188078Y0094475D01*
X0187905Y0094438D01*
X0187731Y0094406D01*
X0187556Y0094378D01*
X0187381Y0094354D01*
X0187206Y0094335D01*
X0187030Y0094320D01*
X0186853Y0094309D01*
X0186677Y0094302D01*
X0186500Y0094300D01*
X0186323Y0094302D01*
X0186147Y0094309D01*
X0185970Y0094320D01*
X0185794Y0094335D01*
X0185619Y0094354D01*
X0185444Y0094378D01*
X0185269Y0094406D01*
X0185095Y0094438D01*
X0184922Y0094475D01*
X0184751Y0094516D01*
X0184580Y0094561D01*
X0184410Y0094610D01*
X0184241Y0094663D01*
X0184074Y0094721D01*
X0183909Y0094782D01*
X0183745Y0094848D01*
X0183582Y0094918D01*
X0183422Y0094991D01*
X0183263Y0095069D01*
X0183106Y0095150D01*
X0182951Y0095235D01*
X0182798Y0095324D01*
X0182648Y0095417D01*
X0182500Y0095513D01*
X0182354Y0095613D01*
X0182211Y0095717D01*
X0182070Y0095824D01*
X0181932Y0095934D01*
X0181797Y0096048D01*
X0181665Y0096165D01*
X0181535Y0096285D01*
X0181409Y0096409D01*
X0181285Y0096535D01*
X0181165Y0096665D01*
X0181048Y0096797D01*
X0180934Y0096932D01*
X0180824Y0097070D01*
X0180717Y0097211D01*
X0180613Y0097354D01*
X0180513Y0097500D01*
X0180417Y0097648D01*
X0180324Y0097798D01*
X0180235Y0097951D01*
X0180150Y0098106D01*
X0180069Y0098263D01*
X0179991Y0098422D01*
X0179918Y0098582D01*
X0179848Y0098745D01*
X0179782Y0098909D01*
X0179721Y0099074D01*
X0179663Y0099241D01*
X0179610Y0099410D01*
X0179561Y0099580D01*
X0179516Y0099751D01*
X0179475Y0099922D01*
X0179438Y0100095D01*
X0179406Y0100269D01*
X0179378Y0100444D01*
X0179354Y0100619D01*
X0179335Y0100794D01*
X0179320Y0100970D01*
X0179309Y0101147D01*
X0179302Y0101323D01*
X0179300Y0101500D01*
D11*
X0171520Y0077681D02*
X0161480Y0077681D01*
X0161480Y0062091D02*
X0171520Y0062091D01*
X0171520Y0046500D02*
X0161480Y0046500D01*
X0161480Y0030909D02*
X0171520Y0030909D01*
X0171520Y0015319D02*
X0161480Y0015319D01*
D12*
X0056500Y0037000D03*
X0046500Y0036000D03*
X0036500Y0037000D03*
X0026500Y0036000D03*
X0016500Y0037000D03*
X0026500Y0076000D03*
X0016500Y0077000D03*
X0036500Y0077000D03*
X0046500Y0076000D03*
X0056500Y0077000D03*
D13*
X0076441Y0076106D03*
X0090220Y0076106D03*
X0104000Y0076106D03*
X0117780Y0076106D03*
X0131559Y0076106D03*
X0131559Y0036106D03*
X0117780Y0036106D03*
X0104000Y0036106D03*
X0090220Y0036106D03*
X0076441Y0036106D03*
D14*
X0076441Y0076106D01*
X0090220Y0076106D02*
X0090220Y0036106D01*
X0104000Y0036106D02*
X0104000Y0076106D01*
X0104000Y0079000D01*
X0099000Y0084000D01*
X0039000Y0084000D01*
X0036500Y0081500D01*
X0036500Y0077000D01*
X0036500Y0037000D01*
X0026500Y0036000D02*
X0026500Y0076000D01*
X0016500Y0077000D02*
X0016500Y0037000D01*
X0046500Y0036000D02*
X0046500Y0076000D01*
X0117780Y0076106D02*
X0117780Y0036106D01*
X0117780Y0027720D01*
X0121500Y0024000D01*
X0141500Y0024000D01*
X0147750Y0031500D01*
X0165909Y0031500D01*
X0166500Y0030909D01*
M02*
