G75*
%MOIN*%
%OFA0B0*%
%FSLAX25Y25*%
%IPPOS*%
%LPD*%
%AMOC8*
5,1,8,0,0,1.08239X$1,22.5*
%
%ADD10C,0.00700*%
%ADD11C,0.00900*%
%ADD12C,0.00000*%
%ADD13C,0.00600*%
%ADD14C,0.00800*%
%ADD15C,0.00400*%
%ADD16C,0.00500*%
%ADD17R,0.02000X0.02000*%
D10*
X0074350Y0013753D02*
X0078554Y0013753D01*
X0076452Y0015854D02*
X0076452Y0011651D01*
X0087241Y0013753D02*
X0091445Y0013753D01*
X0100132Y0013753D02*
X0104336Y0013753D01*
X0102234Y0015854D02*
X0102234Y0011651D01*
X0113023Y0013753D02*
X0117227Y0013753D01*
X0125914Y0013753D02*
X0130118Y0013753D01*
X0130118Y0016905D02*
X0130118Y0010600D01*
X0125914Y0010600D02*
X0125914Y0016905D01*
X0126965Y0021100D02*
X0125914Y0022151D01*
X0126965Y0021100D02*
X0129067Y0021100D01*
X0130118Y0022151D01*
X0130118Y0023202D01*
X0129067Y0024253D01*
X0126965Y0024253D01*
X0125914Y0025304D01*
X0125914Y0026354D01*
X0126965Y0027405D01*
X0129067Y0027405D01*
X0130118Y0026354D01*
X0117227Y0027405D02*
X0113023Y0027405D01*
X0115125Y0027405D02*
X0115125Y0021100D01*
X0104336Y0027405D02*
X0100132Y0027405D01*
X0102234Y0027405D02*
X0102234Y0021100D01*
X0091445Y0021100D02*
X0089343Y0023202D01*
X0090394Y0023202D02*
X0087241Y0023202D01*
X0087241Y0021100D02*
X0087241Y0027405D01*
X0090394Y0027405D01*
X0091445Y0026354D01*
X0091445Y0024253D01*
X0090394Y0023202D01*
X0078554Y0024253D02*
X0077503Y0023202D01*
X0074350Y0023202D01*
X0076452Y0023202D02*
X0078554Y0021100D01*
X0074350Y0021100D02*
X0074350Y0027405D01*
X0077503Y0027405D01*
X0078554Y0026354D01*
X0078554Y0024253D01*
X0155760Y0094748D02*
X0155760Y0101054D01*
X0158913Y0101054D01*
X0159964Y0100003D01*
X0159964Y0097901D01*
X0158913Y0096850D01*
X0155760Y0096850D01*
X0153518Y0096850D02*
X0150365Y0096850D01*
X0149314Y0097901D01*
X0150365Y0098952D01*
X0153518Y0098952D01*
X0153518Y0100003D02*
X0153518Y0096850D01*
X0153518Y0100003D02*
X0152467Y0101054D01*
X0150365Y0101054D01*
X0147073Y0101054D02*
X0143920Y0101054D01*
X0142869Y0100003D01*
X0142869Y0097901D01*
X0143920Y0096850D01*
X0147073Y0096850D01*
X0147073Y0103155D01*
X0140627Y0101054D02*
X0140627Y0096850D01*
X0136423Y0096850D02*
X0136423Y0101054D01*
X0138525Y0103155D01*
X0140627Y0101054D01*
X0140627Y0100003D02*
X0136423Y0100003D01*
X0134182Y0100003D02*
X0129978Y0100003D01*
X0127783Y0101054D02*
X0125681Y0101054D01*
X0126732Y0102104D02*
X0126732Y0097901D01*
X0127783Y0096850D01*
X0123439Y0098952D02*
X0119235Y0098952D01*
X0119235Y0097901D02*
X0119235Y0100003D01*
X0120286Y0101054D01*
X0122388Y0101054D01*
X0123439Y0100003D01*
X0123439Y0098952D01*
X0122388Y0096850D02*
X0120286Y0096850D01*
X0119235Y0097901D01*
X0116994Y0096850D02*
X0116994Y0103155D01*
X0112790Y0103155D02*
X0116994Y0096850D01*
X0112790Y0096850D02*
X0112790Y0103155D01*
X0110595Y0103155D02*
X0108493Y0103155D01*
X0109544Y0103155D02*
X0109544Y0096850D01*
X0108493Y0096850D02*
X0110595Y0096850D01*
X0106251Y0096850D02*
X0104149Y0098952D01*
X0105200Y0098952D02*
X0106251Y0100003D01*
X0106251Y0102104D01*
X0105200Y0103155D01*
X0102047Y0103155D01*
X0102047Y0096850D01*
X0099806Y0096850D02*
X0099806Y0103155D01*
X0097704Y0101054D01*
X0095602Y0103155D01*
X0095602Y0096850D01*
X0093360Y0097901D02*
X0092309Y0096850D01*
X0090207Y0096850D01*
X0089156Y0097901D01*
X0089156Y0102104D01*
X0090207Y0103155D01*
X0092309Y0103155D01*
X0093360Y0102104D01*
X0086915Y0100003D02*
X0082711Y0100003D01*
X0080516Y0103155D02*
X0078414Y0103155D01*
X0079465Y0103155D02*
X0079465Y0096850D01*
X0078414Y0096850D02*
X0080516Y0096850D01*
X0076172Y0096850D02*
X0074070Y0098952D01*
X0075121Y0098952D02*
X0071968Y0098952D01*
X0075121Y0098952D02*
X0076172Y0100003D01*
X0076172Y0102104D01*
X0075121Y0103155D01*
X0071968Y0103155D01*
X0071968Y0096850D01*
X0069727Y0096850D02*
X0069727Y0103155D01*
X0067625Y0101054D01*
X0065523Y0103155D01*
X0065523Y0096850D01*
X0063281Y0097901D02*
X0062230Y0096850D01*
X0060128Y0096850D01*
X0059077Y0097901D01*
X0059077Y0102104D01*
X0060128Y0103155D01*
X0062230Y0103155D01*
X0063281Y0102104D01*
X0056836Y0100003D02*
X0052632Y0100003D01*
X0050390Y0098952D02*
X0050390Y0097901D01*
X0049339Y0096850D01*
X0047237Y0096850D01*
X0046186Y0097901D01*
X0043945Y0097901D02*
X0042894Y0096850D01*
X0040792Y0096850D01*
X0039741Y0097901D01*
X0039741Y0102104D01*
X0040792Y0103155D01*
X0042894Y0103155D01*
X0043945Y0102104D01*
X0046186Y0102104D02*
X0046186Y0101054D01*
X0047237Y0100003D01*
X0049339Y0100003D01*
X0050390Y0098952D01*
X0050390Y0102104D02*
X0049339Y0103155D01*
X0047237Y0103155D01*
X0046186Y0102104D01*
X0037499Y0102104D02*
X0037499Y0100003D01*
X0036448Y0098952D01*
X0033295Y0098952D01*
X0035397Y0098952D02*
X0037499Y0096850D01*
X0033295Y0096850D02*
X0033295Y0103155D01*
X0036448Y0103155D01*
X0037499Y0102104D01*
X0031054Y0103155D02*
X0031054Y0096850D01*
X0026850Y0096850D02*
X0026850Y0103155D01*
X0028952Y0101054D01*
X0031054Y0103155D01*
X0102047Y0098952D02*
X0105200Y0098952D01*
X0162205Y0101054D02*
X0164307Y0101054D01*
X0163256Y0102104D02*
X0163256Y0097901D01*
X0164307Y0096850D01*
X0166502Y0097901D02*
X0166502Y0100003D01*
X0167553Y0101054D01*
X0169655Y0101054D01*
X0170706Y0100003D01*
X0170706Y0098952D01*
X0166502Y0098952D01*
X0166502Y0097901D02*
X0167553Y0096850D01*
X0169655Y0096850D01*
X0172948Y0096850D02*
X0172948Y0101054D01*
X0175050Y0101054D02*
X0176101Y0101054D01*
X0175050Y0101054D02*
X0172948Y0098952D01*
D11*
X0059600Y0029657D02*
X0054463Y0029657D01*
X0054463Y0025803D01*
X0057031Y0027088D01*
X0058316Y0027088D01*
X0059600Y0025803D01*
X0059600Y0023234D01*
X0058316Y0021950D01*
X0055747Y0021950D01*
X0054463Y0023234D01*
X0051682Y0023234D02*
X0050397Y0021950D01*
X0047828Y0021950D01*
X0046544Y0023234D01*
X0051682Y0028372D01*
X0051682Y0023234D01*
X0046544Y0023234D02*
X0046544Y0028372D01*
X0047828Y0029657D01*
X0050397Y0029657D01*
X0051682Y0028372D01*
X0043763Y0025803D02*
X0038625Y0025803D01*
X0035844Y0027088D02*
X0035844Y0028372D01*
X0034560Y0029657D01*
X0031991Y0029657D01*
X0030706Y0028372D01*
X0027925Y0028372D02*
X0026641Y0029657D01*
X0024072Y0029657D01*
X0022788Y0028372D01*
X0020006Y0028372D02*
X0014869Y0023234D01*
X0016153Y0021950D01*
X0018722Y0021950D01*
X0020006Y0023234D01*
X0020006Y0028372D01*
X0018722Y0029657D01*
X0016153Y0029657D01*
X0014869Y0028372D01*
X0014869Y0023234D01*
X0012088Y0021950D02*
X0006950Y0021950D01*
X0012088Y0027088D01*
X0012088Y0028372D01*
X0010803Y0029657D01*
X0008234Y0029657D01*
X0006950Y0028372D01*
X0022788Y0021950D02*
X0027925Y0027088D01*
X0027925Y0028372D01*
X0030706Y0021950D02*
X0035844Y0027088D01*
X0035844Y0021950D02*
X0030706Y0021950D01*
X0027925Y0021950D02*
X0022788Y0021950D01*
X0034869Y0012088D02*
X0037438Y0014657D01*
X0037438Y0006950D01*
X0040006Y0006950D02*
X0034869Y0006950D01*
X0029519Y0006950D02*
X0032088Y0012088D01*
X0026950Y0012088D02*
X0029519Y0006950D01*
X0042788Y0006950D02*
X0044072Y0006950D01*
X0044072Y0008234D01*
X0042788Y0008234D01*
X0042788Y0006950D01*
X0046747Y0008234D02*
X0051885Y0013372D01*
X0051885Y0008234D01*
X0050600Y0006950D01*
X0048031Y0006950D01*
X0046747Y0008234D01*
X0046747Y0013372D01*
X0048031Y0014657D01*
X0050600Y0014657D01*
X0051885Y0013372D01*
D12*
X0001500Y0001500D02*
X0001500Y0111500D01*
X0196500Y0111500D01*
X0196500Y0001500D01*
X0001500Y0001500D01*
X0004300Y0011500D02*
X0004302Y0011677D01*
X0004309Y0011853D01*
X0004320Y0012030D01*
X0004335Y0012206D01*
X0004354Y0012381D01*
X0004378Y0012556D01*
X0004406Y0012731D01*
X0004438Y0012905D01*
X0004475Y0013078D01*
X0004516Y0013249D01*
X0004561Y0013420D01*
X0004610Y0013590D01*
X0004663Y0013759D01*
X0004721Y0013926D01*
X0004782Y0014091D01*
X0004848Y0014255D01*
X0004918Y0014418D01*
X0004991Y0014578D01*
X0005069Y0014737D01*
X0005150Y0014894D01*
X0005235Y0015049D01*
X0005324Y0015202D01*
X0005417Y0015352D01*
X0005513Y0015500D01*
X0005613Y0015646D01*
X0005717Y0015789D01*
X0005824Y0015930D01*
X0005934Y0016068D01*
X0006048Y0016203D01*
X0006165Y0016335D01*
X0006285Y0016465D01*
X0006409Y0016591D01*
X0006535Y0016715D01*
X0006665Y0016835D01*
X0006797Y0016952D01*
X0006932Y0017066D01*
X0007070Y0017176D01*
X0007211Y0017283D01*
X0007354Y0017387D01*
X0007500Y0017487D01*
X0007648Y0017583D01*
X0007798Y0017676D01*
X0007951Y0017765D01*
X0008106Y0017850D01*
X0008263Y0017931D01*
X0008422Y0018009D01*
X0008582Y0018082D01*
X0008745Y0018152D01*
X0008909Y0018218D01*
X0009074Y0018279D01*
X0009241Y0018337D01*
X0009410Y0018390D01*
X0009580Y0018439D01*
X0009751Y0018484D01*
X0009922Y0018525D01*
X0010095Y0018562D01*
X0010269Y0018594D01*
X0010444Y0018622D01*
X0010619Y0018646D01*
X0010794Y0018665D01*
X0010970Y0018680D01*
X0011147Y0018691D01*
X0011323Y0018698D01*
X0011500Y0018700D01*
X0011677Y0018698D01*
X0011853Y0018691D01*
X0012030Y0018680D01*
X0012206Y0018665D01*
X0012381Y0018646D01*
X0012556Y0018622D01*
X0012731Y0018594D01*
X0012905Y0018562D01*
X0013078Y0018525D01*
X0013249Y0018484D01*
X0013420Y0018439D01*
X0013590Y0018390D01*
X0013759Y0018337D01*
X0013926Y0018279D01*
X0014091Y0018218D01*
X0014255Y0018152D01*
X0014418Y0018082D01*
X0014578Y0018009D01*
X0014737Y0017931D01*
X0014894Y0017850D01*
X0015049Y0017765D01*
X0015202Y0017676D01*
X0015352Y0017583D01*
X0015500Y0017487D01*
X0015646Y0017387D01*
X0015789Y0017283D01*
X0015930Y0017176D01*
X0016068Y0017066D01*
X0016203Y0016952D01*
X0016335Y0016835D01*
X0016465Y0016715D01*
X0016591Y0016591D01*
X0016715Y0016465D01*
X0016835Y0016335D01*
X0016952Y0016203D01*
X0017066Y0016068D01*
X0017176Y0015930D01*
X0017283Y0015789D01*
X0017387Y0015646D01*
X0017487Y0015500D01*
X0017583Y0015352D01*
X0017676Y0015202D01*
X0017765Y0015049D01*
X0017850Y0014894D01*
X0017931Y0014737D01*
X0018009Y0014578D01*
X0018082Y0014418D01*
X0018152Y0014255D01*
X0018218Y0014091D01*
X0018279Y0013926D01*
X0018337Y0013759D01*
X0018390Y0013590D01*
X0018439Y0013420D01*
X0018484Y0013249D01*
X0018525Y0013078D01*
X0018562Y0012905D01*
X0018594Y0012731D01*
X0018622Y0012556D01*
X0018646Y0012381D01*
X0018665Y0012206D01*
X0018680Y0012030D01*
X0018691Y0011853D01*
X0018698Y0011677D01*
X0018700Y0011500D01*
X0018698Y0011323D01*
X0018691Y0011147D01*
X0018680Y0010970D01*
X0018665Y0010794D01*
X0018646Y0010619D01*
X0018622Y0010444D01*
X0018594Y0010269D01*
X0018562Y0010095D01*
X0018525Y0009922D01*
X0018484Y0009751D01*
X0018439Y0009580D01*
X0018390Y0009410D01*
X0018337Y0009241D01*
X0018279Y0009074D01*
X0018218Y0008909D01*
X0018152Y0008745D01*
X0018082Y0008582D01*
X0018009Y0008422D01*
X0017931Y0008263D01*
X0017850Y0008106D01*
X0017765Y0007951D01*
X0017676Y0007798D01*
X0017583Y0007648D01*
X0017487Y0007500D01*
X0017387Y0007354D01*
X0017283Y0007211D01*
X0017176Y0007070D01*
X0017066Y0006932D01*
X0016952Y0006797D01*
X0016835Y0006665D01*
X0016715Y0006535D01*
X0016591Y0006409D01*
X0016465Y0006285D01*
X0016335Y0006165D01*
X0016203Y0006048D01*
X0016068Y0005934D01*
X0015930Y0005824D01*
X0015789Y0005717D01*
X0015646Y0005613D01*
X0015500Y0005513D01*
X0015352Y0005417D01*
X0015202Y0005324D01*
X0015049Y0005235D01*
X0014894Y0005150D01*
X0014737Y0005069D01*
X0014578Y0004991D01*
X0014418Y0004918D01*
X0014255Y0004848D01*
X0014091Y0004782D01*
X0013926Y0004721D01*
X0013759Y0004663D01*
X0013590Y0004610D01*
X0013420Y0004561D01*
X0013249Y0004516D01*
X0013078Y0004475D01*
X0012905Y0004438D01*
X0012731Y0004406D01*
X0012556Y0004378D01*
X0012381Y0004354D01*
X0012206Y0004335D01*
X0012030Y0004320D01*
X0011853Y0004309D01*
X0011677Y0004302D01*
X0011500Y0004300D01*
X0011323Y0004302D01*
X0011147Y0004309D01*
X0010970Y0004320D01*
X0010794Y0004335D01*
X0010619Y0004354D01*
X0010444Y0004378D01*
X0010269Y0004406D01*
X0010095Y0004438D01*
X0009922Y0004475D01*
X0009751Y0004516D01*
X0009580Y0004561D01*
X0009410Y0004610D01*
X0009241Y0004663D01*
X0009074Y0004721D01*
X0008909Y0004782D01*
X0008745Y0004848D01*
X0008582Y0004918D01*
X0008422Y0004991D01*
X0008263Y0005069D01*
X0008106Y0005150D01*
X0007951Y0005235D01*
X0007798Y0005324D01*
X0007648Y0005417D01*
X0007500Y0005513D01*
X0007354Y0005613D01*
X0007211Y0005717D01*
X0007070Y0005824D01*
X0006932Y0005934D01*
X0006797Y0006048D01*
X0006665Y0006165D01*
X0006535Y0006285D01*
X0006409Y0006409D01*
X0006285Y0006535D01*
X0006165Y0006665D01*
X0006048Y0006797D01*
X0005934Y0006932D01*
X0005824Y0007070D01*
X0005717Y0007211D01*
X0005613Y0007354D01*
X0005513Y0007500D01*
X0005417Y0007648D01*
X0005324Y0007798D01*
X0005235Y0007951D01*
X0005150Y0008106D01*
X0005069Y0008263D01*
X0004991Y0008422D01*
X0004918Y0008582D01*
X0004848Y0008745D01*
X0004782Y0008909D01*
X0004721Y0009074D01*
X0004663Y0009241D01*
X0004610Y0009410D01*
X0004561Y0009580D01*
X0004516Y0009751D01*
X0004475Y0009922D01*
X0004438Y0010095D01*
X0004406Y0010269D01*
X0004378Y0010444D01*
X0004354Y0010619D01*
X0004335Y0010794D01*
X0004320Y0010970D01*
X0004309Y0011147D01*
X0004302Y0011323D01*
X0004300Y0011500D01*
X0179300Y0101500D02*
X0179302Y0101677D01*
X0179309Y0101853D01*
X0179320Y0102030D01*
X0179335Y0102206D01*
X0179354Y0102381D01*
X0179378Y0102556D01*
X0179406Y0102731D01*
X0179438Y0102905D01*
X0179475Y0103078D01*
X0179516Y0103249D01*
X0179561Y0103420D01*
X0179610Y0103590D01*
X0179663Y0103759D01*
X0179721Y0103926D01*
X0179782Y0104091D01*
X0179848Y0104255D01*
X0179918Y0104418D01*
X0179991Y0104578D01*
X0180069Y0104737D01*
X0180150Y0104894D01*
X0180235Y0105049D01*
X0180324Y0105202D01*
X0180417Y0105352D01*
X0180513Y0105500D01*
X0180613Y0105646D01*
X0180717Y0105789D01*
X0180824Y0105930D01*
X0180934Y0106068D01*
X0181048Y0106203D01*
X0181165Y0106335D01*
X0181285Y0106465D01*
X0181409Y0106591D01*
X0181535Y0106715D01*
X0181665Y0106835D01*
X0181797Y0106952D01*
X0181932Y0107066D01*
X0182070Y0107176D01*
X0182211Y0107283D01*
X0182354Y0107387D01*
X0182500Y0107487D01*
X0182648Y0107583D01*
X0182798Y0107676D01*
X0182951Y0107765D01*
X0183106Y0107850D01*
X0183263Y0107931D01*
X0183422Y0108009D01*
X0183582Y0108082D01*
X0183745Y0108152D01*
X0183909Y0108218D01*
X0184074Y0108279D01*
X0184241Y0108337D01*
X0184410Y0108390D01*
X0184580Y0108439D01*
X0184751Y0108484D01*
X0184922Y0108525D01*
X0185095Y0108562D01*
X0185269Y0108594D01*
X0185444Y0108622D01*
X0185619Y0108646D01*
X0185794Y0108665D01*
X0185970Y0108680D01*
X0186147Y0108691D01*
X0186323Y0108698D01*
X0186500Y0108700D01*
X0186677Y0108698D01*
X0186853Y0108691D01*
X0187030Y0108680D01*
X0187206Y0108665D01*
X0187381Y0108646D01*
X0187556Y0108622D01*
X0187731Y0108594D01*
X0187905Y0108562D01*
X0188078Y0108525D01*
X0188249Y0108484D01*
X0188420Y0108439D01*
X0188590Y0108390D01*
X0188759Y0108337D01*
X0188926Y0108279D01*
X0189091Y0108218D01*
X0189255Y0108152D01*
X0189418Y0108082D01*
X0189578Y0108009D01*
X0189737Y0107931D01*
X0189894Y0107850D01*
X0190049Y0107765D01*
X0190202Y0107676D01*
X0190352Y0107583D01*
X0190500Y0107487D01*
X0190646Y0107387D01*
X0190789Y0107283D01*
X0190930Y0107176D01*
X0191068Y0107066D01*
X0191203Y0106952D01*
X0191335Y0106835D01*
X0191465Y0106715D01*
X0191591Y0106591D01*
X0191715Y0106465D01*
X0191835Y0106335D01*
X0191952Y0106203D01*
X0192066Y0106068D01*
X0192176Y0105930D01*
X0192283Y0105789D01*
X0192387Y0105646D01*
X0192487Y0105500D01*
X0192583Y0105352D01*
X0192676Y0105202D01*
X0192765Y0105049D01*
X0192850Y0104894D01*
X0192931Y0104737D01*
X0193009Y0104578D01*
X0193082Y0104418D01*
X0193152Y0104255D01*
X0193218Y0104091D01*
X0193279Y0103926D01*
X0193337Y0103759D01*
X0193390Y0103590D01*
X0193439Y0103420D01*
X0193484Y0103249D01*
X0193525Y0103078D01*
X0193562Y0102905D01*
X0193594Y0102731D01*
X0193622Y0102556D01*
X0193646Y0102381D01*
X0193665Y0102206D01*
X0193680Y0102030D01*
X0193691Y0101853D01*
X0193698Y0101677D01*
X0193700Y0101500D01*
X0193698Y0101323D01*
X0193691Y0101147D01*
X0193680Y0100970D01*
X0193665Y0100794D01*
X0193646Y0100619D01*
X0193622Y0100444D01*
X0193594Y0100269D01*
X0193562Y0100095D01*
X0193525Y0099922D01*
X0193484Y0099751D01*
X0193439Y0099580D01*
X0193390Y0099410D01*
X0193337Y0099241D01*
X0193279Y0099074D01*
X0193218Y0098909D01*
X0193152Y0098745D01*
X0193082Y0098582D01*
X0193009Y0098422D01*
X0192931Y0098263D01*
X0192850Y0098106D01*
X0192765Y0097951D01*
X0192676Y0097798D01*
X0192583Y0097648D01*
X0192487Y0097500D01*
X0192387Y0097354D01*
X0192283Y0097211D01*
X0192176Y0097070D01*
X0192066Y0096932D01*
X0191952Y0096797D01*
X0191835Y0096665D01*
X0191715Y0096535D01*
X0191591Y0096409D01*
X0191465Y0096285D01*
X0191335Y0096165D01*
X0191203Y0096048D01*
X0191068Y0095934D01*
X0190930Y0095824D01*
X0190789Y0095717D01*
X0190646Y0095613D01*
X0190500Y0095513D01*
X0190352Y0095417D01*
X0190202Y0095324D01*
X0190049Y0095235D01*
X0189894Y0095150D01*
X0189737Y0095069D01*
X0189578Y0094991D01*
X0189418Y0094918D01*
X0189255Y0094848D01*
X0189091Y0094782D01*
X0188926Y0094721D01*
X0188759Y0094663D01*
X0188590Y0094610D01*
X0188420Y0094561D01*
X0188249Y0094516D01*
X0188078Y0094475D01*
X0187905Y0094438D01*
X0187731Y0094406D01*
X0187556Y0094378D01*
X0187381Y0094354D01*
X0187206Y0094335D01*
X0187030Y0094320D01*
X0186853Y0094309D01*
X0186677Y0094302D01*
X0186500Y0094300D01*
X0186323Y0094302D01*
X0186147Y0094309D01*
X0185970Y0094320D01*
X0185794Y0094335D01*
X0185619Y0094354D01*
X0185444Y0094378D01*
X0185269Y0094406D01*
X0185095Y0094438D01*
X0184922Y0094475D01*
X0184751Y0094516D01*
X0184580Y0094561D01*
X0184410Y0094610D01*
X0184241Y0094663D01*
X0184074Y0094721D01*
X0183909Y0094782D01*
X0183745Y0094848D01*
X0183582Y0094918D01*
X0183422Y0094991D01*
X0183263Y0095069D01*
X0183106Y0095150D01*
X0182951Y0095235D01*
X0182798Y0095324D01*
X0182648Y0095417D01*
X0182500Y0095513D01*
X0182354Y0095613D01*
X0182211Y0095717D01*
X0182070Y0095824D01*
X0181932Y0095934D01*
X0181797Y0096048D01*
X0181665Y0096165D01*
X0181535Y0096285D01*
X0181409Y0096409D01*
X0181285Y0096535D01*
X0181165Y0096665D01*
X0181048Y0096797D01*
X0180934Y0096932D01*
X0180824Y0097070D01*
X0180717Y0097211D01*
X0180613Y0097354D01*
X0180513Y0097500D01*
X0180417Y0097648D01*
X0180324Y0097798D01*
X0180235Y0097951D01*
X0180150Y0098106D01*
X0180069Y0098263D01*
X0179991Y0098422D01*
X0179918Y0098582D01*
X0179848Y0098745D01*
X0179782Y0098909D01*
X0179721Y0099074D01*
X0179663Y0099241D01*
X0179610Y0099410D01*
X0179561Y0099580D01*
X0179516Y0099751D01*
X0179475Y0099922D01*
X0179438Y0100095D01*
X0179406Y0100269D01*
X0179378Y0100444D01*
X0179354Y0100619D01*
X0179335Y0100794D01*
X0179320Y0100970D01*
X0179309Y0101147D01*
X0179302Y0101323D01*
X0179300Y0101500D01*
D13*
X0058887Y0060970D02*
X0058053Y0061804D01*
X0056385Y0061804D01*
X0055551Y0060970D01*
X0055551Y0060136D01*
X0056385Y0059302D01*
X0058053Y0059302D01*
X0058887Y0058468D01*
X0058887Y0057634D01*
X0058053Y0056800D01*
X0056385Y0056800D01*
X0055551Y0057634D01*
X0053731Y0059302D02*
X0050395Y0059302D01*
X0048575Y0061804D02*
X0045238Y0061804D01*
X0046906Y0061804D02*
X0046906Y0056800D01*
X0043418Y0059302D02*
X0040082Y0059302D01*
X0041750Y0060970D02*
X0041750Y0057634D01*
X0036594Y0056800D02*
X0036594Y0061804D01*
X0034926Y0061804D02*
X0038262Y0061804D01*
X0033105Y0059302D02*
X0029769Y0059302D01*
X0027949Y0059302D02*
X0027949Y0060970D01*
X0027115Y0061804D01*
X0024613Y0061804D01*
X0024613Y0056800D01*
X0024613Y0058468D02*
X0027115Y0058468D01*
X0027949Y0059302D01*
X0026281Y0058468D02*
X0027949Y0056800D01*
X0022793Y0059302D02*
X0019456Y0059302D01*
X0017636Y0059302D02*
X0016802Y0058468D01*
X0014300Y0058468D01*
X0014300Y0056800D02*
X0014300Y0061804D01*
X0016802Y0061804D01*
X0017636Y0060970D01*
X0017636Y0059302D01*
X0015968Y0058468D02*
X0017636Y0056800D01*
X0021124Y0057634D02*
X0021124Y0060970D01*
D14*
X0019000Y0071500D02*
X0014000Y0071500D01*
X0011500Y0074000D01*
X0011500Y0079000D01*
X0014000Y0081500D01*
X0019000Y0081500D01*
X0021500Y0079000D01*
X0024000Y0081500D01*
X0029000Y0081500D01*
X0031500Y0079000D01*
X0034000Y0081500D01*
X0039000Y0081500D01*
X0041500Y0079000D01*
X0044000Y0081500D01*
X0049000Y0081500D01*
X0051500Y0079000D01*
X0054000Y0081500D01*
X0059000Y0081500D01*
X0061500Y0079000D01*
X0061500Y0074000D01*
X0059000Y0071500D01*
X0054000Y0071500D01*
X0051500Y0074000D01*
X0049000Y0071500D01*
X0044000Y0071500D01*
X0041500Y0074000D01*
X0039000Y0071500D01*
X0034000Y0071500D01*
X0031500Y0074000D01*
X0029000Y0071500D01*
X0024000Y0071500D01*
X0021500Y0074000D01*
X0019000Y0071500D01*
X0019000Y0041500D02*
X0014000Y0041500D01*
X0011500Y0039000D01*
X0011500Y0034000D01*
X0014000Y0031500D01*
X0019000Y0031500D01*
X0021500Y0034000D01*
X0024000Y0031500D01*
X0029000Y0031500D01*
X0031500Y0034000D01*
X0034000Y0031500D01*
X0039000Y0031500D01*
X0041500Y0034000D01*
X0044000Y0031500D01*
X0049000Y0031500D01*
X0051500Y0034000D01*
X0054000Y0031500D01*
X0059000Y0031500D01*
X0061500Y0034000D01*
X0061500Y0039000D01*
X0059000Y0041500D01*
X0054000Y0041500D01*
X0051500Y0039000D01*
X0049000Y0041500D01*
X0044000Y0041500D01*
X0041500Y0039000D01*
X0039000Y0041500D01*
X0034000Y0041500D01*
X0031500Y0039000D01*
X0029000Y0041500D01*
X0024000Y0041500D01*
X0021500Y0039000D01*
X0019000Y0041500D01*
X0147504Y0008114D02*
X0185988Y0008114D01*
X0185988Y0015201D01*
X0176441Y0015201D01*
X0176441Y0077701D01*
X0185988Y0077701D01*
X0185988Y0084787D01*
X0147504Y0084787D01*
X0147504Y0008114D01*
X0185988Y0015201D02*
X0185988Y0077701D01*
D15*
X0182962Y0087724D02*
X0179893Y0087724D01*
X0181427Y0087724D02*
X0181427Y0092328D01*
X0179893Y0090793D01*
X0178358Y0092328D02*
X0175289Y0092328D01*
X0176824Y0092328D02*
X0176824Y0087724D01*
X0173754Y0087724D02*
X0170685Y0087724D01*
X0170685Y0092328D01*
X0173754Y0092328D01*
X0172220Y0090026D02*
X0170685Y0090026D01*
X0169150Y0087724D02*
X0169150Y0092328D01*
X0166081Y0092328D02*
X0169150Y0087724D01*
X0166081Y0087724D02*
X0166081Y0092328D01*
X0164546Y0092328D02*
X0163012Y0092328D01*
X0163779Y0092328D02*
X0163779Y0087724D01*
X0163012Y0087724D02*
X0164546Y0087724D01*
X0161477Y0087724D02*
X0159942Y0089258D01*
X0160710Y0089258D02*
X0161477Y0090026D01*
X0161477Y0091560D01*
X0160710Y0092328D01*
X0158408Y0092328D01*
X0158408Y0087724D01*
X0158408Y0089258D02*
X0160710Y0089258D01*
X0156873Y0087724D02*
X0156873Y0092328D01*
X0155339Y0090793D01*
X0153804Y0092328D01*
X0153804Y0087724D01*
X0152269Y0088491D02*
X0151502Y0087724D01*
X0149967Y0087724D01*
X0149200Y0088491D01*
X0149200Y0091560D01*
X0149967Y0092328D01*
X0151502Y0092328D01*
X0152269Y0091560D01*
X0139433Y0090870D02*
X0139433Y0084029D01*
X0139433Y0082156D01*
X0068567Y0082156D01*
X0068567Y0070137D01*
X0068567Y0068235D01*
X0068567Y0065039D01*
X0068567Y0063311D01*
X0068567Y0062130D01*
X0139433Y0062130D01*
X0139433Y0063311D01*
X0139433Y0065039D01*
X0068567Y0065039D01*
X0066969Y0065450D02*
X0062365Y0068519D01*
X0063133Y0070054D02*
X0062365Y0070821D01*
X0062365Y0072356D01*
X0063133Y0073123D01*
X0063900Y0073123D01*
X0064667Y0072356D01*
X0065435Y0073123D01*
X0066202Y0073123D01*
X0066969Y0072356D01*
X0066969Y0070821D01*
X0066202Y0070054D01*
X0066969Y0068519D02*
X0062365Y0065450D01*
X0068567Y0063311D02*
X0139433Y0063311D01*
X0139433Y0065039D02*
X0139433Y0068235D01*
X0139433Y0070137D01*
X0068567Y0070137D01*
X0068567Y0068235D02*
X0139433Y0068235D01*
X0139433Y0070137D02*
X0139433Y0082156D01*
X0139433Y0084029D02*
X0068567Y0084029D01*
X0068567Y0082156D01*
X0068567Y0084029D02*
X0068567Y0090870D01*
X0139433Y0090870D01*
X0132939Y0090054D02*
X0129869Y0090054D01*
X0129869Y0087752D01*
X0131404Y0088519D01*
X0132171Y0088519D01*
X0132939Y0087752D01*
X0132939Y0086217D01*
X0132171Y0085450D01*
X0130637Y0085450D01*
X0129869Y0086217D01*
X0134358Y0080854D02*
X0126811Y0073307D01*
X0128760Y0071358D02*
X0136283Y0078882D01*
X0136307Y0078906D01*
X0125850Y0076106D02*
X0125852Y0076257D01*
X0125858Y0076407D01*
X0125868Y0076558D01*
X0125882Y0076708D01*
X0125900Y0076857D01*
X0125921Y0077007D01*
X0125947Y0077155D01*
X0125977Y0077303D01*
X0126010Y0077450D01*
X0126048Y0077596D01*
X0126089Y0077741D01*
X0126134Y0077885D01*
X0126183Y0078027D01*
X0126236Y0078168D01*
X0126292Y0078308D01*
X0126352Y0078446D01*
X0126415Y0078583D01*
X0126483Y0078718D01*
X0126553Y0078851D01*
X0126627Y0078982D01*
X0126705Y0079111D01*
X0126786Y0079238D01*
X0126870Y0079363D01*
X0126958Y0079486D01*
X0127049Y0079606D01*
X0127143Y0079724D01*
X0127240Y0079839D01*
X0127340Y0079952D01*
X0127443Y0080062D01*
X0127549Y0080169D01*
X0127658Y0080274D01*
X0127769Y0080375D01*
X0127883Y0080474D01*
X0127999Y0080569D01*
X0128119Y0080662D01*
X0128240Y0080751D01*
X0128364Y0080837D01*
X0128490Y0080920D01*
X0128618Y0080999D01*
X0128748Y0081075D01*
X0128880Y0081148D01*
X0129014Y0081216D01*
X0129150Y0081282D01*
X0129288Y0081344D01*
X0129427Y0081402D01*
X0129567Y0081456D01*
X0129709Y0081507D01*
X0129852Y0081554D01*
X0129997Y0081597D01*
X0130142Y0081636D01*
X0130289Y0081672D01*
X0130436Y0081703D01*
X0130584Y0081731D01*
X0130733Y0081755D01*
X0130882Y0081775D01*
X0131032Y0081791D01*
X0131182Y0081803D01*
X0131333Y0081811D01*
X0131484Y0081815D01*
X0131634Y0081815D01*
X0131785Y0081811D01*
X0131936Y0081803D01*
X0132086Y0081791D01*
X0132236Y0081775D01*
X0132385Y0081755D01*
X0132534Y0081731D01*
X0132682Y0081703D01*
X0132829Y0081672D01*
X0132976Y0081636D01*
X0133121Y0081597D01*
X0133266Y0081554D01*
X0133409Y0081507D01*
X0133551Y0081456D01*
X0133691Y0081402D01*
X0133830Y0081344D01*
X0133968Y0081282D01*
X0134104Y0081216D01*
X0134238Y0081148D01*
X0134370Y0081075D01*
X0134500Y0080999D01*
X0134628Y0080920D01*
X0134754Y0080837D01*
X0134878Y0080751D01*
X0134999Y0080662D01*
X0135119Y0080569D01*
X0135235Y0080474D01*
X0135349Y0080375D01*
X0135460Y0080274D01*
X0135569Y0080169D01*
X0135675Y0080062D01*
X0135778Y0079952D01*
X0135878Y0079839D01*
X0135975Y0079724D01*
X0136069Y0079606D01*
X0136160Y0079486D01*
X0136248Y0079363D01*
X0136332Y0079238D01*
X0136413Y0079111D01*
X0136491Y0078982D01*
X0136565Y0078851D01*
X0136635Y0078718D01*
X0136703Y0078583D01*
X0136766Y0078446D01*
X0136826Y0078308D01*
X0136882Y0078168D01*
X0136935Y0078027D01*
X0136984Y0077885D01*
X0137029Y0077741D01*
X0137070Y0077596D01*
X0137108Y0077450D01*
X0137141Y0077303D01*
X0137171Y0077155D01*
X0137197Y0077007D01*
X0137218Y0076857D01*
X0137236Y0076708D01*
X0137250Y0076558D01*
X0137260Y0076407D01*
X0137266Y0076257D01*
X0137268Y0076106D01*
X0137266Y0075955D01*
X0137260Y0075805D01*
X0137250Y0075654D01*
X0137236Y0075504D01*
X0137218Y0075355D01*
X0137197Y0075205D01*
X0137171Y0075057D01*
X0137141Y0074909D01*
X0137108Y0074762D01*
X0137070Y0074616D01*
X0137029Y0074471D01*
X0136984Y0074327D01*
X0136935Y0074185D01*
X0136882Y0074044D01*
X0136826Y0073904D01*
X0136766Y0073766D01*
X0136703Y0073629D01*
X0136635Y0073494D01*
X0136565Y0073361D01*
X0136491Y0073230D01*
X0136413Y0073101D01*
X0136332Y0072974D01*
X0136248Y0072849D01*
X0136160Y0072726D01*
X0136069Y0072606D01*
X0135975Y0072488D01*
X0135878Y0072373D01*
X0135778Y0072260D01*
X0135675Y0072150D01*
X0135569Y0072043D01*
X0135460Y0071938D01*
X0135349Y0071837D01*
X0135235Y0071738D01*
X0135119Y0071643D01*
X0134999Y0071550D01*
X0134878Y0071461D01*
X0134754Y0071375D01*
X0134628Y0071292D01*
X0134500Y0071213D01*
X0134370Y0071137D01*
X0134238Y0071064D01*
X0134104Y0070996D01*
X0133968Y0070930D01*
X0133830Y0070868D01*
X0133691Y0070810D01*
X0133551Y0070756D01*
X0133409Y0070705D01*
X0133266Y0070658D01*
X0133121Y0070615D01*
X0132976Y0070576D01*
X0132829Y0070540D01*
X0132682Y0070509D01*
X0132534Y0070481D01*
X0132385Y0070457D01*
X0132236Y0070437D01*
X0132086Y0070421D01*
X0131936Y0070409D01*
X0131785Y0070401D01*
X0131634Y0070397D01*
X0131484Y0070397D01*
X0131333Y0070401D01*
X0131182Y0070409D01*
X0131032Y0070421D01*
X0130882Y0070437D01*
X0130733Y0070457D01*
X0130584Y0070481D01*
X0130436Y0070509D01*
X0130289Y0070540D01*
X0130142Y0070576D01*
X0129997Y0070615D01*
X0129852Y0070658D01*
X0129709Y0070705D01*
X0129567Y0070756D01*
X0129427Y0070810D01*
X0129288Y0070868D01*
X0129150Y0070930D01*
X0129014Y0070996D01*
X0128880Y0071064D01*
X0128748Y0071137D01*
X0128618Y0071213D01*
X0128490Y0071292D01*
X0128364Y0071375D01*
X0128240Y0071461D01*
X0128119Y0071550D01*
X0127999Y0071643D01*
X0127883Y0071738D01*
X0127769Y0071837D01*
X0127658Y0071938D01*
X0127549Y0072043D01*
X0127443Y0072150D01*
X0127340Y0072260D01*
X0127240Y0072373D01*
X0127143Y0072488D01*
X0127049Y0072606D01*
X0126958Y0072726D01*
X0126870Y0072849D01*
X0126786Y0072974D01*
X0126705Y0073101D01*
X0126627Y0073230D01*
X0126553Y0073361D01*
X0126483Y0073494D01*
X0126415Y0073629D01*
X0126352Y0073766D01*
X0126292Y0073904D01*
X0126236Y0074044D01*
X0126183Y0074185D01*
X0126134Y0074327D01*
X0126089Y0074471D01*
X0126048Y0074616D01*
X0126010Y0074762D01*
X0125977Y0074909D01*
X0125947Y0075057D01*
X0125921Y0075205D01*
X0125900Y0075355D01*
X0125882Y0075504D01*
X0125868Y0075654D01*
X0125858Y0075805D01*
X0125852Y0075955D01*
X0125850Y0076106D01*
X0122528Y0078906D02*
X0122504Y0078882D01*
X0114980Y0071358D01*
X0113031Y0073307D02*
X0120579Y0080854D01*
X0118421Y0085450D02*
X0118421Y0090054D01*
X0116119Y0087752D01*
X0119189Y0087752D01*
X0105439Y0088519D02*
X0104671Y0087752D01*
X0105439Y0086985D01*
X0105439Y0086217D01*
X0104671Y0085450D01*
X0103137Y0085450D01*
X0102369Y0086217D01*
X0103904Y0087752D02*
X0104671Y0087752D01*
X0105439Y0088519D02*
X0105439Y0089287D01*
X0104671Y0090054D01*
X0103137Y0090054D01*
X0102369Y0089287D01*
X0091689Y0089287D02*
X0091689Y0088519D01*
X0088619Y0085450D01*
X0091689Y0085450D01*
X0091689Y0089287D02*
X0090921Y0090054D01*
X0089387Y0090054D01*
X0088619Y0089287D01*
X0077939Y0085450D02*
X0074869Y0085450D01*
X0076404Y0085450D02*
X0076404Y0090054D01*
X0074869Y0088519D01*
X0079240Y0080854D02*
X0071693Y0073307D01*
X0073642Y0071358D02*
X0081165Y0078882D01*
X0081189Y0078906D01*
X0070732Y0076106D02*
X0070734Y0076257D01*
X0070740Y0076407D01*
X0070750Y0076558D01*
X0070764Y0076708D01*
X0070782Y0076857D01*
X0070803Y0077007D01*
X0070829Y0077155D01*
X0070859Y0077303D01*
X0070892Y0077450D01*
X0070930Y0077596D01*
X0070971Y0077741D01*
X0071016Y0077885D01*
X0071065Y0078027D01*
X0071118Y0078168D01*
X0071174Y0078308D01*
X0071234Y0078446D01*
X0071297Y0078583D01*
X0071365Y0078718D01*
X0071435Y0078851D01*
X0071509Y0078982D01*
X0071587Y0079111D01*
X0071668Y0079238D01*
X0071752Y0079363D01*
X0071840Y0079486D01*
X0071931Y0079606D01*
X0072025Y0079724D01*
X0072122Y0079839D01*
X0072222Y0079952D01*
X0072325Y0080062D01*
X0072431Y0080169D01*
X0072540Y0080274D01*
X0072651Y0080375D01*
X0072765Y0080474D01*
X0072881Y0080569D01*
X0073001Y0080662D01*
X0073122Y0080751D01*
X0073246Y0080837D01*
X0073372Y0080920D01*
X0073500Y0080999D01*
X0073630Y0081075D01*
X0073762Y0081148D01*
X0073896Y0081216D01*
X0074032Y0081282D01*
X0074170Y0081344D01*
X0074309Y0081402D01*
X0074449Y0081456D01*
X0074591Y0081507D01*
X0074734Y0081554D01*
X0074879Y0081597D01*
X0075024Y0081636D01*
X0075171Y0081672D01*
X0075318Y0081703D01*
X0075466Y0081731D01*
X0075615Y0081755D01*
X0075764Y0081775D01*
X0075914Y0081791D01*
X0076064Y0081803D01*
X0076215Y0081811D01*
X0076366Y0081815D01*
X0076516Y0081815D01*
X0076667Y0081811D01*
X0076818Y0081803D01*
X0076968Y0081791D01*
X0077118Y0081775D01*
X0077267Y0081755D01*
X0077416Y0081731D01*
X0077564Y0081703D01*
X0077711Y0081672D01*
X0077858Y0081636D01*
X0078003Y0081597D01*
X0078148Y0081554D01*
X0078291Y0081507D01*
X0078433Y0081456D01*
X0078573Y0081402D01*
X0078712Y0081344D01*
X0078850Y0081282D01*
X0078986Y0081216D01*
X0079120Y0081148D01*
X0079252Y0081075D01*
X0079382Y0080999D01*
X0079510Y0080920D01*
X0079636Y0080837D01*
X0079760Y0080751D01*
X0079881Y0080662D01*
X0080001Y0080569D01*
X0080117Y0080474D01*
X0080231Y0080375D01*
X0080342Y0080274D01*
X0080451Y0080169D01*
X0080557Y0080062D01*
X0080660Y0079952D01*
X0080760Y0079839D01*
X0080857Y0079724D01*
X0080951Y0079606D01*
X0081042Y0079486D01*
X0081130Y0079363D01*
X0081214Y0079238D01*
X0081295Y0079111D01*
X0081373Y0078982D01*
X0081447Y0078851D01*
X0081517Y0078718D01*
X0081585Y0078583D01*
X0081648Y0078446D01*
X0081708Y0078308D01*
X0081764Y0078168D01*
X0081817Y0078027D01*
X0081866Y0077885D01*
X0081911Y0077741D01*
X0081952Y0077596D01*
X0081990Y0077450D01*
X0082023Y0077303D01*
X0082053Y0077155D01*
X0082079Y0077007D01*
X0082100Y0076857D01*
X0082118Y0076708D01*
X0082132Y0076558D01*
X0082142Y0076407D01*
X0082148Y0076257D01*
X0082150Y0076106D01*
X0082148Y0075955D01*
X0082142Y0075805D01*
X0082132Y0075654D01*
X0082118Y0075504D01*
X0082100Y0075355D01*
X0082079Y0075205D01*
X0082053Y0075057D01*
X0082023Y0074909D01*
X0081990Y0074762D01*
X0081952Y0074616D01*
X0081911Y0074471D01*
X0081866Y0074327D01*
X0081817Y0074185D01*
X0081764Y0074044D01*
X0081708Y0073904D01*
X0081648Y0073766D01*
X0081585Y0073629D01*
X0081517Y0073494D01*
X0081447Y0073361D01*
X0081373Y0073230D01*
X0081295Y0073101D01*
X0081214Y0072974D01*
X0081130Y0072849D01*
X0081042Y0072726D01*
X0080951Y0072606D01*
X0080857Y0072488D01*
X0080760Y0072373D01*
X0080660Y0072260D01*
X0080557Y0072150D01*
X0080451Y0072043D01*
X0080342Y0071938D01*
X0080231Y0071837D01*
X0080117Y0071738D01*
X0080001Y0071643D01*
X0079881Y0071550D01*
X0079760Y0071461D01*
X0079636Y0071375D01*
X0079510Y0071292D01*
X0079382Y0071213D01*
X0079252Y0071137D01*
X0079120Y0071064D01*
X0078986Y0070996D01*
X0078850Y0070930D01*
X0078712Y0070868D01*
X0078573Y0070810D01*
X0078433Y0070756D01*
X0078291Y0070705D01*
X0078148Y0070658D01*
X0078003Y0070615D01*
X0077858Y0070576D01*
X0077711Y0070540D01*
X0077564Y0070509D01*
X0077416Y0070481D01*
X0077267Y0070457D01*
X0077118Y0070437D01*
X0076968Y0070421D01*
X0076818Y0070409D01*
X0076667Y0070401D01*
X0076516Y0070397D01*
X0076366Y0070397D01*
X0076215Y0070401D01*
X0076064Y0070409D01*
X0075914Y0070421D01*
X0075764Y0070437D01*
X0075615Y0070457D01*
X0075466Y0070481D01*
X0075318Y0070509D01*
X0075171Y0070540D01*
X0075024Y0070576D01*
X0074879Y0070615D01*
X0074734Y0070658D01*
X0074591Y0070705D01*
X0074449Y0070756D01*
X0074309Y0070810D01*
X0074170Y0070868D01*
X0074032Y0070930D01*
X0073896Y0070996D01*
X0073762Y0071064D01*
X0073630Y0071137D01*
X0073500Y0071213D01*
X0073372Y0071292D01*
X0073246Y0071375D01*
X0073122Y0071461D01*
X0073001Y0071550D01*
X0072881Y0071643D01*
X0072765Y0071738D01*
X0072651Y0071837D01*
X0072540Y0071938D01*
X0072431Y0072043D01*
X0072325Y0072150D01*
X0072222Y0072260D01*
X0072122Y0072373D01*
X0072025Y0072488D01*
X0071931Y0072606D01*
X0071840Y0072726D01*
X0071752Y0072849D01*
X0071668Y0072974D01*
X0071587Y0073101D01*
X0071509Y0073230D01*
X0071435Y0073361D01*
X0071365Y0073494D01*
X0071297Y0073629D01*
X0071234Y0073766D01*
X0071174Y0073904D01*
X0071118Y0074044D01*
X0071065Y0074185D01*
X0071016Y0074327D01*
X0070971Y0074471D01*
X0070930Y0074616D01*
X0070892Y0074762D01*
X0070859Y0074909D01*
X0070829Y0075057D01*
X0070803Y0075205D01*
X0070782Y0075355D01*
X0070764Y0075504D01*
X0070750Y0075654D01*
X0070740Y0075805D01*
X0070734Y0075955D01*
X0070732Y0076106D01*
X0064667Y0072356D02*
X0064667Y0071589D01*
X0069669Y0067750D02*
X0072169Y0067750D01*
X0070919Y0065250D01*
X0069669Y0067750D01*
X0069718Y0067653D02*
X0072121Y0067653D01*
X0071921Y0067254D02*
X0069917Y0067254D01*
X0070116Y0066856D02*
X0071722Y0066856D01*
X0071523Y0066457D02*
X0070316Y0066457D01*
X0070515Y0066059D02*
X0071324Y0066059D01*
X0071124Y0065660D02*
X0070714Y0065660D01*
X0070913Y0065262D02*
X0070925Y0065262D01*
X0085472Y0073307D02*
X0093020Y0080854D01*
X0094969Y0078906D02*
X0094945Y0078882D01*
X0087421Y0071358D01*
X0084511Y0076106D02*
X0084513Y0076257D01*
X0084519Y0076407D01*
X0084529Y0076558D01*
X0084543Y0076708D01*
X0084561Y0076857D01*
X0084582Y0077007D01*
X0084608Y0077155D01*
X0084638Y0077303D01*
X0084671Y0077450D01*
X0084709Y0077596D01*
X0084750Y0077741D01*
X0084795Y0077885D01*
X0084844Y0078027D01*
X0084897Y0078168D01*
X0084953Y0078308D01*
X0085013Y0078446D01*
X0085076Y0078583D01*
X0085144Y0078718D01*
X0085214Y0078851D01*
X0085288Y0078982D01*
X0085366Y0079111D01*
X0085447Y0079238D01*
X0085531Y0079363D01*
X0085619Y0079486D01*
X0085710Y0079606D01*
X0085804Y0079724D01*
X0085901Y0079839D01*
X0086001Y0079952D01*
X0086104Y0080062D01*
X0086210Y0080169D01*
X0086319Y0080274D01*
X0086430Y0080375D01*
X0086544Y0080474D01*
X0086660Y0080569D01*
X0086780Y0080662D01*
X0086901Y0080751D01*
X0087025Y0080837D01*
X0087151Y0080920D01*
X0087279Y0080999D01*
X0087409Y0081075D01*
X0087541Y0081148D01*
X0087675Y0081216D01*
X0087811Y0081282D01*
X0087949Y0081344D01*
X0088088Y0081402D01*
X0088228Y0081456D01*
X0088370Y0081507D01*
X0088513Y0081554D01*
X0088658Y0081597D01*
X0088803Y0081636D01*
X0088950Y0081672D01*
X0089097Y0081703D01*
X0089245Y0081731D01*
X0089394Y0081755D01*
X0089543Y0081775D01*
X0089693Y0081791D01*
X0089843Y0081803D01*
X0089994Y0081811D01*
X0090145Y0081815D01*
X0090295Y0081815D01*
X0090446Y0081811D01*
X0090597Y0081803D01*
X0090747Y0081791D01*
X0090897Y0081775D01*
X0091046Y0081755D01*
X0091195Y0081731D01*
X0091343Y0081703D01*
X0091490Y0081672D01*
X0091637Y0081636D01*
X0091782Y0081597D01*
X0091927Y0081554D01*
X0092070Y0081507D01*
X0092212Y0081456D01*
X0092352Y0081402D01*
X0092491Y0081344D01*
X0092629Y0081282D01*
X0092765Y0081216D01*
X0092899Y0081148D01*
X0093031Y0081075D01*
X0093161Y0080999D01*
X0093289Y0080920D01*
X0093415Y0080837D01*
X0093539Y0080751D01*
X0093660Y0080662D01*
X0093780Y0080569D01*
X0093896Y0080474D01*
X0094010Y0080375D01*
X0094121Y0080274D01*
X0094230Y0080169D01*
X0094336Y0080062D01*
X0094439Y0079952D01*
X0094539Y0079839D01*
X0094636Y0079724D01*
X0094730Y0079606D01*
X0094821Y0079486D01*
X0094909Y0079363D01*
X0094993Y0079238D01*
X0095074Y0079111D01*
X0095152Y0078982D01*
X0095226Y0078851D01*
X0095296Y0078718D01*
X0095364Y0078583D01*
X0095427Y0078446D01*
X0095487Y0078308D01*
X0095543Y0078168D01*
X0095596Y0078027D01*
X0095645Y0077885D01*
X0095690Y0077741D01*
X0095731Y0077596D01*
X0095769Y0077450D01*
X0095802Y0077303D01*
X0095832Y0077155D01*
X0095858Y0077007D01*
X0095879Y0076857D01*
X0095897Y0076708D01*
X0095911Y0076558D01*
X0095921Y0076407D01*
X0095927Y0076257D01*
X0095929Y0076106D01*
X0095927Y0075955D01*
X0095921Y0075805D01*
X0095911Y0075654D01*
X0095897Y0075504D01*
X0095879Y0075355D01*
X0095858Y0075205D01*
X0095832Y0075057D01*
X0095802Y0074909D01*
X0095769Y0074762D01*
X0095731Y0074616D01*
X0095690Y0074471D01*
X0095645Y0074327D01*
X0095596Y0074185D01*
X0095543Y0074044D01*
X0095487Y0073904D01*
X0095427Y0073766D01*
X0095364Y0073629D01*
X0095296Y0073494D01*
X0095226Y0073361D01*
X0095152Y0073230D01*
X0095074Y0073101D01*
X0094993Y0072974D01*
X0094909Y0072849D01*
X0094821Y0072726D01*
X0094730Y0072606D01*
X0094636Y0072488D01*
X0094539Y0072373D01*
X0094439Y0072260D01*
X0094336Y0072150D01*
X0094230Y0072043D01*
X0094121Y0071938D01*
X0094010Y0071837D01*
X0093896Y0071738D01*
X0093780Y0071643D01*
X0093660Y0071550D01*
X0093539Y0071461D01*
X0093415Y0071375D01*
X0093289Y0071292D01*
X0093161Y0071213D01*
X0093031Y0071137D01*
X0092899Y0071064D01*
X0092765Y0070996D01*
X0092629Y0070930D01*
X0092491Y0070868D01*
X0092352Y0070810D01*
X0092212Y0070756D01*
X0092070Y0070705D01*
X0091927Y0070658D01*
X0091782Y0070615D01*
X0091637Y0070576D01*
X0091490Y0070540D01*
X0091343Y0070509D01*
X0091195Y0070481D01*
X0091046Y0070457D01*
X0090897Y0070437D01*
X0090747Y0070421D01*
X0090597Y0070409D01*
X0090446Y0070401D01*
X0090295Y0070397D01*
X0090145Y0070397D01*
X0089994Y0070401D01*
X0089843Y0070409D01*
X0089693Y0070421D01*
X0089543Y0070437D01*
X0089394Y0070457D01*
X0089245Y0070481D01*
X0089097Y0070509D01*
X0088950Y0070540D01*
X0088803Y0070576D01*
X0088658Y0070615D01*
X0088513Y0070658D01*
X0088370Y0070705D01*
X0088228Y0070756D01*
X0088088Y0070810D01*
X0087949Y0070868D01*
X0087811Y0070930D01*
X0087675Y0070996D01*
X0087541Y0071064D01*
X0087409Y0071137D01*
X0087279Y0071213D01*
X0087151Y0071292D01*
X0087025Y0071375D01*
X0086901Y0071461D01*
X0086780Y0071550D01*
X0086660Y0071643D01*
X0086544Y0071738D01*
X0086430Y0071837D01*
X0086319Y0071938D01*
X0086210Y0072043D01*
X0086104Y0072150D01*
X0086001Y0072260D01*
X0085901Y0072373D01*
X0085804Y0072488D01*
X0085710Y0072606D01*
X0085619Y0072726D01*
X0085531Y0072849D01*
X0085447Y0072974D01*
X0085366Y0073101D01*
X0085288Y0073230D01*
X0085214Y0073361D01*
X0085144Y0073494D01*
X0085076Y0073629D01*
X0085013Y0073766D01*
X0084953Y0073904D01*
X0084897Y0074044D01*
X0084844Y0074185D01*
X0084795Y0074327D01*
X0084750Y0074471D01*
X0084709Y0074616D01*
X0084671Y0074762D01*
X0084638Y0074909D01*
X0084608Y0075057D01*
X0084582Y0075205D01*
X0084561Y0075355D01*
X0084543Y0075504D01*
X0084529Y0075654D01*
X0084519Y0075805D01*
X0084513Y0075955D01*
X0084511Y0076106D01*
X0099252Y0073307D02*
X0106799Y0080854D01*
X0108748Y0078906D02*
X0108724Y0078882D01*
X0101201Y0071358D01*
X0098291Y0076106D02*
X0098293Y0076257D01*
X0098299Y0076407D01*
X0098309Y0076558D01*
X0098323Y0076708D01*
X0098341Y0076857D01*
X0098362Y0077007D01*
X0098388Y0077155D01*
X0098418Y0077303D01*
X0098451Y0077450D01*
X0098489Y0077596D01*
X0098530Y0077741D01*
X0098575Y0077885D01*
X0098624Y0078027D01*
X0098677Y0078168D01*
X0098733Y0078308D01*
X0098793Y0078446D01*
X0098856Y0078583D01*
X0098924Y0078718D01*
X0098994Y0078851D01*
X0099068Y0078982D01*
X0099146Y0079111D01*
X0099227Y0079238D01*
X0099311Y0079363D01*
X0099399Y0079486D01*
X0099490Y0079606D01*
X0099584Y0079724D01*
X0099681Y0079839D01*
X0099781Y0079952D01*
X0099884Y0080062D01*
X0099990Y0080169D01*
X0100099Y0080274D01*
X0100210Y0080375D01*
X0100324Y0080474D01*
X0100440Y0080569D01*
X0100560Y0080662D01*
X0100681Y0080751D01*
X0100805Y0080837D01*
X0100931Y0080920D01*
X0101059Y0080999D01*
X0101189Y0081075D01*
X0101321Y0081148D01*
X0101455Y0081216D01*
X0101591Y0081282D01*
X0101729Y0081344D01*
X0101868Y0081402D01*
X0102008Y0081456D01*
X0102150Y0081507D01*
X0102293Y0081554D01*
X0102438Y0081597D01*
X0102583Y0081636D01*
X0102730Y0081672D01*
X0102877Y0081703D01*
X0103025Y0081731D01*
X0103174Y0081755D01*
X0103323Y0081775D01*
X0103473Y0081791D01*
X0103623Y0081803D01*
X0103774Y0081811D01*
X0103925Y0081815D01*
X0104075Y0081815D01*
X0104226Y0081811D01*
X0104377Y0081803D01*
X0104527Y0081791D01*
X0104677Y0081775D01*
X0104826Y0081755D01*
X0104975Y0081731D01*
X0105123Y0081703D01*
X0105270Y0081672D01*
X0105417Y0081636D01*
X0105562Y0081597D01*
X0105707Y0081554D01*
X0105850Y0081507D01*
X0105992Y0081456D01*
X0106132Y0081402D01*
X0106271Y0081344D01*
X0106409Y0081282D01*
X0106545Y0081216D01*
X0106679Y0081148D01*
X0106811Y0081075D01*
X0106941Y0080999D01*
X0107069Y0080920D01*
X0107195Y0080837D01*
X0107319Y0080751D01*
X0107440Y0080662D01*
X0107560Y0080569D01*
X0107676Y0080474D01*
X0107790Y0080375D01*
X0107901Y0080274D01*
X0108010Y0080169D01*
X0108116Y0080062D01*
X0108219Y0079952D01*
X0108319Y0079839D01*
X0108416Y0079724D01*
X0108510Y0079606D01*
X0108601Y0079486D01*
X0108689Y0079363D01*
X0108773Y0079238D01*
X0108854Y0079111D01*
X0108932Y0078982D01*
X0109006Y0078851D01*
X0109076Y0078718D01*
X0109144Y0078583D01*
X0109207Y0078446D01*
X0109267Y0078308D01*
X0109323Y0078168D01*
X0109376Y0078027D01*
X0109425Y0077885D01*
X0109470Y0077741D01*
X0109511Y0077596D01*
X0109549Y0077450D01*
X0109582Y0077303D01*
X0109612Y0077155D01*
X0109638Y0077007D01*
X0109659Y0076857D01*
X0109677Y0076708D01*
X0109691Y0076558D01*
X0109701Y0076407D01*
X0109707Y0076257D01*
X0109709Y0076106D01*
X0109707Y0075955D01*
X0109701Y0075805D01*
X0109691Y0075654D01*
X0109677Y0075504D01*
X0109659Y0075355D01*
X0109638Y0075205D01*
X0109612Y0075057D01*
X0109582Y0074909D01*
X0109549Y0074762D01*
X0109511Y0074616D01*
X0109470Y0074471D01*
X0109425Y0074327D01*
X0109376Y0074185D01*
X0109323Y0074044D01*
X0109267Y0073904D01*
X0109207Y0073766D01*
X0109144Y0073629D01*
X0109076Y0073494D01*
X0109006Y0073361D01*
X0108932Y0073230D01*
X0108854Y0073101D01*
X0108773Y0072974D01*
X0108689Y0072849D01*
X0108601Y0072726D01*
X0108510Y0072606D01*
X0108416Y0072488D01*
X0108319Y0072373D01*
X0108219Y0072260D01*
X0108116Y0072150D01*
X0108010Y0072043D01*
X0107901Y0071938D01*
X0107790Y0071837D01*
X0107676Y0071738D01*
X0107560Y0071643D01*
X0107440Y0071550D01*
X0107319Y0071461D01*
X0107195Y0071375D01*
X0107069Y0071292D01*
X0106941Y0071213D01*
X0106811Y0071137D01*
X0106679Y0071064D01*
X0106545Y0070996D01*
X0106409Y0070930D01*
X0106271Y0070868D01*
X0106132Y0070810D01*
X0105992Y0070756D01*
X0105850Y0070705D01*
X0105707Y0070658D01*
X0105562Y0070615D01*
X0105417Y0070576D01*
X0105270Y0070540D01*
X0105123Y0070509D01*
X0104975Y0070481D01*
X0104826Y0070457D01*
X0104677Y0070437D01*
X0104527Y0070421D01*
X0104377Y0070409D01*
X0104226Y0070401D01*
X0104075Y0070397D01*
X0103925Y0070397D01*
X0103774Y0070401D01*
X0103623Y0070409D01*
X0103473Y0070421D01*
X0103323Y0070437D01*
X0103174Y0070457D01*
X0103025Y0070481D01*
X0102877Y0070509D01*
X0102730Y0070540D01*
X0102583Y0070576D01*
X0102438Y0070615D01*
X0102293Y0070658D01*
X0102150Y0070705D01*
X0102008Y0070756D01*
X0101868Y0070810D01*
X0101729Y0070868D01*
X0101591Y0070930D01*
X0101455Y0070996D01*
X0101321Y0071064D01*
X0101189Y0071137D01*
X0101059Y0071213D01*
X0100931Y0071292D01*
X0100805Y0071375D01*
X0100681Y0071461D01*
X0100560Y0071550D01*
X0100440Y0071643D01*
X0100324Y0071738D01*
X0100210Y0071837D01*
X0100099Y0071938D01*
X0099990Y0072043D01*
X0099884Y0072150D01*
X0099781Y0072260D01*
X0099681Y0072373D01*
X0099584Y0072488D01*
X0099490Y0072606D01*
X0099399Y0072726D01*
X0099311Y0072849D01*
X0099227Y0072974D01*
X0099146Y0073101D01*
X0099068Y0073230D01*
X0098994Y0073361D01*
X0098924Y0073494D01*
X0098856Y0073629D01*
X0098793Y0073766D01*
X0098733Y0073904D01*
X0098677Y0074044D01*
X0098624Y0074185D01*
X0098575Y0074327D01*
X0098530Y0074471D01*
X0098489Y0074616D01*
X0098451Y0074762D01*
X0098418Y0074909D01*
X0098388Y0075057D01*
X0098362Y0075205D01*
X0098341Y0075355D01*
X0098323Y0075504D01*
X0098309Y0075654D01*
X0098299Y0075805D01*
X0098293Y0075955D01*
X0098291Y0076106D01*
X0112071Y0076106D02*
X0112073Y0076257D01*
X0112079Y0076407D01*
X0112089Y0076558D01*
X0112103Y0076708D01*
X0112121Y0076857D01*
X0112142Y0077007D01*
X0112168Y0077155D01*
X0112198Y0077303D01*
X0112231Y0077450D01*
X0112269Y0077596D01*
X0112310Y0077741D01*
X0112355Y0077885D01*
X0112404Y0078027D01*
X0112457Y0078168D01*
X0112513Y0078308D01*
X0112573Y0078446D01*
X0112636Y0078583D01*
X0112704Y0078718D01*
X0112774Y0078851D01*
X0112848Y0078982D01*
X0112926Y0079111D01*
X0113007Y0079238D01*
X0113091Y0079363D01*
X0113179Y0079486D01*
X0113270Y0079606D01*
X0113364Y0079724D01*
X0113461Y0079839D01*
X0113561Y0079952D01*
X0113664Y0080062D01*
X0113770Y0080169D01*
X0113879Y0080274D01*
X0113990Y0080375D01*
X0114104Y0080474D01*
X0114220Y0080569D01*
X0114340Y0080662D01*
X0114461Y0080751D01*
X0114585Y0080837D01*
X0114711Y0080920D01*
X0114839Y0080999D01*
X0114969Y0081075D01*
X0115101Y0081148D01*
X0115235Y0081216D01*
X0115371Y0081282D01*
X0115509Y0081344D01*
X0115648Y0081402D01*
X0115788Y0081456D01*
X0115930Y0081507D01*
X0116073Y0081554D01*
X0116218Y0081597D01*
X0116363Y0081636D01*
X0116510Y0081672D01*
X0116657Y0081703D01*
X0116805Y0081731D01*
X0116954Y0081755D01*
X0117103Y0081775D01*
X0117253Y0081791D01*
X0117403Y0081803D01*
X0117554Y0081811D01*
X0117705Y0081815D01*
X0117855Y0081815D01*
X0118006Y0081811D01*
X0118157Y0081803D01*
X0118307Y0081791D01*
X0118457Y0081775D01*
X0118606Y0081755D01*
X0118755Y0081731D01*
X0118903Y0081703D01*
X0119050Y0081672D01*
X0119197Y0081636D01*
X0119342Y0081597D01*
X0119487Y0081554D01*
X0119630Y0081507D01*
X0119772Y0081456D01*
X0119912Y0081402D01*
X0120051Y0081344D01*
X0120189Y0081282D01*
X0120325Y0081216D01*
X0120459Y0081148D01*
X0120591Y0081075D01*
X0120721Y0080999D01*
X0120849Y0080920D01*
X0120975Y0080837D01*
X0121099Y0080751D01*
X0121220Y0080662D01*
X0121340Y0080569D01*
X0121456Y0080474D01*
X0121570Y0080375D01*
X0121681Y0080274D01*
X0121790Y0080169D01*
X0121896Y0080062D01*
X0121999Y0079952D01*
X0122099Y0079839D01*
X0122196Y0079724D01*
X0122290Y0079606D01*
X0122381Y0079486D01*
X0122469Y0079363D01*
X0122553Y0079238D01*
X0122634Y0079111D01*
X0122712Y0078982D01*
X0122786Y0078851D01*
X0122856Y0078718D01*
X0122924Y0078583D01*
X0122987Y0078446D01*
X0123047Y0078308D01*
X0123103Y0078168D01*
X0123156Y0078027D01*
X0123205Y0077885D01*
X0123250Y0077741D01*
X0123291Y0077596D01*
X0123329Y0077450D01*
X0123362Y0077303D01*
X0123392Y0077155D01*
X0123418Y0077007D01*
X0123439Y0076857D01*
X0123457Y0076708D01*
X0123471Y0076558D01*
X0123481Y0076407D01*
X0123487Y0076257D01*
X0123489Y0076106D01*
X0123487Y0075955D01*
X0123481Y0075805D01*
X0123471Y0075654D01*
X0123457Y0075504D01*
X0123439Y0075355D01*
X0123418Y0075205D01*
X0123392Y0075057D01*
X0123362Y0074909D01*
X0123329Y0074762D01*
X0123291Y0074616D01*
X0123250Y0074471D01*
X0123205Y0074327D01*
X0123156Y0074185D01*
X0123103Y0074044D01*
X0123047Y0073904D01*
X0122987Y0073766D01*
X0122924Y0073629D01*
X0122856Y0073494D01*
X0122786Y0073361D01*
X0122712Y0073230D01*
X0122634Y0073101D01*
X0122553Y0072974D01*
X0122469Y0072849D01*
X0122381Y0072726D01*
X0122290Y0072606D01*
X0122196Y0072488D01*
X0122099Y0072373D01*
X0121999Y0072260D01*
X0121896Y0072150D01*
X0121790Y0072043D01*
X0121681Y0071938D01*
X0121570Y0071837D01*
X0121456Y0071738D01*
X0121340Y0071643D01*
X0121220Y0071550D01*
X0121099Y0071461D01*
X0120975Y0071375D01*
X0120849Y0071292D01*
X0120721Y0071213D01*
X0120591Y0071137D01*
X0120459Y0071064D01*
X0120325Y0070996D01*
X0120189Y0070930D01*
X0120051Y0070868D01*
X0119912Y0070810D01*
X0119772Y0070756D01*
X0119630Y0070705D01*
X0119487Y0070658D01*
X0119342Y0070615D01*
X0119197Y0070576D01*
X0119050Y0070540D01*
X0118903Y0070509D01*
X0118755Y0070481D01*
X0118606Y0070457D01*
X0118457Y0070437D01*
X0118307Y0070421D01*
X0118157Y0070409D01*
X0118006Y0070401D01*
X0117855Y0070397D01*
X0117705Y0070397D01*
X0117554Y0070401D01*
X0117403Y0070409D01*
X0117253Y0070421D01*
X0117103Y0070437D01*
X0116954Y0070457D01*
X0116805Y0070481D01*
X0116657Y0070509D01*
X0116510Y0070540D01*
X0116363Y0070576D01*
X0116218Y0070615D01*
X0116073Y0070658D01*
X0115930Y0070705D01*
X0115788Y0070756D01*
X0115648Y0070810D01*
X0115509Y0070868D01*
X0115371Y0070930D01*
X0115235Y0070996D01*
X0115101Y0071064D01*
X0114969Y0071137D01*
X0114839Y0071213D01*
X0114711Y0071292D01*
X0114585Y0071375D01*
X0114461Y0071461D01*
X0114340Y0071550D01*
X0114220Y0071643D01*
X0114104Y0071738D01*
X0113990Y0071837D01*
X0113879Y0071938D01*
X0113770Y0072043D01*
X0113664Y0072150D01*
X0113561Y0072260D01*
X0113461Y0072373D01*
X0113364Y0072488D01*
X0113270Y0072606D01*
X0113179Y0072726D01*
X0113091Y0072849D01*
X0113007Y0072974D01*
X0112926Y0073101D01*
X0112848Y0073230D01*
X0112774Y0073361D01*
X0112704Y0073494D01*
X0112636Y0073629D01*
X0112573Y0073766D01*
X0112513Y0073904D01*
X0112457Y0074044D01*
X0112404Y0074185D01*
X0112355Y0074327D01*
X0112310Y0074471D01*
X0112269Y0074616D01*
X0112231Y0074762D01*
X0112198Y0074909D01*
X0112168Y0075057D01*
X0112142Y0075205D01*
X0112121Y0075355D01*
X0112103Y0075504D01*
X0112089Y0075654D01*
X0112079Y0075805D01*
X0112073Y0075955D01*
X0112071Y0076106D01*
X0139433Y0050870D02*
X0068567Y0050870D01*
X0068567Y0044029D01*
X0139433Y0044029D01*
X0139433Y0050870D01*
X0132939Y0050054D02*
X0129869Y0050054D01*
X0129869Y0047752D01*
X0131404Y0048519D01*
X0132171Y0048519D01*
X0132939Y0047752D01*
X0132939Y0046217D01*
X0132171Y0045450D01*
X0130637Y0045450D01*
X0129869Y0046217D01*
X0134358Y0040854D02*
X0126811Y0033307D01*
X0128760Y0031358D02*
X0136283Y0038882D01*
X0136307Y0038906D01*
X0139433Y0042156D02*
X0068567Y0042156D01*
X0068567Y0030137D01*
X0068567Y0028235D01*
X0068567Y0025039D01*
X0068567Y0023311D01*
X0068567Y0022130D01*
X0139433Y0022130D01*
X0139433Y0023311D01*
X0139433Y0025039D01*
X0068567Y0025039D01*
X0066969Y0025450D02*
X0062365Y0028519D01*
X0063900Y0030054D02*
X0062365Y0031589D01*
X0066969Y0031589D01*
X0066969Y0033123D02*
X0066969Y0030054D01*
X0066969Y0028519D02*
X0062365Y0025450D01*
X0068567Y0023311D02*
X0139433Y0023311D01*
X0139433Y0025039D02*
X0139433Y0028235D01*
X0139433Y0030137D01*
X0068567Y0030137D01*
X0068567Y0028235D02*
X0139433Y0028235D01*
X0139433Y0030137D02*
X0139433Y0042156D01*
X0139433Y0044029D01*
X0125850Y0036106D02*
X0125852Y0036257D01*
X0125858Y0036407D01*
X0125868Y0036558D01*
X0125882Y0036708D01*
X0125900Y0036857D01*
X0125921Y0037007D01*
X0125947Y0037155D01*
X0125977Y0037303D01*
X0126010Y0037450D01*
X0126048Y0037596D01*
X0126089Y0037741D01*
X0126134Y0037885D01*
X0126183Y0038027D01*
X0126236Y0038168D01*
X0126292Y0038308D01*
X0126352Y0038446D01*
X0126415Y0038583D01*
X0126483Y0038718D01*
X0126553Y0038851D01*
X0126627Y0038982D01*
X0126705Y0039111D01*
X0126786Y0039238D01*
X0126870Y0039363D01*
X0126958Y0039486D01*
X0127049Y0039606D01*
X0127143Y0039724D01*
X0127240Y0039839D01*
X0127340Y0039952D01*
X0127443Y0040062D01*
X0127549Y0040169D01*
X0127658Y0040274D01*
X0127769Y0040375D01*
X0127883Y0040474D01*
X0127999Y0040569D01*
X0128119Y0040662D01*
X0128240Y0040751D01*
X0128364Y0040837D01*
X0128490Y0040920D01*
X0128618Y0040999D01*
X0128748Y0041075D01*
X0128880Y0041148D01*
X0129014Y0041216D01*
X0129150Y0041282D01*
X0129288Y0041344D01*
X0129427Y0041402D01*
X0129567Y0041456D01*
X0129709Y0041507D01*
X0129852Y0041554D01*
X0129997Y0041597D01*
X0130142Y0041636D01*
X0130289Y0041672D01*
X0130436Y0041703D01*
X0130584Y0041731D01*
X0130733Y0041755D01*
X0130882Y0041775D01*
X0131032Y0041791D01*
X0131182Y0041803D01*
X0131333Y0041811D01*
X0131484Y0041815D01*
X0131634Y0041815D01*
X0131785Y0041811D01*
X0131936Y0041803D01*
X0132086Y0041791D01*
X0132236Y0041775D01*
X0132385Y0041755D01*
X0132534Y0041731D01*
X0132682Y0041703D01*
X0132829Y0041672D01*
X0132976Y0041636D01*
X0133121Y0041597D01*
X0133266Y0041554D01*
X0133409Y0041507D01*
X0133551Y0041456D01*
X0133691Y0041402D01*
X0133830Y0041344D01*
X0133968Y0041282D01*
X0134104Y0041216D01*
X0134238Y0041148D01*
X0134370Y0041075D01*
X0134500Y0040999D01*
X0134628Y0040920D01*
X0134754Y0040837D01*
X0134878Y0040751D01*
X0134999Y0040662D01*
X0135119Y0040569D01*
X0135235Y0040474D01*
X0135349Y0040375D01*
X0135460Y0040274D01*
X0135569Y0040169D01*
X0135675Y0040062D01*
X0135778Y0039952D01*
X0135878Y0039839D01*
X0135975Y0039724D01*
X0136069Y0039606D01*
X0136160Y0039486D01*
X0136248Y0039363D01*
X0136332Y0039238D01*
X0136413Y0039111D01*
X0136491Y0038982D01*
X0136565Y0038851D01*
X0136635Y0038718D01*
X0136703Y0038583D01*
X0136766Y0038446D01*
X0136826Y0038308D01*
X0136882Y0038168D01*
X0136935Y0038027D01*
X0136984Y0037885D01*
X0137029Y0037741D01*
X0137070Y0037596D01*
X0137108Y0037450D01*
X0137141Y0037303D01*
X0137171Y0037155D01*
X0137197Y0037007D01*
X0137218Y0036857D01*
X0137236Y0036708D01*
X0137250Y0036558D01*
X0137260Y0036407D01*
X0137266Y0036257D01*
X0137268Y0036106D01*
X0137266Y0035955D01*
X0137260Y0035805D01*
X0137250Y0035654D01*
X0137236Y0035504D01*
X0137218Y0035355D01*
X0137197Y0035205D01*
X0137171Y0035057D01*
X0137141Y0034909D01*
X0137108Y0034762D01*
X0137070Y0034616D01*
X0137029Y0034471D01*
X0136984Y0034327D01*
X0136935Y0034185D01*
X0136882Y0034044D01*
X0136826Y0033904D01*
X0136766Y0033766D01*
X0136703Y0033629D01*
X0136635Y0033494D01*
X0136565Y0033361D01*
X0136491Y0033230D01*
X0136413Y0033101D01*
X0136332Y0032974D01*
X0136248Y0032849D01*
X0136160Y0032726D01*
X0136069Y0032606D01*
X0135975Y0032488D01*
X0135878Y0032373D01*
X0135778Y0032260D01*
X0135675Y0032150D01*
X0135569Y0032043D01*
X0135460Y0031938D01*
X0135349Y0031837D01*
X0135235Y0031738D01*
X0135119Y0031643D01*
X0134999Y0031550D01*
X0134878Y0031461D01*
X0134754Y0031375D01*
X0134628Y0031292D01*
X0134500Y0031213D01*
X0134370Y0031137D01*
X0134238Y0031064D01*
X0134104Y0030996D01*
X0133968Y0030930D01*
X0133830Y0030868D01*
X0133691Y0030810D01*
X0133551Y0030756D01*
X0133409Y0030705D01*
X0133266Y0030658D01*
X0133121Y0030615D01*
X0132976Y0030576D01*
X0132829Y0030540D01*
X0132682Y0030509D01*
X0132534Y0030481D01*
X0132385Y0030457D01*
X0132236Y0030437D01*
X0132086Y0030421D01*
X0131936Y0030409D01*
X0131785Y0030401D01*
X0131634Y0030397D01*
X0131484Y0030397D01*
X0131333Y0030401D01*
X0131182Y0030409D01*
X0131032Y0030421D01*
X0130882Y0030437D01*
X0130733Y0030457D01*
X0130584Y0030481D01*
X0130436Y0030509D01*
X0130289Y0030540D01*
X0130142Y0030576D01*
X0129997Y0030615D01*
X0129852Y0030658D01*
X0129709Y0030705D01*
X0129567Y0030756D01*
X0129427Y0030810D01*
X0129288Y0030868D01*
X0129150Y0030930D01*
X0129014Y0030996D01*
X0128880Y0031064D01*
X0128748Y0031137D01*
X0128618Y0031213D01*
X0128490Y0031292D01*
X0128364Y0031375D01*
X0128240Y0031461D01*
X0128119Y0031550D01*
X0127999Y0031643D01*
X0127883Y0031738D01*
X0127769Y0031837D01*
X0127658Y0031938D01*
X0127549Y0032043D01*
X0127443Y0032150D01*
X0127340Y0032260D01*
X0127240Y0032373D01*
X0127143Y0032488D01*
X0127049Y0032606D01*
X0126958Y0032726D01*
X0126870Y0032849D01*
X0126786Y0032974D01*
X0126705Y0033101D01*
X0126627Y0033230D01*
X0126553Y0033361D01*
X0126483Y0033494D01*
X0126415Y0033629D01*
X0126352Y0033766D01*
X0126292Y0033904D01*
X0126236Y0034044D01*
X0126183Y0034185D01*
X0126134Y0034327D01*
X0126089Y0034471D01*
X0126048Y0034616D01*
X0126010Y0034762D01*
X0125977Y0034909D01*
X0125947Y0035057D01*
X0125921Y0035205D01*
X0125900Y0035355D01*
X0125882Y0035504D01*
X0125868Y0035654D01*
X0125858Y0035805D01*
X0125852Y0035955D01*
X0125850Y0036106D01*
X0122528Y0038906D02*
X0122504Y0038882D01*
X0114980Y0031358D01*
X0113031Y0033307D02*
X0120579Y0040854D01*
X0118421Y0045450D02*
X0118421Y0050054D01*
X0116119Y0047752D01*
X0119189Y0047752D01*
X0105439Y0048519D02*
X0104671Y0047752D01*
X0105439Y0046985D01*
X0105439Y0046217D01*
X0104671Y0045450D01*
X0103137Y0045450D01*
X0102369Y0046217D01*
X0103904Y0047752D02*
X0104671Y0047752D01*
X0105439Y0048519D02*
X0105439Y0049287D01*
X0104671Y0050054D01*
X0103137Y0050054D01*
X0102369Y0049287D01*
X0091689Y0049287D02*
X0091689Y0048519D01*
X0088619Y0045450D01*
X0091689Y0045450D01*
X0091689Y0049287D02*
X0090921Y0050054D01*
X0089387Y0050054D01*
X0088619Y0049287D01*
X0077939Y0045450D02*
X0074869Y0045450D01*
X0076404Y0045450D02*
X0076404Y0050054D01*
X0074869Y0048519D01*
X0068567Y0044029D02*
X0068567Y0042156D01*
X0071693Y0033307D02*
X0079240Y0040854D01*
X0081189Y0038906D02*
X0081165Y0038882D01*
X0073642Y0031358D01*
X0072169Y0027750D02*
X0069669Y0027750D01*
X0070919Y0025250D01*
X0072169Y0027750D01*
X0071996Y0027403D02*
X0069843Y0027403D01*
X0070042Y0027005D02*
X0071797Y0027005D01*
X0071597Y0026606D02*
X0070241Y0026606D01*
X0070440Y0026208D02*
X0071398Y0026208D01*
X0071199Y0025809D02*
X0070640Y0025809D01*
X0070839Y0025411D02*
X0071000Y0025411D01*
X0085472Y0033307D02*
X0093020Y0040854D01*
X0094969Y0038906D02*
X0094945Y0038882D01*
X0087421Y0031358D01*
X0084511Y0036106D02*
X0084513Y0036257D01*
X0084519Y0036407D01*
X0084529Y0036558D01*
X0084543Y0036708D01*
X0084561Y0036857D01*
X0084582Y0037007D01*
X0084608Y0037155D01*
X0084638Y0037303D01*
X0084671Y0037450D01*
X0084709Y0037596D01*
X0084750Y0037741D01*
X0084795Y0037885D01*
X0084844Y0038027D01*
X0084897Y0038168D01*
X0084953Y0038308D01*
X0085013Y0038446D01*
X0085076Y0038583D01*
X0085144Y0038718D01*
X0085214Y0038851D01*
X0085288Y0038982D01*
X0085366Y0039111D01*
X0085447Y0039238D01*
X0085531Y0039363D01*
X0085619Y0039486D01*
X0085710Y0039606D01*
X0085804Y0039724D01*
X0085901Y0039839D01*
X0086001Y0039952D01*
X0086104Y0040062D01*
X0086210Y0040169D01*
X0086319Y0040274D01*
X0086430Y0040375D01*
X0086544Y0040474D01*
X0086660Y0040569D01*
X0086780Y0040662D01*
X0086901Y0040751D01*
X0087025Y0040837D01*
X0087151Y0040920D01*
X0087279Y0040999D01*
X0087409Y0041075D01*
X0087541Y0041148D01*
X0087675Y0041216D01*
X0087811Y0041282D01*
X0087949Y0041344D01*
X0088088Y0041402D01*
X0088228Y0041456D01*
X0088370Y0041507D01*
X0088513Y0041554D01*
X0088658Y0041597D01*
X0088803Y0041636D01*
X0088950Y0041672D01*
X0089097Y0041703D01*
X0089245Y0041731D01*
X0089394Y0041755D01*
X0089543Y0041775D01*
X0089693Y0041791D01*
X0089843Y0041803D01*
X0089994Y0041811D01*
X0090145Y0041815D01*
X0090295Y0041815D01*
X0090446Y0041811D01*
X0090597Y0041803D01*
X0090747Y0041791D01*
X0090897Y0041775D01*
X0091046Y0041755D01*
X0091195Y0041731D01*
X0091343Y0041703D01*
X0091490Y0041672D01*
X0091637Y0041636D01*
X0091782Y0041597D01*
X0091927Y0041554D01*
X0092070Y0041507D01*
X0092212Y0041456D01*
X0092352Y0041402D01*
X0092491Y0041344D01*
X0092629Y0041282D01*
X0092765Y0041216D01*
X0092899Y0041148D01*
X0093031Y0041075D01*
X0093161Y0040999D01*
X0093289Y0040920D01*
X0093415Y0040837D01*
X0093539Y0040751D01*
X0093660Y0040662D01*
X0093780Y0040569D01*
X0093896Y0040474D01*
X0094010Y0040375D01*
X0094121Y0040274D01*
X0094230Y0040169D01*
X0094336Y0040062D01*
X0094439Y0039952D01*
X0094539Y0039839D01*
X0094636Y0039724D01*
X0094730Y0039606D01*
X0094821Y0039486D01*
X0094909Y0039363D01*
X0094993Y0039238D01*
X0095074Y0039111D01*
X0095152Y0038982D01*
X0095226Y0038851D01*
X0095296Y0038718D01*
X0095364Y0038583D01*
X0095427Y0038446D01*
X0095487Y0038308D01*
X0095543Y0038168D01*
X0095596Y0038027D01*
X0095645Y0037885D01*
X0095690Y0037741D01*
X0095731Y0037596D01*
X0095769Y0037450D01*
X0095802Y0037303D01*
X0095832Y0037155D01*
X0095858Y0037007D01*
X0095879Y0036857D01*
X0095897Y0036708D01*
X0095911Y0036558D01*
X0095921Y0036407D01*
X0095927Y0036257D01*
X0095929Y0036106D01*
X0095927Y0035955D01*
X0095921Y0035805D01*
X0095911Y0035654D01*
X0095897Y0035504D01*
X0095879Y0035355D01*
X0095858Y0035205D01*
X0095832Y0035057D01*
X0095802Y0034909D01*
X0095769Y0034762D01*
X0095731Y0034616D01*
X0095690Y0034471D01*
X0095645Y0034327D01*
X0095596Y0034185D01*
X0095543Y0034044D01*
X0095487Y0033904D01*
X0095427Y0033766D01*
X0095364Y0033629D01*
X0095296Y0033494D01*
X0095226Y0033361D01*
X0095152Y0033230D01*
X0095074Y0033101D01*
X0094993Y0032974D01*
X0094909Y0032849D01*
X0094821Y0032726D01*
X0094730Y0032606D01*
X0094636Y0032488D01*
X0094539Y0032373D01*
X0094439Y0032260D01*
X0094336Y0032150D01*
X0094230Y0032043D01*
X0094121Y0031938D01*
X0094010Y0031837D01*
X0093896Y0031738D01*
X0093780Y0031643D01*
X0093660Y0031550D01*
X0093539Y0031461D01*
X0093415Y0031375D01*
X0093289Y0031292D01*
X0093161Y0031213D01*
X0093031Y0031137D01*
X0092899Y0031064D01*
X0092765Y0030996D01*
X0092629Y0030930D01*
X0092491Y0030868D01*
X0092352Y0030810D01*
X0092212Y0030756D01*
X0092070Y0030705D01*
X0091927Y0030658D01*
X0091782Y0030615D01*
X0091637Y0030576D01*
X0091490Y0030540D01*
X0091343Y0030509D01*
X0091195Y0030481D01*
X0091046Y0030457D01*
X0090897Y0030437D01*
X0090747Y0030421D01*
X0090597Y0030409D01*
X0090446Y0030401D01*
X0090295Y0030397D01*
X0090145Y0030397D01*
X0089994Y0030401D01*
X0089843Y0030409D01*
X0089693Y0030421D01*
X0089543Y0030437D01*
X0089394Y0030457D01*
X0089245Y0030481D01*
X0089097Y0030509D01*
X0088950Y0030540D01*
X0088803Y0030576D01*
X0088658Y0030615D01*
X0088513Y0030658D01*
X0088370Y0030705D01*
X0088228Y0030756D01*
X0088088Y0030810D01*
X0087949Y0030868D01*
X0087811Y0030930D01*
X0087675Y0030996D01*
X0087541Y0031064D01*
X0087409Y0031137D01*
X0087279Y0031213D01*
X0087151Y0031292D01*
X0087025Y0031375D01*
X0086901Y0031461D01*
X0086780Y0031550D01*
X0086660Y0031643D01*
X0086544Y0031738D01*
X0086430Y0031837D01*
X0086319Y0031938D01*
X0086210Y0032043D01*
X0086104Y0032150D01*
X0086001Y0032260D01*
X0085901Y0032373D01*
X0085804Y0032488D01*
X0085710Y0032606D01*
X0085619Y0032726D01*
X0085531Y0032849D01*
X0085447Y0032974D01*
X0085366Y0033101D01*
X0085288Y0033230D01*
X0085214Y0033361D01*
X0085144Y0033494D01*
X0085076Y0033629D01*
X0085013Y0033766D01*
X0084953Y0033904D01*
X0084897Y0034044D01*
X0084844Y0034185D01*
X0084795Y0034327D01*
X0084750Y0034471D01*
X0084709Y0034616D01*
X0084671Y0034762D01*
X0084638Y0034909D01*
X0084608Y0035057D01*
X0084582Y0035205D01*
X0084561Y0035355D01*
X0084543Y0035504D01*
X0084529Y0035654D01*
X0084519Y0035805D01*
X0084513Y0035955D01*
X0084511Y0036106D01*
X0070732Y0036106D02*
X0070734Y0036257D01*
X0070740Y0036407D01*
X0070750Y0036558D01*
X0070764Y0036708D01*
X0070782Y0036857D01*
X0070803Y0037007D01*
X0070829Y0037155D01*
X0070859Y0037303D01*
X0070892Y0037450D01*
X0070930Y0037596D01*
X0070971Y0037741D01*
X0071016Y0037885D01*
X0071065Y0038027D01*
X0071118Y0038168D01*
X0071174Y0038308D01*
X0071234Y0038446D01*
X0071297Y0038583D01*
X0071365Y0038718D01*
X0071435Y0038851D01*
X0071509Y0038982D01*
X0071587Y0039111D01*
X0071668Y0039238D01*
X0071752Y0039363D01*
X0071840Y0039486D01*
X0071931Y0039606D01*
X0072025Y0039724D01*
X0072122Y0039839D01*
X0072222Y0039952D01*
X0072325Y0040062D01*
X0072431Y0040169D01*
X0072540Y0040274D01*
X0072651Y0040375D01*
X0072765Y0040474D01*
X0072881Y0040569D01*
X0073001Y0040662D01*
X0073122Y0040751D01*
X0073246Y0040837D01*
X0073372Y0040920D01*
X0073500Y0040999D01*
X0073630Y0041075D01*
X0073762Y0041148D01*
X0073896Y0041216D01*
X0074032Y0041282D01*
X0074170Y0041344D01*
X0074309Y0041402D01*
X0074449Y0041456D01*
X0074591Y0041507D01*
X0074734Y0041554D01*
X0074879Y0041597D01*
X0075024Y0041636D01*
X0075171Y0041672D01*
X0075318Y0041703D01*
X0075466Y0041731D01*
X0075615Y0041755D01*
X0075764Y0041775D01*
X0075914Y0041791D01*
X0076064Y0041803D01*
X0076215Y0041811D01*
X0076366Y0041815D01*
X0076516Y0041815D01*
X0076667Y0041811D01*
X0076818Y0041803D01*
X0076968Y0041791D01*
X0077118Y0041775D01*
X0077267Y0041755D01*
X0077416Y0041731D01*
X0077564Y0041703D01*
X0077711Y0041672D01*
X0077858Y0041636D01*
X0078003Y0041597D01*
X0078148Y0041554D01*
X0078291Y0041507D01*
X0078433Y0041456D01*
X0078573Y0041402D01*
X0078712Y0041344D01*
X0078850Y0041282D01*
X0078986Y0041216D01*
X0079120Y0041148D01*
X0079252Y0041075D01*
X0079382Y0040999D01*
X0079510Y0040920D01*
X0079636Y0040837D01*
X0079760Y0040751D01*
X0079881Y0040662D01*
X0080001Y0040569D01*
X0080117Y0040474D01*
X0080231Y0040375D01*
X0080342Y0040274D01*
X0080451Y0040169D01*
X0080557Y0040062D01*
X0080660Y0039952D01*
X0080760Y0039839D01*
X0080857Y0039724D01*
X0080951Y0039606D01*
X0081042Y0039486D01*
X0081130Y0039363D01*
X0081214Y0039238D01*
X0081295Y0039111D01*
X0081373Y0038982D01*
X0081447Y0038851D01*
X0081517Y0038718D01*
X0081585Y0038583D01*
X0081648Y0038446D01*
X0081708Y0038308D01*
X0081764Y0038168D01*
X0081817Y0038027D01*
X0081866Y0037885D01*
X0081911Y0037741D01*
X0081952Y0037596D01*
X0081990Y0037450D01*
X0082023Y0037303D01*
X0082053Y0037155D01*
X0082079Y0037007D01*
X0082100Y0036857D01*
X0082118Y0036708D01*
X0082132Y0036558D01*
X0082142Y0036407D01*
X0082148Y0036257D01*
X0082150Y0036106D01*
X0082148Y0035955D01*
X0082142Y0035805D01*
X0082132Y0035654D01*
X0082118Y0035504D01*
X0082100Y0035355D01*
X0082079Y0035205D01*
X0082053Y0035057D01*
X0082023Y0034909D01*
X0081990Y0034762D01*
X0081952Y0034616D01*
X0081911Y0034471D01*
X0081866Y0034327D01*
X0081817Y0034185D01*
X0081764Y0034044D01*
X0081708Y0033904D01*
X0081648Y0033766D01*
X0081585Y0033629D01*
X0081517Y0033494D01*
X0081447Y0033361D01*
X0081373Y0033230D01*
X0081295Y0033101D01*
X0081214Y0032974D01*
X0081130Y0032849D01*
X0081042Y0032726D01*
X0080951Y0032606D01*
X0080857Y0032488D01*
X0080760Y0032373D01*
X0080660Y0032260D01*
X0080557Y0032150D01*
X0080451Y0032043D01*
X0080342Y0031938D01*
X0080231Y0031837D01*
X0080117Y0031738D01*
X0080001Y0031643D01*
X0079881Y0031550D01*
X0079760Y0031461D01*
X0079636Y0031375D01*
X0079510Y0031292D01*
X0079382Y0031213D01*
X0079252Y0031137D01*
X0079120Y0031064D01*
X0078986Y0030996D01*
X0078850Y0030930D01*
X0078712Y0030868D01*
X0078573Y0030810D01*
X0078433Y0030756D01*
X0078291Y0030705D01*
X0078148Y0030658D01*
X0078003Y0030615D01*
X0077858Y0030576D01*
X0077711Y0030540D01*
X0077564Y0030509D01*
X0077416Y0030481D01*
X0077267Y0030457D01*
X0077118Y0030437D01*
X0076968Y0030421D01*
X0076818Y0030409D01*
X0076667Y0030401D01*
X0076516Y0030397D01*
X0076366Y0030397D01*
X0076215Y0030401D01*
X0076064Y0030409D01*
X0075914Y0030421D01*
X0075764Y0030437D01*
X0075615Y0030457D01*
X0075466Y0030481D01*
X0075318Y0030509D01*
X0075171Y0030540D01*
X0075024Y0030576D01*
X0074879Y0030615D01*
X0074734Y0030658D01*
X0074591Y0030705D01*
X0074449Y0030756D01*
X0074309Y0030810D01*
X0074170Y0030868D01*
X0074032Y0030930D01*
X0073896Y0030996D01*
X0073762Y0031064D01*
X0073630Y0031137D01*
X0073500Y0031213D01*
X0073372Y0031292D01*
X0073246Y0031375D01*
X0073122Y0031461D01*
X0073001Y0031550D01*
X0072881Y0031643D01*
X0072765Y0031738D01*
X0072651Y0031837D01*
X0072540Y0031938D01*
X0072431Y0032043D01*
X0072325Y0032150D01*
X0072222Y0032260D01*
X0072122Y0032373D01*
X0072025Y0032488D01*
X0071931Y0032606D01*
X0071840Y0032726D01*
X0071752Y0032849D01*
X0071668Y0032974D01*
X0071587Y0033101D01*
X0071509Y0033230D01*
X0071435Y0033361D01*
X0071365Y0033494D01*
X0071297Y0033629D01*
X0071234Y0033766D01*
X0071174Y0033904D01*
X0071118Y0034044D01*
X0071065Y0034185D01*
X0071016Y0034327D01*
X0070971Y0034471D01*
X0070930Y0034616D01*
X0070892Y0034762D01*
X0070859Y0034909D01*
X0070829Y0035057D01*
X0070803Y0035205D01*
X0070782Y0035355D01*
X0070764Y0035504D01*
X0070750Y0035654D01*
X0070740Y0035805D01*
X0070734Y0035955D01*
X0070732Y0036106D01*
X0099252Y0033307D02*
X0106799Y0040854D01*
X0108748Y0038906D02*
X0108724Y0038882D01*
X0101201Y0031358D01*
X0098291Y0036106D02*
X0098293Y0036257D01*
X0098299Y0036407D01*
X0098309Y0036558D01*
X0098323Y0036708D01*
X0098341Y0036857D01*
X0098362Y0037007D01*
X0098388Y0037155D01*
X0098418Y0037303D01*
X0098451Y0037450D01*
X0098489Y0037596D01*
X0098530Y0037741D01*
X0098575Y0037885D01*
X0098624Y0038027D01*
X0098677Y0038168D01*
X0098733Y0038308D01*
X0098793Y0038446D01*
X0098856Y0038583D01*
X0098924Y0038718D01*
X0098994Y0038851D01*
X0099068Y0038982D01*
X0099146Y0039111D01*
X0099227Y0039238D01*
X0099311Y0039363D01*
X0099399Y0039486D01*
X0099490Y0039606D01*
X0099584Y0039724D01*
X0099681Y0039839D01*
X0099781Y0039952D01*
X0099884Y0040062D01*
X0099990Y0040169D01*
X0100099Y0040274D01*
X0100210Y0040375D01*
X0100324Y0040474D01*
X0100440Y0040569D01*
X0100560Y0040662D01*
X0100681Y0040751D01*
X0100805Y0040837D01*
X0100931Y0040920D01*
X0101059Y0040999D01*
X0101189Y0041075D01*
X0101321Y0041148D01*
X0101455Y0041216D01*
X0101591Y0041282D01*
X0101729Y0041344D01*
X0101868Y0041402D01*
X0102008Y0041456D01*
X0102150Y0041507D01*
X0102293Y0041554D01*
X0102438Y0041597D01*
X0102583Y0041636D01*
X0102730Y0041672D01*
X0102877Y0041703D01*
X0103025Y0041731D01*
X0103174Y0041755D01*
X0103323Y0041775D01*
X0103473Y0041791D01*
X0103623Y0041803D01*
X0103774Y0041811D01*
X0103925Y0041815D01*
X0104075Y0041815D01*
X0104226Y0041811D01*
X0104377Y0041803D01*
X0104527Y0041791D01*
X0104677Y0041775D01*
X0104826Y0041755D01*
X0104975Y0041731D01*
X0105123Y0041703D01*
X0105270Y0041672D01*
X0105417Y0041636D01*
X0105562Y0041597D01*
X0105707Y0041554D01*
X0105850Y0041507D01*
X0105992Y0041456D01*
X0106132Y0041402D01*
X0106271Y0041344D01*
X0106409Y0041282D01*
X0106545Y0041216D01*
X0106679Y0041148D01*
X0106811Y0041075D01*
X0106941Y0040999D01*
X0107069Y0040920D01*
X0107195Y0040837D01*
X0107319Y0040751D01*
X0107440Y0040662D01*
X0107560Y0040569D01*
X0107676Y0040474D01*
X0107790Y0040375D01*
X0107901Y0040274D01*
X0108010Y0040169D01*
X0108116Y0040062D01*
X0108219Y0039952D01*
X0108319Y0039839D01*
X0108416Y0039724D01*
X0108510Y0039606D01*
X0108601Y0039486D01*
X0108689Y0039363D01*
X0108773Y0039238D01*
X0108854Y0039111D01*
X0108932Y0038982D01*
X0109006Y0038851D01*
X0109076Y0038718D01*
X0109144Y0038583D01*
X0109207Y0038446D01*
X0109267Y0038308D01*
X0109323Y0038168D01*
X0109376Y0038027D01*
X0109425Y0037885D01*
X0109470Y0037741D01*
X0109511Y0037596D01*
X0109549Y0037450D01*
X0109582Y0037303D01*
X0109612Y0037155D01*
X0109638Y0037007D01*
X0109659Y0036857D01*
X0109677Y0036708D01*
X0109691Y0036558D01*
X0109701Y0036407D01*
X0109707Y0036257D01*
X0109709Y0036106D01*
X0109707Y0035955D01*
X0109701Y0035805D01*
X0109691Y0035654D01*
X0109677Y0035504D01*
X0109659Y0035355D01*
X0109638Y0035205D01*
X0109612Y0035057D01*
X0109582Y0034909D01*
X0109549Y0034762D01*
X0109511Y0034616D01*
X0109470Y0034471D01*
X0109425Y0034327D01*
X0109376Y0034185D01*
X0109323Y0034044D01*
X0109267Y0033904D01*
X0109207Y0033766D01*
X0109144Y0033629D01*
X0109076Y0033494D01*
X0109006Y0033361D01*
X0108932Y0033230D01*
X0108854Y0033101D01*
X0108773Y0032974D01*
X0108689Y0032849D01*
X0108601Y0032726D01*
X0108510Y0032606D01*
X0108416Y0032488D01*
X0108319Y0032373D01*
X0108219Y0032260D01*
X0108116Y0032150D01*
X0108010Y0032043D01*
X0107901Y0031938D01*
X0107790Y0031837D01*
X0107676Y0031738D01*
X0107560Y0031643D01*
X0107440Y0031550D01*
X0107319Y0031461D01*
X0107195Y0031375D01*
X0107069Y0031292D01*
X0106941Y0031213D01*
X0106811Y0031137D01*
X0106679Y0031064D01*
X0106545Y0030996D01*
X0106409Y0030930D01*
X0106271Y0030868D01*
X0106132Y0030810D01*
X0105992Y0030756D01*
X0105850Y0030705D01*
X0105707Y0030658D01*
X0105562Y0030615D01*
X0105417Y0030576D01*
X0105270Y0030540D01*
X0105123Y0030509D01*
X0104975Y0030481D01*
X0104826Y0030457D01*
X0104677Y0030437D01*
X0104527Y0030421D01*
X0104377Y0030409D01*
X0104226Y0030401D01*
X0104075Y0030397D01*
X0103925Y0030397D01*
X0103774Y0030401D01*
X0103623Y0030409D01*
X0103473Y0030421D01*
X0103323Y0030437D01*
X0103174Y0030457D01*
X0103025Y0030481D01*
X0102877Y0030509D01*
X0102730Y0030540D01*
X0102583Y0030576D01*
X0102438Y0030615D01*
X0102293Y0030658D01*
X0102150Y0030705D01*
X0102008Y0030756D01*
X0101868Y0030810D01*
X0101729Y0030868D01*
X0101591Y0030930D01*
X0101455Y0030996D01*
X0101321Y0031064D01*
X0101189Y0031137D01*
X0101059Y0031213D01*
X0100931Y0031292D01*
X0100805Y0031375D01*
X0100681Y0031461D01*
X0100560Y0031550D01*
X0100440Y0031643D01*
X0100324Y0031738D01*
X0100210Y0031837D01*
X0100099Y0031938D01*
X0099990Y0032043D01*
X0099884Y0032150D01*
X0099781Y0032260D01*
X0099681Y0032373D01*
X0099584Y0032488D01*
X0099490Y0032606D01*
X0099399Y0032726D01*
X0099311Y0032849D01*
X0099227Y0032974D01*
X0099146Y0033101D01*
X0099068Y0033230D01*
X0098994Y0033361D01*
X0098924Y0033494D01*
X0098856Y0033629D01*
X0098793Y0033766D01*
X0098733Y0033904D01*
X0098677Y0034044D01*
X0098624Y0034185D01*
X0098575Y0034327D01*
X0098530Y0034471D01*
X0098489Y0034616D01*
X0098451Y0034762D01*
X0098418Y0034909D01*
X0098388Y0035057D01*
X0098362Y0035205D01*
X0098341Y0035355D01*
X0098323Y0035504D01*
X0098309Y0035654D01*
X0098299Y0035805D01*
X0098293Y0035955D01*
X0098291Y0036106D01*
X0112071Y0036106D02*
X0112073Y0036257D01*
X0112079Y0036407D01*
X0112089Y0036558D01*
X0112103Y0036708D01*
X0112121Y0036857D01*
X0112142Y0037007D01*
X0112168Y0037155D01*
X0112198Y0037303D01*
X0112231Y0037450D01*
X0112269Y0037596D01*
X0112310Y0037741D01*
X0112355Y0037885D01*
X0112404Y0038027D01*
X0112457Y0038168D01*
X0112513Y0038308D01*
X0112573Y0038446D01*
X0112636Y0038583D01*
X0112704Y0038718D01*
X0112774Y0038851D01*
X0112848Y0038982D01*
X0112926Y0039111D01*
X0113007Y0039238D01*
X0113091Y0039363D01*
X0113179Y0039486D01*
X0113270Y0039606D01*
X0113364Y0039724D01*
X0113461Y0039839D01*
X0113561Y0039952D01*
X0113664Y0040062D01*
X0113770Y0040169D01*
X0113879Y0040274D01*
X0113990Y0040375D01*
X0114104Y0040474D01*
X0114220Y0040569D01*
X0114340Y0040662D01*
X0114461Y0040751D01*
X0114585Y0040837D01*
X0114711Y0040920D01*
X0114839Y0040999D01*
X0114969Y0041075D01*
X0115101Y0041148D01*
X0115235Y0041216D01*
X0115371Y0041282D01*
X0115509Y0041344D01*
X0115648Y0041402D01*
X0115788Y0041456D01*
X0115930Y0041507D01*
X0116073Y0041554D01*
X0116218Y0041597D01*
X0116363Y0041636D01*
X0116510Y0041672D01*
X0116657Y0041703D01*
X0116805Y0041731D01*
X0116954Y0041755D01*
X0117103Y0041775D01*
X0117253Y0041791D01*
X0117403Y0041803D01*
X0117554Y0041811D01*
X0117705Y0041815D01*
X0117855Y0041815D01*
X0118006Y0041811D01*
X0118157Y0041803D01*
X0118307Y0041791D01*
X0118457Y0041775D01*
X0118606Y0041755D01*
X0118755Y0041731D01*
X0118903Y0041703D01*
X0119050Y0041672D01*
X0119197Y0041636D01*
X0119342Y0041597D01*
X0119487Y0041554D01*
X0119630Y0041507D01*
X0119772Y0041456D01*
X0119912Y0041402D01*
X0120051Y0041344D01*
X0120189Y0041282D01*
X0120325Y0041216D01*
X0120459Y0041148D01*
X0120591Y0041075D01*
X0120721Y0040999D01*
X0120849Y0040920D01*
X0120975Y0040837D01*
X0121099Y0040751D01*
X0121220Y0040662D01*
X0121340Y0040569D01*
X0121456Y0040474D01*
X0121570Y0040375D01*
X0121681Y0040274D01*
X0121790Y0040169D01*
X0121896Y0040062D01*
X0121999Y0039952D01*
X0122099Y0039839D01*
X0122196Y0039724D01*
X0122290Y0039606D01*
X0122381Y0039486D01*
X0122469Y0039363D01*
X0122553Y0039238D01*
X0122634Y0039111D01*
X0122712Y0038982D01*
X0122786Y0038851D01*
X0122856Y0038718D01*
X0122924Y0038583D01*
X0122987Y0038446D01*
X0123047Y0038308D01*
X0123103Y0038168D01*
X0123156Y0038027D01*
X0123205Y0037885D01*
X0123250Y0037741D01*
X0123291Y0037596D01*
X0123329Y0037450D01*
X0123362Y0037303D01*
X0123392Y0037155D01*
X0123418Y0037007D01*
X0123439Y0036857D01*
X0123457Y0036708D01*
X0123471Y0036558D01*
X0123481Y0036407D01*
X0123487Y0036257D01*
X0123489Y0036106D01*
X0123487Y0035955D01*
X0123481Y0035805D01*
X0123471Y0035654D01*
X0123457Y0035504D01*
X0123439Y0035355D01*
X0123418Y0035205D01*
X0123392Y0035057D01*
X0123362Y0034909D01*
X0123329Y0034762D01*
X0123291Y0034616D01*
X0123250Y0034471D01*
X0123205Y0034327D01*
X0123156Y0034185D01*
X0123103Y0034044D01*
X0123047Y0033904D01*
X0122987Y0033766D01*
X0122924Y0033629D01*
X0122856Y0033494D01*
X0122786Y0033361D01*
X0122712Y0033230D01*
X0122634Y0033101D01*
X0122553Y0032974D01*
X0122469Y0032849D01*
X0122381Y0032726D01*
X0122290Y0032606D01*
X0122196Y0032488D01*
X0122099Y0032373D01*
X0121999Y0032260D01*
X0121896Y0032150D01*
X0121790Y0032043D01*
X0121681Y0031938D01*
X0121570Y0031837D01*
X0121456Y0031738D01*
X0121340Y0031643D01*
X0121220Y0031550D01*
X0121099Y0031461D01*
X0120975Y0031375D01*
X0120849Y0031292D01*
X0120721Y0031213D01*
X0120591Y0031137D01*
X0120459Y0031064D01*
X0120325Y0030996D01*
X0120189Y0030930D01*
X0120051Y0030868D01*
X0119912Y0030810D01*
X0119772Y0030756D01*
X0119630Y0030705D01*
X0119487Y0030658D01*
X0119342Y0030615D01*
X0119197Y0030576D01*
X0119050Y0030540D01*
X0118903Y0030509D01*
X0118755Y0030481D01*
X0118606Y0030457D01*
X0118457Y0030437D01*
X0118307Y0030421D01*
X0118157Y0030409D01*
X0118006Y0030401D01*
X0117855Y0030397D01*
X0117705Y0030397D01*
X0117554Y0030401D01*
X0117403Y0030409D01*
X0117253Y0030421D01*
X0117103Y0030437D01*
X0116954Y0030457D01*
X0116805Y0030481D01*
X0116657Y0030509D01*
X0116510Y0030540D01*
X0116363Y0030576D01*
X0116218Y0030615D01*
X0116073Y0030658D01*
X0115930Y0030705D01*
X0115788Y0030756D01*
X0115648Y0030810D01*
X0115509Y0030868D01*
X0115371Y0030930D01*
X0115235Y0030996D01*
X0115101Y0031064D01*
X0114969Y0031137D01*
X0114839Y0031213D01*
X0114711Y0031292D01*
X0114585Y0031375D01*
X0114461Y0031461D01*
X0114340Y0031550D01*
X0114220Y0031643D01*
X0114104Y0031738D01*
X0113990Y0031837D01*
X0113879Y0031938D01*
X0113770Y0032043D01*
X0113664Y0032150D01*
X0113561Y0032260D01*
X0113461Y0032373D01*
X0113364Y0032488D01*
X0113270Y0032606D01*
X0113179Y0032726D01*
X0113091Y0032849D01*
X0113007Y0032974D01*
X0112926Y0033101D01*
X0112848Y0033230D01*
X0112774Y0033361D01*
X0112704Y0033494D01*
X0112636Y0033629D01*
X0112573Y0033766D01*
X0112513Y0033904D01*
X0112457Y0034044D01*
X0112404Y0034185D01*
X0112355Y0034327D01*
X0112310Y0034471D01*
X0112269Y0034616D01*
X0112231Y0034762D01*
X0112198Y0034909D01*
X0112168Y0035057D01*
X0112142Y0035205D01*
X0112121Y0035355D01*
X0112103Y0035504D01*
X0112089Y0035654D01*
X0112079Y0035805D01*
X0112073Y0035955D01*
X0112071Y0036106D01*
D16*
X0028264Y0043950D02*
X0025262Y0043950D01*
X0028264Y0046953D01*
X0028264Y0047703D01*
X0027514Y0048454D01*
X0026012Y0048454D01*
X0025262Y0047703D01*
X0023660Y0048454D02*
X0023660Y0043950D01*
X0020658Y0048454D01*
X0020658Y0043950D01*
X0019056Y0044701D02*
X0019056Y0047703D01*
X0018306Y0048454D01*
X0016805Y0048454D01*
X0016054Y0047703D01*
X0016054Y0044701D01*
X0016805Y0043950D01*
X0018306Y0043950D01*
X0019056Y0044701D01*
X0014453Y0044701D02*
X0013702Y0043950D01*
X0012201Y0043950D01*
X0011450Y0044701D01*
X0011450Y0047703D01*
X0012201Y0048454D01*
X0013702Y0048454D01*
X0014453Y0047703D01*
X0013702Y0083950D02*
X0014453Y0084701D01*
X0013702Y0083950D02*
X0012201Y0083950D01*
X0011450Y0084701D01*
X0011450Y0087703D01*
X0012201Y0088454D01*
X0013702Y0088454D01*
X0014453Y0087703D01*
X0016054Y0087703D02*
X0016805Y0088454D01*
X0018306Y0088454D01*
X0019056Y0087703D01*
X0019056Y0084701D01*
X0018306Y0083950D01*
X0016805Y0083950D01*
X0016054Y0084701D01*
X0016054Y0087703D01*
X0020658Y0088454D02*
X0023660Y0083950D01*
X0023660Y0088454D01*
X0020658Y0088454D02*
X0020658Y0083950D01*
X0025262Y0083950D02*
X0028264Y0083950D01*
X0026763Y0083950D02*
X0026763Y0088454D01*
X0025262Y0086953D01*
D17*
X0026500Y0076500D03*
X0016500Y0076500D03*
X0036500Y0076500D03*
X0046500Y0076500D03*
X0056500Y0076500D03*
X0056500Y0036500D03*
X0046500Y0036500D03*
X0036500Y0036500D03*
X0026500Y0036500D03*
X0016500Y0036500D03*
M02*
