G75*
%MOIN*%
%OFA0B0*%
%FSLAX25Y25*%
%IPPOS*%
%LPD*%
%AMOC8*
5,1,8,0,0,1.08239X$1,22.5*
%
%ADD10C,0.00000*%
%ADD11C,0.00700*%
%ADD12C,0.01000*%
%ADD13C,0.00200*%
%ADD14C,0.01200*%
%ADD15C,0.00500*%
%ADD16C,0.00300*%
D10*
X0001500Y0001500D02*
X0001500Y0111500D01*
X0196500Y0111500D01*
X0196500Y0001500D01*
X0001500Y0001500D01*
X0004300Y0011500D02*
X0004302Y0011677D01*
X0004309Y0011853D01*
X0004320Y0012030D01*
X0004335Y0012206D01*
X0004354Y0012381D01*
X0004378Y0012556D01*
X0004406Y0012731D01*
X0004438Y0012905D01*
X0004475Y0013078D01*
X0004516Y0013249D01*
X0004561Y0013420D01*
X0004610Y0013590D01*
X0004663Y0013759D01*
X0004721Y0013926D01*
X0004782Y0014091D01*
X0004848Y0014255D01*
X0004918Y0014418D01*
X0004991Y0014578D01*
X0005069Y0014737D01*
X0005150Y0014894D01*
X0005235Y0015049D01*
X0005324Y0015202D01*
X0005417Y0015352D01*
X0005513Y0015500D01*
X0005613Y0015646D01*
X0005717Y0015789D01*
X0005824Y0015930D01*
X0005934Y0016068D01*
X0006048Y0016203D01*
X0006165Y0016335D01*
X0006285Y0016465D01*
X0006409Y0016591D01*
X0006535Y0016715D01*
X0006665Y0016835D01*
X0006797Y0016952D01*
X0006932Y0017066D01*
X0007070Y0017176D01*
X0007211Y0017283D01*
X0007354Y0017387D01*
X0007500Y0017487D01*
X0007648Y0017583D01*
X0007798Y0017676D01*
X0007951Y0017765D01*
X0008106Y0017850D01*
X0008263Y0017931D01*
X0008422Y0018009D01*
X0008582Y0018082D01*
X0008745Y0018152D01*
X0008909Y0018218D01*
X0009074Y0018279D01*
X0009241Y0018337D01*
X0009410Y0018390D01*
X0009580Y0018439D01*
X0009751Y0018484D01*
X0009922Y0018525D01*
X0010095Y0018562D01*
X0010269Y0018594D01*
X0010444Y0018622D01*
X0010619Y0018646D01*
X0010794Y0018665D01*
X0010970Y0018680D01*
X0011147Y0018691D01*
X0011323Y0018698D01*
X0011500Y0018700D01*
X0011677Y0018698D01*
X0011853Y0018691D01*
X0012030Y0018680D01*
X0012206Y0018665D01*
X0012381Y0018646D01*
X0012556Y0018622D01*
X0012731Y0018594D01*
X0012905Y0018562D01*
X0013078Y0018525D01*
X0013249Y0018484D01*
X0013420Y0018439D01*
X0013590Y0018390D01*
X0013759Y0018337D01*
X0013926Y0018279D01*
X0014091Y0018218D01*
X0014255Y0018152D01*
X0014418Y0018082D01*
X0014578Y0018009D01*
X0014737Y0017931D01*
X0014894Y0017850D01*
X0015049Y0017765D01*
X0015202Y0017676D01*
X0015352Y0017583D01*
X0015500Y0017487D01*
X0015646Y0017387D01*
X0015789Y0017283D01*
X0015930Y0017176D01*
X0016068Y0017066D01*
X0016203Y0016952D01*
X0016335Y0016835D01*
X0016465Y0016715D01*
X0016591Y0016591D01*
X0016715Y0016465D01*
X0016835Y0016335D01*
X0016952Y0016203D01*
X0017066Y0016068D01*
X0017176Y0015930D01*
X0017283Y0015789D01*
X0017387Y0015646D01*
X0017487Y0015500D01*
X0017583Y0015352D01*
X0017676Y0015202D01*
X0017765Y0015049D01*
X0017850Y0014894D01*
X0017931Y0014737D01*
X0018009Y0014578D01*
X0018082Y0014418D01*
X0018152Y0014255D01*
X0018218Y0014091D01*
X0018279Y0013926D01*
X0018337Y0013759D01*
X0018390Y0013590D01*
X0018439Y0013420D01*
X0018484Y0013249D01*
X0018525Y0013078D01*
X0018562Y0012905D01*
X0018594Y0012731D01*
X0018622Y0012556D01*
X0018646Y0012381D01*
X0018665Y0012206D01*
X0018680Y0012030D01*
X0018691Y0011853D01*
X0018698Y0011677D01*
X0018700Y0011500D01*
X0018698Y0011323D01*
X0018691Y0011147D01*
X0018680Y0010970D01*
X0018665Y0010794D01*
X0018646Y0010619D01*
X0018622Y0010444D01*
X0018594Y0010269D01*
X0018562Y0010095D01*
X0018525Y0009922D01*
X0018484Y0009751D01*
X0018439Y0009580D01*
X0018390Y0009410D01*
X0018337Y0009241D01*
X0018279Y0009074D01*
X0018218Y0008909D01*
X0018152Y0008745D01*
X0018082Y0008582D01*
X0018009Y0008422D01*
X0017931Y0008263D01*
X0017850Y0008106D01*
X0017765Y0007951D01*
X0017676Y0007798D01*
X0017583Y0007648D01*
X0017487Y0007500D01*
X0017387Y0007354D01*
X0017283Y0007211D01*
X0017176Y0007070D01*
X0017066Y0006932D01*
X0016952Y0006797D01*
X0016835Y0006665D01*
X0016715Y0006535D01*
X0016591Y0006409D01*
X0016465Y0006285D01*
X0016335Y0006165D01*
X0016203Y0006048D01*
X0016068Y0005934D01*
X0015930Y0005824D01*
X0015789Y0005717D01*
X0015646Y0005613D01*
X0015500Y0005513D01*
X0015352Y0005417D01*
X0015202Y0005324D01*
X0015049Y0005235D01*
X0014894Y0005150D01*
X0014737Y0005069D01*
X0014578Y0004991D01*
X0014418Y0004918D01*
X0014255Y0004848D01*
X0014091Y0004782D01*
X0013926Y0004721D01*
X0013759Y0004663D01*
X0013590Y0004610D01*
X0013420Y0004561D01*
X0013249Y0004516D01*
X0013078Y0004475D01*
X0012905Y0004438D01*
X0012731Y0004406D01*
X0012556Y0004378D01*
X0012381Y0004354D01*
X0012206Y0004335D01*
X0012030Y0004320D01*
X0011853Y0004309D01*
X0011677Y0004302D01*
X0011500Y0004300D01*
X0011323Y0004302D01*
X0011147Y0004309D01*
X0010970Y0004320D01*
X0010794Y0004335D01*
X0010619Y0004354D01*
X0010444Y0004378D01*
X0010269Y0004406D01*
X0010095Y0004438D01*
X0009922Y0004475D01*
X0009751Y0004516D01*
X0009580Y0004561D01*
X0009410Y0004610D01*
X0009241Y0004663D01*
X0009074Y0004721D01*
X0008909Y0004782D01*
X0008745Y0004848D01*
X0008582Y0004918D01*
X0008422Y0004991D01*
X0008263Y0005069D01*
X0008106Y0005150D01*
X0007951Y0005235D01*
X0007798Y0005324D01*
X0007648Y0005417D01*
X0007500Y0005513D01*
X0007354Y0005613D01*
X0007211Y0005717D01*
X0007070Y0005824D01*
X0006932Y0005934D01*
X0006797Y0006048D01*
X0006665Y0006165D01*
X0006535Y0006285D01*
X0006409Y0006409D01*
X0006285Y0006535D01*
X0006165Y0006665D01*
X0006048Y0006797D01*
X0005934Y0006932D01*
X0005824Y0007070D01*
X0005717Y0007211D01*
X0005613Y0007354D01*
X0005513Y0007500D01*
X0005417Y0007648D01*
X0005324Y0007798D01*
X0005235Y0007951D01*
X0005150Y0008106D01*
X0005069Y0008263D01*
X0004991Y0008422D01*
X0004918Y0008582D01*
X0004848Y0008745D01*
X0004782Y0008909D01*
X0004721Y0009074D01*
X0004663Y0009241D01*
X0004610Y0009410D01*
X0004561Y0009580D01*
X0004516Y0009751D01*
X0004475Y0009922D01*
X0004438Y0010095D01*
X0004406Y0010269D01*
X0004378Y0010444D01*
X0004354Y0010619D01*
X0004335Y0010794D01*
X0004320Y0010970D01*
X0004309Y0011147D01*
X0004302Y0011323D01*
X0004300Y0011500D01*
X0179300Y0101500D02*
X0179302Y0101677D01*
X0179309Y0101853D01*
X0179320Y0102030D01*
X0179335Y0102206D01*
X0179354Y0102381D01*
X0179378Y0102556D01*
X0179406Y0102731D01*
X0179438Y0102905D01*
X0179475Y0103078D01*
X0179516Y0103249D01*
X0179561Y0103420D01*
X0179610Y0103590D01*
X0179663Y0103759D01*
X0179721Y0103926D01*
X0179782Y0104091D01*
X0179848Y0104255D01*
X0179918Y0104418D01*
X0179991Y0104578D01*
X0180069Y0104737D01*
X0180150Y0104894D01*
X0180235Y0105049D01*
X0180324Y0105202D01*
X0180417Y0105352D01*
X0180513Y0105500D01*
X0180613Y0105646D01*
X0180717Y0105789D01*
X0180824Y0105930D01*
X0180934Y0106068D01*
X0181048Y0106203D01*
X0181165Y0106335D01*
X0181285Y0106465D01*
X0181409Y0106591D01*
X0181535Y0106715D01*
X0181665Y0106835D01*
X0181797Y0106952D01*
X0181932Y0107066D01*
X0182070Y0107176D01*
X0182211Y0107283D01*
X0182354Y0107387D01*
X0182500Y0107487D01*
X0182648Y0107583D01*
X0182798Y0107676D01*
X0182951Y0107765D01*
X0183106Y0107850D01*
X0183263Y0107931D01*
X0183422Y0108009D01*
X0183582Y0108082D01*
X0183745Y0108152D01*
X0183909Y0108218D01*
X0184074Y0108279D01*
X0184241Y0108337D01*
X0184410Y0108390D01*
X0184580Y0108439D01*
X0184751Y0108484D01*
X0184922Y0108525D01*
X0185095Y0108562D01*
X0185269Y0108594D01*
X0185444Y0108622D01*
X0185619Y0108646D01*
X0185794Y0108665D01*
X0185970Y0108680D01*
X0186147Y0108691D01*
X0186323Y0108698D01*
X0186500Y0108700D01*
X0186677Y0108698D01*
X0186853Y0108691D01*
X0187030Y0108680D01*
X0187206Y0108665D01*
X0187381Y0108646D01*
X0187556Y0108622D01*
X0187731Y0108594D01*
X0187905Y0108562D01*
X0188078Y0108525D01*
X0188249Y0108484D01*
X0188420Y0108439D01*
X0188590Y0108390D01*
X0188759Y0108337D01*
X0188926Y0108279D01*
X0189091Y0108218D01*
X0189255Y0108152D01*
X0189418Y0108082D01*
X0189578Y0108009D01*
X0189737Y0107931D01*
X0189894Y0107850D01*
X0190049Y0107765D01*
X0190202Y0107676D01*
X0190352Y0107583D01*
X0190500Y0107487D01*
X0190646Y0107387D01*
X0190789Y0107283D01*
X0190930Y0107176D01*
X0191068Y0107066D01*
X0191203Y0106952D01*
X0191335Y0106835D01*
X0191465Y0106715D01*
X0191591Y0106591D01*
X0191715Y0106465D01*
X0191835Y0106335D01*
X0191952Y0106203D01*
X0192066Y0106068D01*
X0192176Y0105930D01*
X0192283Y0105789D01*
X0192387Y0105646D01*
X0192487Y0105500D01*
X0192583Y0105352D01*
X0192676Y0105202D01*
X0192765Y0105049D01*
X0192850Y0104894D01*
X0192931Y0104737D01*
X0193009Y0104578D01*
X0193082Y0104418D01*
X0193152Y0104255D01*
X0193218Y0104091D01*
X0193279Y0103926D01*
X0193337Y0103759D01*
X0193390Y0103590D01*
X0193439Y0103420D01*
X0193484Y0103249D01*
X0193525Y0103078D01*
X0193562Y0102905D01*
X0193594Y0102731D01*
X0193622Y0102556D01*
X0193646Y0102381D01*
X0193665Y0102206D01*
X0193680Y0102030D01*
X0193691Y0101853D01*
X0193698Y0101677D01*
X0193700Y0101500D01*
X0193698Y0101323D01*
X0193691Y0101147D01*
X0193680Y0100970D01*
X0193665Y0100794D01*
X0193646Y0100619D01*
X0193622Y0100444D01*
X0193594Y0100269D01*
X0193562Y0100095D01*
X0193525Y0099922D01*
X0193484Y0099751D01*
X0193439Y0099580D01*
X0193390Y0099410D01*
X0193337Y0099241D01*
X0193279Y0099074D01*
X0193218Y0098909D01*
X0193152Y0098745D01*
X0193082Y0098582D01*
X0193009Y0098422D01*
X0192931Y0098263D01*
X0192850Y0098106D01*
X0192765Y0097951D01*
X0192676Y0097798D01*
X0192583Y0097648D01*
X0192487Y0097500D01*
X0192387Y0097354D01*
X0192283Y0097211D01*
X0192176Y0097070D01*
X0192066Y0096932D01*
X0191952Y0096797D01*
X0191835Y0096665D01*
X0191715Y0096535D01*
X0191591Y0096409D01*
X0191465Y0096285D01*
X0191335Y0096165D01*
X0191203Y0096048D01*
X0191068Y0095934D01*
X0190930Y0095824D01*
X0190789Y0095717D01*
X0190646Y0095613D01*
X0190500Y0095513D01*
X0190352Y0095417D01*
X0190202Y0095324D01*
X0190049Y0095235D01*
X0189894Y0095150D01*
X0189737Y0095069D01*
X0189578Y0094991D01*
X0189418Y0094918D01*
X0189255Y0094848D01*
X0189091Y0094782D01*
X0188926Y0094721D01*
X0188759Y0094663D01*
X0188590Y0094610D01*
X0188420Y0094561D01*
X0188249Y0094516D01*
X0188078Y0094475D01*
X0187905Y0094438D01*
X0187731Y0094406D01*
X0187556Y0094378D01*
X0187381Y0094354D01*
X0187206Y0094335D01*
X0187030Y0094320D01*
X0186853Y0094309D01*
X0186677Y0094302D01*
X0186500Y0094300D01*
X0186323Y0094302D01*
X0186147Y0094309D01*
X0185970Y0094320D01*
X0185794Y0094335D01*
X0185619Y0094354D01*
X0185444Y0094378D01*
X0185269Y0094406D01*
X0185095Y0094438D01*
X0184922Y0094475D01*
X0184751Y0094516D01*
X0184580Y0094561D01*
X0184410Y0094610D01*
X0184241Y0094663D01*
X0184074Y0094721D01*
X0183909Y0094782D01*
X0183745Y0094848D01*
X0183582Y0094918D01*
X0183422Y0094991D01*
X0183263Y0095069D01*
X0183106Y0095150D01*
X0182951Y0095235D01*
X0182798Y0095324D01*
X0182648Y0095417D01*
X0182500Y0095513D01*
X0182354Y0095613D01*
X0182211Y0095717D01*
X0182070Y0095824D01*
X0181932Y0095934D01*
X0181797Y0096048D01*
X0181665Y0096165D01*
X0181535Y0096285D01*
X0181409Y0096409D01*
X0181285Y0096535D01*
X0181165Y0096665D01*
X0181048Y0096797D01*
X0180934Y0096932D01*
X0180824Y0097070D01*
X0180717Y0097211D01*
X0180613Y0097354D01*
X0180513Y0097500D01*
X0180417Y0097648D01*
X0180324Y0097798D01*
X0180235Y0097951D01*
X0180150Y0098106D01*
X0180069Y0098263D01*
X0179991Y0098422D01*
X0179918Y0098582D01*
X0179848Y0098745D01*
X0179782Y0098909D01*
X0179721Y0099074D01*
X0179663Y0099241D01*
X0179610Y0099410D01*
X0179561Y0099580D01*
X0179516Y0099751D01*
X0179475Y0099922D01*
X0179438Y0100095D01*
X0179406Y0100269D01*
X0179378Y0100444D01*
X0179354Y0100619D01*
X0179335Y0100794D01*
X0179320Y0100970D01*
X0179309Y0101147D01*
X0179302Y0101323D01*
X0179300Y0101500D01*
D11*
X0100099Y0015655D02*
X0097997Y0015655D01*
X0096946Y0014604D01*
X0097997Y0012503D02*
X0096946Y0011452D01*
X0096946Y0010401D01*
X0097997Y0009350D01*
X0100099Y0009350D01*
X0101150Y0010401D01*
X0100099Y0012503D02*
X0097997Y0012503D01*
X0100099Y0012503D02*
X0101150Y0013554D01*
X0101150Y0014604D01*
X0100099Y0015655D01*
X0094705Y0012503D02*
X0093654Y0013554D01*
X0091552Y0013554D01*
X0090501Y0012503D01*
X0090501Y0011452D01*
X0094705Y0011452D01*
X0094705Y0010401D02*
X0094705Y0012503D01*
X0094705Y0010401D02*
X0093654Y0009350D01*
X0091552Y0009350D01*
X0087208Y0010401D02*
X0086157Y0009350D01*
X0087208Y0010401D02*
X0087208Y0014604D01*
X0088259Y0013554D02*
X0086157Y0013554D01*
X0083962Y0012503D02*
X0082911Y0013554D01*
X0080809Y0013554D01*
X0079758Y0012503D01*
X0079758Y0009350D01*
X0083962Y0009350D02*
X0083962Y0015655D01*
X0071071Y0015655D02*
X0071071Y0009350D01*
X0066867Y0009350D02*
X0066867Y0015655D01*
X0064626Y0012503D02*
X0063575Y0013554D01*
X0061473Y0013554D01*
X0060422Y0012503D01*
X0060422Y0011452D01*
X0064626Y0011452D01*
X0064626Y0010401D02*
X0064626Y0012503D01*
X0064626Y0010401D02*
X0063575Y0009350D01*
X0061473Y0009350D01*
X0058180Y0010401D02*
X0057129Y0009350D01*
X0053976Y0009350D01*
X0053976Y0013554D01*
X0051735Y0013554D02*
X0050684Y0013554D01*
X0049633Y0012503D01*
X0048582Y0013554D01*
X0047531Y0012503D01*
X0047531Y0009350D01*
X0045289Y0010401D02*
X0044238Y0011452D01*
X0041085Y0011452D01*
X0041085Y0012503D02*
X0041085Y0009350D01*
X0044238Y0009350D01*
X0045289Y0010401D01*
X0044238Y0013554D02*
X0042136Y0013554D01*
X0041085Y0012503D01*
X0038844Y0013554D02*
X0035691Y0013554D01*
X0034640Y0012503D01*
X0034640Y0009350D01*
X0032398Y0009350D02*
X0032398Y0013554D01*
X0029245Y0013554D01*
X0028194Y0012503D01*
X0028194Y0009350D01*
X0038844Y0009350D02*
X0038844Y0013554D01*
X0049633Y0012503D02*
X0049633Y0009350D01*
X0051735Y0009350D02*
X0051735Y0013554D01*
X0058180Y0013554D02*
X0058180Y0010401D01*
X0066867Y0009350D02*
X0071071Y0015655D01*
D12*
X0178287Y0014500D02*
X0178287Y0023508D01*
X0184292Y0023508D02*
X0184292Y0014500D01*
X0187495Y0016001D02*
X0188996Y0014500D01*
X0191999Y0014500D01*
X0193500Y0016001D01*
X0191999Y0019004D02*
X0188996Y0019004D01*
X0187495Y0017503D01*
X0187495Y0016001D01*
X0184292Y0019004D02*
X0178287Y0019004D01*
X0187495Y0022006D02*
X0188996Y0023508D01*
X0191999Y0023508D01*
X0193500Y0022006D01*
X0193500Y0020505D01*
X0191999Y0019004D01*
X0182791Y0029500D02*
X0179788Y0029500D01*
X0178287Y0031001D01*
X0178287Y0037006D01*
X0179788Y0038508D01*
X0182791Y0038508D01*
X0184292Y0037006D01*
X0184292Y0031001D01*
X0182791Y0029500D01*
X0187495Y0034004D02*
X0193500Y0034004D01*
X0182791Y0044500D02*
X0179788Y0044500D01*
X0178287Y0046001D01*
X0178287Y0052006D01*
X0179788Y0053508D01*
X0182791Y0053508D01*
X0184292Y0052006D01*
X0184292Y0046001D01*
X0182791Y0044500D01*
X0187495Y0049004D02*
X0193500Y0049004D01*
X0190497Y0052006D02*
X0190497Y0046001D01*
X0184292Y0059500D02*
X0181290Y0059500D01*
X0182791Y0059500D02*
X0182791Y0068508D01*
X0184292Y0068508D02*
X0181290Y0068508D01*
X0187495Y0064004D02*
X0193500Y0064004D01*
X0184292Y0074500D02*
X0181290Y0074500D01*
X0182791Y0074500D02*
X0182791Y0083508D01*
X0184292Y0083508D02*
X0181290Y0083508D01*
X0187495Y0079004D02*
X0193500Y0079004D01*
X0190497Y0082006D02*
X0190497Y0076001D01*
D13*
X0152900Y0096967D02*
X0152533Y0097334D01*
X0151432Y0097334D01*
X0151432Y0097701D02*
X0151432Y0096600D01*
X0152533Y0096600D01*
X0152900Y0096967D01*
X0152533Y0098068D02*
X0151799Y0098068D01*
X0151432Y0097701D01*
X0150690Y0098068D02*
X0150323Y0098068D01*
X0150323Y0096600D01*
X0150690Y0096600D02*
X0149956Y0096600D01*
X0149217Y0096600D02*
X0148483Y0096600D01*
X0148850Y0096600D02*
X0148850Y0098802D01*
X0149217Y0098802D01*
X0150323Y0098802D02*
X0150323Y0099169D01*
X0147744Y0098068D02*
X0147744Y0096600D01*
X0147744Y0097334D02*
X0147010Y0098068D01*
X0146643Y0098068D01*
X0145902Y0097701D02*
X0145902Y0096967D01*
X0145535Y0096600D01*
X0144801Y0096600D01*
X0144434Y0096967D01*
X0144434Y0097701D01*
X0144801Y0098068D01*
X0145535Y0098068D01*
X0145902Y0097701D01*
X0143692Y0096967D02*
X0143325Y0097334D01*
X0142224Y0097334D01*
X0142224Y0097701D02*
X0142224Y0096600D01*
X0143325Y0096600D01*
X0143692Y0096967D01*
X0143325Y0098068D02*
X0142591Y0098068D01*
X0142224Y0097701D01*
X0141482Y0097701D02*
X0141115Y0098068D01*
X0140014Y0098068D01*
X0140014Y0098802D02*
X0140014Y0096600D01*
X0141115Y0096600D01*
X0141482Y0096967D01*
X0141482Y0097701D01*
X0140456Y0093802D02*
X0140089Y0093802D01*
X0140089Y0091600D01*
X0140456Y0091600D02*
X0139722Y0091600D01*
X0141198Y0091967D02*
X0141198Y0092701D01*
X0141564Y0093068D01*
X0142298Y0093068D01*
X0142665Y0092701D01*
X0142665Y0091967D01*
X0142298Y0091600D01*
X0141564Y0091600D01*
X0141198Y0091967D01*
X0143406Y0093068D02*
X0143773Y0093068D01*
X0144507Y0092334D01*
X0144507Y0091600D02*
X0144507Y0093068D01*
X0145246Y0093068D02*
X0145980Y0093068D01*
X0145613Y0093435D02*
X0145613Y0091967D01*
X0145246Y0091600D01*
X0146722Y0091600D02*
X0146722Y0092701D01*
X0147089Y0093068D01*
X0148190Y0093068D01*
X0148190Y0091600D01*
X0148932Y0091967D02*
X0148932Y0092701D01*
X0149299Y0093068D01*
X0150033Y0093068D01*
X0150400Y0092701D01*
X0150400Y0091967D01*
X0150033Y0091600D01*
X0149299Y0091600D01*
X0148932Y0091967D01*
X0143113Y0088435D02*
X0143113Y0086967D01*
X0142746Y0086600D01*
X0142007Y0086967D02*
X0142007Y0087701D01*
X0141640Y0088068D01*
X0140906Y0088068D01*
X0140539Y0087701D01*
X0140539Y0087334D01*
X0142007Y0087334D01*
X0142007Y0086967D02*
X0141640Y0086600D01*
X0140906Y0086600D01*
X0139797Y0086600D02*
X0139797Y0088068D01*
X0139430Y0088068D01*
X0139063Y0087701D01*
X0138696Y0088068D01*
X0138329Y0087701D01*
X0138329Y0086600D01*
X0139063Y0086600D02*
X0139063Y0087701D01*
X0137587Y0087701D02*
X0137220Y0088068D01*
X0136119Y0088068D01*
X0136486Y0087334D02*
X0137220Y0087334D01*
X0137587Y0087701D01*
X0137587Y0086600D02*
X0136486Y0086600D01*
X0136119Y0086967D01*
X0136486Y0087334D01*
X0142746Y0088068D02*
X0143480Y0088068D01*
X0144222Y0088068D02*
X0145323Y0088068D01*
X0145690Y0087701D01*
X0145323Y0087334D01*
X0144589Y0087334D01*
X0144222Y0086967D01*
X0144589Y0086600D01*
X0145690Y0086600D01*
X0146432Y0086600D02*
X0147533Y0086600D01*
X0147900Y0086967D01*
X0147900Y0088068D01*
X0146432Y0088068D02*
X0146432Y0086233D01*
X0146799Y0085866D01*
X0147166Y0085866D01*
X0134403Y0069102D02*
X0134770Y0068735D01*
X0134770Y0067267D01*
X0134403Y0066900D01*
X0133669Y0066900D01*
X0133302Y0067267D01*
X0133669Y0066900D01*
X0134403Y0066900D01*
X0134770Y0067267D01*
X0134770Y0068735D01*
X0134403Y0069102D01*
X0133669Y0069102D01*
X0133302Y0068735D01*
X0133669Y0069102D01*
X0134403Y0069102D01*
X0132560Y0068368D02*
X0131827Y0069102D01*
X0131093Y0068368D01*
X0131093Y0066900D01*
X0131093Y0068368D01*
X0131827Y0069102D01*
X0132560Y0068368D01*
X0132560Y0066900D01*
X0132560Y0068368D01*
X0132560Y0068001D02*
X0131093Y0068001D01*
X0132560Y0068001D01*
X0130351Y0069102D02*
X0130351Y0066900D01*
X0128883Y0066900D01*
X0130351Y0066900D01*
X0130351Y0069102D01*
X0128141Y0069102D02*
X0127407Y0069102D01*
X0128141Y0069102D01*
X0127774Y0069102D02*
X0127774Y0066900D01*
X0127774Y0069102D01*
X0126667Y0069102D02*
X0125200Y0069102D01*
X0126667Y0069102D01*
X0126667Y0066900D01*
X0126667Y0069102D01*
X0126667Y0068001D02*
X0125934Y0068001D01*
X0126667Y0068001D01*
X0127407Y0066900D02*
X0128141Y0066900D01*
X0127407Y0066900D01*
X0127776Y0065502D02*
X0128510Y0065502D01*
X0128877Y0065135D01*
X0128877Y0063667D01*
X0128510Y0063300D01*
X0127776Y0063300D01*
X0127409Y0063667D01*
X0127409Y0064401D01*
X0128143Y0064401D01*
X0127409Y0064401D01*
X0127409Y0063667D01*
X0127776Y0063300D01*
X0128510Y0063300D01*
X0128877Y0063667D01*
X0128877Y0065135D01*
X0128510Y0065502D01*
X0127776Y0065502D01*
X0127409Y0065135D01*
X0127776Y0065502D01*
X0126667Y0064768D02*
X0126667Y0064401D01*
X0126300Y0064401D01*
X0126300Y0064768D01*
X0126667Y0064768D01*
X0126667Y0064401D01*
X0126300Y0064401D01*
X0126300Y0064768D01*
X0126667Y0064768D01*
X0126667Y0063667D02*
X0126667Y0063300D01*
X0126300Y0063300D01*
X0126300Y0063667D01*
X0126667Y0063667D01*
X0126667Y0063300D01*
X0126300Y0063300D01*
X0126300Y0063667D01*
X0126667Y0063667D01*
X0123353Y0065502D02*
X0121885Y0065502D01*
X0123353Y0065502D01*
X0122619Y0065502D02*
X0122619Y0063300D01*
X0122619Y0065502D01*
X0121143Y0065502D02*
X0121143Y0063300D01*
X0121143Y0065502D01*
X0120776Y0064768D02*
X0121143Y0064401D01*
X0120776Y0064768D01*
X0120042Y0064768D01*
X0119675Y0064401D01*
X0119675Y0063300D01*
X0119675Y0064401D01*
X0120042Y0064768D01*
X0120776Y0064768D01*
X0118933Y0064768D02*
X0118566Y0064768D01*
X0118566Y0063300D01*
X0118566Y0064768D01*
X0118933Y0064768D01*
X0118566Y0065502D02*
X0118566Y0065869D01*
X0118566Y0065502D01*
X0117460Y0064401D02*
X0117093Y0064768D01*
X0115992Y0064768D01*
X0117093Y0064768D01*
X0117460Y0064401D01*
X0117093Y0064034D01*
X0116359Y0064034D01*
X0115992Y0063667D01*
X0116359Y0063300D01*
X0117460Y0063300D01*
X0116359Y0063300D01*
X0115992Y0063667D01*
X0116359Y0064034D01*
X0117093Y0064034D01*
X0117460Y0064401D01*
X0118199Y0063300D02*
X0118933Y0063300D01*
X0118199Y0063300D01*
X0118566Y0061168D02*
X0117832Y0061168D01*
X0117465Y0060801D01*
X0117465Y0060434D01*
X0118933Y0060434D01*
X0117465Y0060434D01*
X0117465Y0060801D01*
X0117832Y0061168D01*
X0118566Y0061168D01*
X0118933Y0060801D01*
X0118933Y0060067D01*
X0118566Y0059700D01*
X0117832Y0059700D01*
X0118566Y0059700D01*
X0118933Y0060067D01*
X0118933Y0060801D01*
X0118566Y0061168D01*
X0119675Y0060801D02*
X0119675Y0059700D01*
X0119675Y0060801D01*
X0120042Y0061168D01*
X0120776Y0061168D01*
X0121143Y0060801D01*
X0120776Y0061168D01*
X0120042Y0061168D01*
X0119675Y0060801D01*
X0121143Y0061902D02*
X0121143Y0059700D01*
X0121143Y0061902D01*
X0121882Y0061168D02*
X0122616Y0061168D01*
X0121882Y0061168D01*
X0122249Y0061535D02*
X0122249Y0060067D01*
X0121882Y0059700D01*
X0122249Y0060067D01*
X0122249Y0061535D01*
X0125568Y0060801D02*
X0125935Y0061168D01*
X0126669Y0061168D01*
X0127036Y0060801D01*
X0127036Y0060067D01*
X0126669Y0059700D01*
X0125935Y0059700D01*
X0125568Y0060067D01*
X0125568Y0060801D01*
X0125935Y0061168D01*
X0126669Y0061168D01*
X0127036Y0060801D01*
X0127036Y0060067D01*
X0126669Y0059700D01*
X0125935Y0059700D01*
X0125568Y0060067D01*
X0125568Y0060801D01*
X0127775Y0061168D02*
X0128509Y0061168D01*
X0127775Y0061168D01*
X0128142Y0061535D02*
X0128142Y0060067D01*
X0127775Y0059700D01*
X0128142Y0060067D01*
X0128142Y0061535D01*
X0129619Y0063300D02*
X0129619Y0065502D01*
X0129619Y0063300D01*
X0131087Y0065502D01*
X0131087Y0063300D01*
X0131087Y0065502D01*
X0129619Y0063300D01*
X0131827Y0063300D02*
X0132560Y0063300D01*
X0131827Y0063300D01*
X0132194Y0063300D02*
X0132194Y0065502D01*
X0132194Y0063300D01*
X0133302Y0063300D02*
X0133302Y0065502D01*
X0133302Y0063300D01*
X0134770Y0065502D01*
X0134770Y0063300D01*
X0134770Y0065502D01*
X0133302Y0063300D01*
X0135512Y0063300D02*
X0136246Y0064034D01*
X0135512Y0063300D01*
X0135879Y0064034D02*
X0136980Y0064034D01*
X0135879Y0064034D01*
X0135512Y0064401D01*
X0135512Y0065135D01*
X0135879Y0065502D01*
X0136980Y0065502D01*
X0136980Y0063300D01*
X0136980Y0065502D01*
X0135879Y0065502D01*
X0135512Y0065135D01*
X0135512Y0064401D01*
X0135879Y0064034D01*
X0137722Y0064401D02*
X0139190Y0064401D01*
X0137722Y0064401D01*
X0137722Y0064768D02*
X0137722Y0063300D01*
X0137722Y0064768D01*
X0138456Y0065502D01*
X0139190Y0064768D01*
X0139190Y0063300D01*
X0139190Y0064768D01*
X0138456Y0065502D01*
X0137722Y0064768D01*
X0139932Y0065502D02*
X0139932Y0063300D01*
X0140666Y0064034D01*
X0141400Y0063300D01*
X0141400Y0065502D01*
X0141400Y0063300D01*
X0140666Y0064034D01*
X0139932Y0063300D01*
X0139932Y0065502D01*
X0141400Y0061902D02*
X0141400Y0059700D01*
X0141400Y0061902D01*
X0140299Y0061168D02*
X0141400Y0060434D01*
X0140299Y0059700D01*
X0141400Y0060434D01*
X0140299Y0061168D01*
X0139558Y0061168D02*
X0138457Y0061168D01*
X0138091Y0060801D01*
X0138091Y0059700D01*
X0138091Y0060801D01*
X0138457Y0061168D01*
X0139558Y0061168D01*
X0139558Y0059700D01*
X0139558Y0061168D01*
X0137349Y0060801D02*
X0137349Y0060067D01*
X0136982Y0059700D01*
X0136248Y0059700D01*
X0135881Y0060067D01*
X0135881Y0060801D01*
X0136248Y0061168D01*
X0136982Y0061168D01*
X0137349Y0060801D01*
X0137349Y0060067D01*
X0136982Y0059700D01*
X0136248Y0059700D01*
X0135881Y0060067D01*
X0135881Y0060801D01*
X0136248Y0061168D01*
X0136982Y0061168D01*
X0137349Y0060801D01*
X0135139Y0061168D02*
X0135139Y0060067D01*
X0134772Y0059700D01*
X0134405Y0060067D01*
X0134038Y0059700D01*
X0133671Y0060067D01*
X0133671Y0061168D01*
X0133671Y0060067D01*
X0134038Y0059700D01*
X0134405Y0060067D01*
X0134772Y0059700D01*
X0135139Y0060067D01*
X0135139Y0061168D01*
X0132929Y0061168D02*
X0131828Y0061168D01*
X0131461Y0060801D01*
X0131461Y0059700D01*
X0131461Y0060801D01*
X0131828Y0061168D01*
X0132929Y0061168D01*
X0132929Y0059700D01*
X0132929Y0061168D01*
X0132560Y0058302D02*
X0132560Y0056100D01*
X0131460Y0056100D01*
X0131093Y0056467D01*
X0131093Y0057201D01*
X0131460Y0057568D01*
X0132560Y0057568D01*
X0131460Y0057568D01*
X0131093Y0057201D01*
X0131093Y0056467D01*
X0131460Y0056100D01*
X0132560Y0056100D01*
X0132560Y0058302D01*
X0130351Y0057568D02*
X0129984Y0057568D01*
X0129984Y0056100D01*
X0129984Y0057568D01*
X0130351Y0057568D01*
X0129984Y0058302D02*
X0129984Y0058669D01*
X0129984Y0058302D01*
X0128877Y0057568D02*
X0128877Y0056100D01*
X0128877Y0057568D01*
X0128143Y0057568D02*
X0127776Y0057568D01*
X0128143Y0057568D01*
X0128877Y0056834D01*
X0128143Y0057568D01*
X0127036Y0057568D02*
X0126302Y0057568D01*
X0127036Y0057568D01*
X0126669Y0057935D02*
X0126669Y0056467D01*
X0126302Y0056100D01*
X0126669Y0056467D01*
X0126669Y0057935D01*
X0125563Y0058302D02*
X0125563Y0056100D01*
X0125563Y0058302D01*
X0125196Y0057568D02*
X0124462Y0057568D01*
X0124095Y0057201D01*
X0124095Y0056100D01*
X0124095Y0057201D01*
X0124462Y0057568D01*
X0125196Y0057568D01*
X0125563Y0057201D01*
X0125196Y0057568D01*
X0125932Y0055069D02*
X0125932Y0054702D01*
X0125932Y0055069D01*
X0125932Y0053968D02*
X0125932Y0052500D01*
X0125932Y0053968D01*
X0126299Y0053968D01*
X0125932Y0053968D01*
X0127041Y0053601D02*
X0127041Y0052500D01*
X0127041Y0053601D01*
X0127408Y0053968D01*
X0128509Y0053968D01*
X0128509Y0052500D01*
X0128509Y0053968D01*
X0127408Y0053968D01*
X0127041Y0053601D01*
X0126299Y0052500D02*
X0125565Y0052500D01*
X0126299Y0052500D01*
X0124826Y0052867D02*
X0124459Y0053234D01*
X0123358Y0053234D01*
X0124459Y0053234D01*
X0124826Y0052867D01*
X0124459Y0052500D01*
X0123358Y0052500D01*
X0123358Y0053601D01*
X0123725Y0053968D01*
X0124459Y0053968D01*
X0123725Y0053968D01*
X0123358Y0053601D01*
X0123358Y0052500D01*
X0124459Y0052500D01*
X0124826Y0052867D01*
X0126303Y0050368D02*
X0127037Y0050368D01*
X0127404Y0050001D01*
X0127404Y0049267D01*
X0127037Y0048900D01*
X0126303Y0048900D01*
X0125936Y0049267D01*
X0125936Y0050001D01*
X0126303Y0050368D01*
X0127037Y0050368D01*
X0127404Y0050001D01*
X0127404Y0049267D01*
X0127037Y0048900D01*
X0126303Y0048900D01*
X0125936Y0049267D01*
X0125936Y0050001D01*
X0126303Y0050368D01*
X0128143Y0050368D02*
X0128877Y0050368D01*
X0128143Y0050368D01*
X0128510Y0050735D02*
X0128510Y0049267D01*
X0128143Y0048900D01*
X0128510Y0049267D01*
X0128510Y0050735D01*
X0130351Y0052500D02*
X0130351Y0053968D01*
X0130351Y0052500D01*
X0130351Y0053234D02*
X0129617Y0053968D01*
X0129250Y0053968D01*
X0129617Y0053968D01*
X0130351Y0053234D01*
X0131093Y0052867D02*
X0131093Y0053601D01*
X0131460Y0053968D01*
X0132194Y0053968D01*
X0132560Y0053601D01*
X0132560Y0052867D01*
X0132194Y0052500D01*
X0131460Y0052500D01*
X0131093Y0052867D01*
X0131093Y0053601D01*
X0131460Y0053968D01*
X0132194Y0053968D01*
X0132560Y0053601D01*
X0132560Y0052867D01*
X0132194Y0052500D01*
X0131460Y0052500D01*
X0131093Y0052867D01*
X0133300Y0053601D02*
X0134034Y0053601D01*
X0133300Y0053601D01*
X0133667Y0054335D02*
X0133667Y0052500D01*
X0133667Y0054335D01*
X0133300Y0054702D01*
X0133667Y0054335D01*
X0135140Y0054702D02*
X0135140Y0055069D01*
X0135140Y0054702D01*
X0135140Y0053968D02*
X0135140Y0052500D01*
X0135140Y0053968D01*
X0135507Y0053968D01*
X0135140Y0053968D01*
X0135507Y0052500D02*
X0134773Y0052500D01*
X0135507Y0052500D01*
X0136246Y0052500D02*
X0136980Y0052500D01*
X0136246Y0052500D01*
X0136613Y0052500D02*
X0136613Y0054702D01*
X0136980Y0054702D01*
X0136613Y0054702D01*
X0136613Y0052500D01*
X0137722Y0052500D02*
X0137722Y0053601D01*
X0138089Y0053968D01*
X0138823Y0053968D01*
X0138089Y0053968D01*
X0137722Y0053601D01*
X0137722Y0052500D01*
X0138823Y0052500D01*
X0139190Y0052867D01*
X0138823Y0053234D01*
X0137722Y0053234D01*
X0138823Y0053234D01*
X0139190Y0052867D01*
X0138823Y0052500D01*
X0137722Y0052500D01*
X0138823Y0051469D02*
X0138823Y0051102D01*
X0138823Y0051469D01*
X0138823Y0050368D02*
X0138823Y0048900D01*
X0138823Y0050368D01*
X0139190Y0050368D01*
X0138823Y0050368D01*
X0137717Y0050368D02*
X0136983Y0048900D01*
X0136249Y0050368D01*
X0136983Y0048900D01*
X0137717Y0050368D01*
X0138456Y0048900D02*
X0139190Y0048900D01*
X0138456Y0048900D01*
X0139932Y0048900D02*
X0141033Y0048900D01*
X0141400Y0049267D01*
X0141400Y0050001D01*
X0141033Y0050368D01*
X0139932Y0050368D01*
X0139932Y0048533D01*
X0140299Y0048166D01*
X0140666Y0048166D01*
X0140299Y0048166D01*
X0139932Y0048533D01*
X0139932Y0050368D01*
X0141033Y0050368D01*
X0141400Y0050001D01*
X0141400Y0049267D01*
X0141033Y0048900D01*
X0139932Y0048900D01*
X0135507Y0049267D02*
X0135507Y0050001D01*
X0135140Y0050368D01*
X0134406Y0050368D01*
X0134039Y0050001D01*
X0134039Y0049634D01*
X0135507Y0049634D01*
X0134039Y0049634D01*
X0134039Y0050001D01*
X0134406Y0050368D01*
X0135140Y0050368D01*
X0135507Y0050001D01*
X0135507Y0049267D01*
X0135140Y0048900D01*
X0134406Y0048900D01*
X0135140Y0048900D01*
X0135507Y0049267D01*
X0133297Y0048900D02*
X0133297Y0050368D01*
X0132196Y0050368D01*
X0131829Y0050001D01*
X0131829Y0048900D01*
X0131829Y0050001D01*
X0132196Y0050368D01*
X0133297Y0050368D01*
X0133297Y0048900D01*
X0139932Y0052867D02*
X0140299Y0052500D01*
X0141033Y0052500D01*
X0141400Y0052867D01*
X0141400Y0054335D01*
X0141033Y0054702D01*
X0140299Y0054702D01*
X0139932Y0054335D01*
X0140299Y0054702D01*
X0141033Y0054702D01*
X0141400Y0054335D01*
X0141400Y0052867D01*
X0141033Y0052500D01*
X0140299Y0052500D01*
X0139932Y0052867D01*
X0139932Y0056100D02*
X0141033Y0056100D01*
X0141400Y0056467D01*
X0141033Y0056834D01*
X0139932Y0056834D01*
X0141033Y0056834D01*
X0141400Y0056467D01*
X0141033Y0056100D01*
X0139932Y0056100D01*
X0139932Y0057201D01*
X0140299Y0057568D01*
X0141033Y0057568D01*
X0140299Y0057568D01*
X0139932Y0057201D01*
X0139932Y0056100D01*
X0139190Y0056100D02*
X0139190Y0057568D01*
X0138089Y0057568D01*
X0137722Y0057201D01*
X0137722Y0056100D01*
X0137722Y0057201D01*
X0138089Y0057568D01*
X0139190Y0057568D01*
X0139190Y0056100D01*
X0136980Y0056467D02*
X0136980Y0057201D01*
X0136613Y0057568D01*
X0135512Y0057568D01*
X0136613Y0057568D01*
X0136980Y0057201D01*
X0136980Y0056467D01*
X0136613Y0056100D01*
X0135512Y0056100D01*
X0135512Y0058302D01*
X0135512Y0056100D01*
X0136613Y0056100D01*
X0136980Y0056467D01*
X0130351Y0056100D02*
X0129617Y0056100D01*
X0130351Y0056100D01*
X0121143Y0056467D02*
X0121143Y0057201D01*
X0120776Y0057568D01*
X0119675Y0057568D01*
X0120776Y0057568D01*
X0121143Y0057201D01*
X0121143Y0056467D01*
X0120776Y0056100D01*
X0119675Y0056100D01*
X0119675Y0058302D01*
X0119675Y0056100D01*
X0120776Y0056100D01*
X0121143Y0056467D01*
X0120406Y0054702D02*
X0120039Y0054702D01*
X0120039Y0052500D01*
X0120039Y0054702D01*
X0120406Y0054702D01*
X0118566Y0053968D02*
X0117832Y0053968D01*
X0117465Y0053601D01*
X0117465Y0052500D01*
X0118566Y0052500D01*
X0118933Y0052867D01*
X0118566Y0053234D01*
X0117465Y0053234D01*
X0118566Y0053234D01*
X0118933Y0052867D01*
X0118566Y0052500D01*
X0117465Y0052500D01*
X0117465Y0053601D01*
X0117832Y0053968D01*
X0118566Y0053968D01*
X0119672Y0052500D02*
X0120406Y0052500D01*
X0119672Y0052500D01*
X0119307Y0050368D02*
X0119307Y0048900D01*
X0120407Y0048900D01*
X0120774Y0049267D01*
X0120774Y0050368D01*
X0120774Y0049267D01*
X0120407Y0048900D01*
X0119307Y0048900D01*
X0119307Y0050368D01*
X0118565Y0050001D02*
X0118198Y0049634D01*
X0117464Y0049634D01*
X0117097Y0049267D01*
X0117464Y0048900D01*
X0118565Y0048900D01*
X0117464Y0048900D01*
X0117097Y0049267D01*
X0117464Y0049634D01*
X0118198Y0049634D01*
X0118565Y0050001D01*
X0118198Y0050368D01*
X0117097Y0050368D01*
X0118198Y0050368D01*
X0118565Y0050001D01*
X0116355Y0050368D02*
X0115621Y0050368D01*
X0116355Y0050368D01*
X0115988Y0050735D02*
X0115988Y0049267D01*
X0115621Y0048900D01*
X0115988Y0049267D01*
X0115988Y0050735D01*
X0114881Y0050001D02*
X0114881Y0049267D01*
X0114514Y0048900D01*
X0113781Y0048900D01*
X0113414Y0049267D01*
X0113414Y0050001D01*
X0113781Y0050368D01*
X0114514Y0050368D01*
X0114881Y0050001D01*
X0114881Y0049267D01*
X0114514Y0048900D01*
X0113781Y0048900D01*
X0113414Y0049267D01*
X0113414Y0050001D01*
X0113781Y0050368D01*
X0114514Y0050368D01*
X0114881Y0050001D01*
X0112672Y0050368D02*
X0112672Y0048900D01*
X0112672Y0050368D01*
X0112305Y0050368D01*
X0111938Y0050001D01*
X0111571Y0050368D01*
X0111204Y0050001D01*
X0111204Y0048900D01*
X0111204Y0050001D01*
X0111571Y0050368D01*
X0111938Y0050001D01*
X0111938Y0048900D01*
X0111938Y0050001D01*
X0112305Y0050368D01*
X0112672Y0050368D01*
X0110462Y0050001D02*
X0110462Y0049267D01*
X0110095Y0048900D01*
X0109361Y0048900D01*
X0110095Y0048900D01*
X0110462Y0049267D01*
X0110462Y0050001D01*
X0110095Y0050368D01*
X0109361Y0050368D01*
X0108994Y0050001D01*
X0108994Y0049634D01*
X0110462Y0049634D01*
X0108994Y0049634D01*
X0108994Y0050001D01*
X0109361Y0050368D01*
X0110095Y0050368D01*
X0110462Y0050001D01*
X0108252Y0050368D02*
X0108252Y0048900D01*
X0108252Y0050368D01*
X0108252Y0049634D02*
X0107518Y0050368D01*
X0107151Y0050368D01*
X0107518Y0050368D01*
X0108252Y0049634D01*
X0106410Y0050001D02*
X0106043Y0050368D01*
X0104942Y0050368D01*
X0106043Y0050368D01*
X0106410Y0050001D01*
X0106043Y0049634D01*
X0105309Y0049634D01*
X0104942Y0049267D01*
X0105309Y0048900D01*
X0106410Y0048900D01*
X0105309Y0048900D01*
X0104942Y0049267D01*
X0105309Y0049634D01*
X0106043Y0049634D01*
X0106410Y0050001D01*
X0106784Y0051766D02*
X0106784Y0053968D01*
X0107885Y0053968D01*
X0108252Y0053601D01*
X0108252Y0052867D01*
X0107885Y0052500D01*
X0106784Y0052500D01*
X0107885Y0052500D01*
X0108252Y0052867D01*
X0108252Y0053601D01*
X0107885Y0053968D01*
X0106784Y0053968D01*
X0106784Y0051766D01*
X0106042Y0052867D02*
X0105675Y0052500D01*
X0104574Y0052500D01*
X0104574Y0053968D01*
X0104574Y0052500D01*
X0105675Y0052500D01*
X0106042Y0052867D01*
X0106042Y0053968D01*
X0106042Y0052867D01*
X0103832Y0052500D02*
X0103098Y0052500D01*
X0103832Y0052500D01*
X0103465Y0052500D02*
X0103465Y0053968D01*
X0103832Y0053968D01*
X0103465Y0053968D01*
X0103465Y0052500D01*
X0102359Y0052500D02*
X0102359Y0053968D01*
X0102359Y0052500D01*
X0102359Y0053234D02*
X0101625Y0053968D01*
X0101258Y0053968D01*
X0101625Y0053968D01*
X0102359Y0053234D01*
X0103465Y0054702D02*
X0103465Y0055069D01*
X0103465Y0054702D01*
X0103836Y0056100D02*
X0103469Y0056467D01*
X0103469Y0057201D01*
X0103836Y0057568D01*
X0104570Y0057568D01*
X0104937Y0057201D01*
X0104937Y0056467D01*
X0104570Y0056100D01*
X0103836Y0056100D01*
X0103469Y0056467D01*
X0103469Y0057201D01*
X0103836Y0057568D01*
X0104570Y0057568D01*
X0104937Y0057201D01*
X0104937Y0056467D01*
X0104570Y0056100D01*
X0103836Y0056100D01*
X0102727Y0056100D02*
X0102727Y0057568D01*
X0102727Y0056100D01*
X0102727Y0056834D02*
X0101993Y0057568D01*
X0101626Y0057568D01*
X0101993Y0057568D01*
X0102727Y0056834D01*
X0102360Y0059700D02*
X0102727Y0060067D01*
X0102727Y0060801D01*
X0102360Y0061168D01*
X0101626Y0061168D01*
X0101259Y0060801D01*
X0101259Y0060067D01*
X0101626Y0059700D01*
X0102360Y0059700D01*
X0102727Y0060067D01*
X0102727Y0060801D01*
X0102360Y0061168D01*
X0101626Y0061168D01*
X0101259Y0060801D01*
X0101259Y0060067D01*
X0101626Y0059700D01*
X0102360Y0059700D01*
X0100517Y0060801D02*
X0099783Y0060801D01*
X0100517Y0060801D01*
X0100150Y0061535D02*
X0100150Y0059700D01*
X0100150Y0061535D01*
X0099783Y0061902D01*
X0100150Y0061535D01*
X0099415Y0063300D02*
X0099782Y0063667D01*
X0099782Y0065135D01*
X0099782Y0063667D01*
X0099415Y0063300D01*
X0099415Y0064768D02*
X0100149Y0064768D01*
X0099415Y0064768D01*
X0100891Y0064768D02*
X0101992Y0064768D01*
X0102359Y0064401D01*
X0102359Y0063667D01*
X0101992Y0063300D01*
X0100891Y0063300D01*
X0101992Y0063300D01*
X0102359Y0063667D01*
X0102359Y0064401D01*
X0101992Y0064768D01*
X0100891Y0064768D01*
X0103101Y0064768D02*
X0103101Y0063300D01*
X0104202Y0063300D01*
X0104569Y0063667D01*
X0104569Y0064768D01*
X0104569Y0063667D01*
X0104202Y0063300D01*
X0103101Y0063300D01*
X0103101Y0064768D01*
X0102728Y0066900D02*
X0101994Y0066900D01*
X0101628Y0067267D01*
X0101628Y0068735D01*
X0101994Y0069102D01*
X0102728Y0069102D01*
X0103095Y0068735D01*
X0103095Y0067267D01*
X0102728Y0066900D01*
X0101994Y0066900D01*
X0101628Y0067267D01*
X0101628Y0068735D01*
X0101994Y0069102D01*
X0102728Y0069102D01*
X0103095Y0068735D01*
X0103095Y0067267D01*
X0102728Y0066900D01*
X0103837Y0068001D02*
X0104204Y0067634D01*
X0105305Y0067634D01*
X0104204Y0067634D01*
X0103837Y0068001D01*
X0103837Y0068735D01*
X0104204Y0069102D01*
X0105305Y0069102D01*
X0105305Y0066900D01*
X0105305Y0069102D01*
X0104204Y0069102D01*
X0103837Y0068735D01*
X0103837Y0068001D01*
X0106047Y0067267D02*
X0106047Y0068735D01*
X0106414Y0069102D01*
X0107148Y0069102D01*
X0107515Y0068735D01*
X0107515Y0067267D01*
X0107148Y0066900D01*
X0106414Y0066900D01*
X0106047Y0067267D01*
X0106047Y0068735D01*
X0106414Y0069102D01*
X0107148Y0069102D01*
X0107515Y0068735D01*
X0107515Y0067267D01*
X0107148Y0066900D01*
X0106414Y0066900D01*
X0106047Y0067267D01*
X0108257Y0066900D02*
X0108991Y0067634D01*
X0108257Y0066900D01*
X0108624Y0067634D02*
X0109725Y0067634D01*
X0108624Y0067634D01*
X0108257Y0068001D01*
X0108257Y0068735D01*
X0108624Y0069102D01*
X0109725Y0069102D01*
X0109725Y0066900D01*
X0109725Y0069102D01*
X0108624Y0069102D01*
X0108257Y0068735D01*
X0108257Y0068001D01*
X0108624Y0067634D01*
X0110467Y0068001D02*
X0110834Y0067634D01*
X0111935Y0067634D01*
X0110834Y0067634D01*
X0110467Y0068001D01*
X0110467Y0068735D01*
X0110834Y0069102D01*
X0111935Y0069102D01*
X0111935Y0066900D01*
X0111935Y0069102D01*
X0110834Y0069102D01*
X0110467Y0068735D01*
X0110467Y0068001D01*
X0114887Y0068001D02*
X0116355Y0068001D01*
X0114887Y0068001D01*
X0114887Y0068368D02*
X0114887Y0066900D01*
X0114887Y0068368D01*
X0115621Y0069102D01*
X0116355Y0068368D01*
X0116355Y0066900D01*
X0116355Y0068368D01*
X0115621Y0069102D01*
X0114887Y0068368D01*
X0117094Y0069102D02*
X0117828Y0069102D01*
X0117094Y0069102D01*
X0117461Y0069102D02*
X0117461Y0066900D01*
X0117461Y0069102D01*
X0118570Y0069102D02*
X0118570Y0066900D01*
X0120038Y0069102D01*
X0120038Y0066900D01*
X0120038Y0069102D01*
X0118570Y0066900D01*
X0118570Y0069102D01*
X0120780Y0068735D02*
X0120780Y0068001D01*
X0121147Y0067634D01*
X0122248Y0067634D01*
X0121147Y0067634D01*
X0120780Y0068001D01*
X0120780Y0068735D01*
X0121147Y0069102D01*
X0122248Y0069102D01*
X0122248Y0066900D01*
X0122248Y0069102D01*
X0121147Y0069102D01*
X0120780Y0068735D01*
X0121514Y0067634D02*
X0120780Y0066900D01*
X0121514Y0067634D01*
X0122990Y0067267D02*
X0122990Y0068735D01*
X0123357Y0069102D01*
X0124091Y0069102D01*
X0124458Y0068735D01*
X0124458Y0067267D01*
X0124091Y0066900D01*
X0123357Y0066900D01*
X0122990Y0067267D01*
X0122990Y0068735D01*
X0123357Y0069102D01*
X0124091Y0069102D01*
X0124458Y0068735D01*
X0124458Y0067267D01*
X0124091Y0066900D01*
X0123357Y0066900D01*
X0122990Y0067267D01*
X0117828Y0066900D02*
X0117094Y0066900D01*
X0117828Y0066900D01*
X0113040Y0064768D02*
X0111939Y0064768D01*
X0111572Y0064401D01*
X0111572Y0063667D01*
X0111939Y0063300D01*
X0113040Y0063300D01*
X0111939Y0063300D01*
X0111572Y0063667D01*
X0111572Y0064401D01*
X0111939Y0064768D01*
X0113040Y0064768D01*
X0113040Y0062566D01*
X0113040Y0064768D01*
X0110830Y0064768D02*
X0110830Y0063300D01*
X0110830Y0064768D01*
X0110096Y0064768D02*
X0109729Y0064768D01*
X0110096Y0064768D01*
X0110830Y0064034D01*
X0110096Y0064768D01*
X0108988Y0064401D02*
X0108988Y0063667D01*
X0108621Y0063300D01*
X0107887Y0063300D01*
X0107521Y0063667D01*
X0107521Y0064401D01*
X0107887Y0064768D01*
X0108621Y0064768D01*
X0108988Y0064401D01*
X0108988Y0063667D01*
X0108621Y0063300D01*
X0107887Y0063300D01*
X0107521Y0063667D01*
X0107521Y0064401D01*
X0107887Y0064768D01*
X0108621Y0064768D01*
X0108988Y0064401D01*
X0106779Y0064401D02*
X0106412Y0064768D01*
X0105311Y0064768D01*
X0106412Y0064768D01*
X0106779Y0064401D01*
X0106779Y0063667D01*
X0106412Y0063300D01*
X0105311Y0063300D01*
X0105311Y0065502D01*
X0105311Y0063300D01*
X0106412Y0063300D01*
X0106779Y0063667D01*
X0106779Y0064401D01*
X0108253Y0061535D02*
X0108253Y0060067D01*
X0107886Y0059700D01*
X0108253Y0060067D01*
X0108253Y0061535D01*
X0108620Y0061168D02*
X0107886Y0061168D01*
X0108620Y0061168D01*
X0109362Y0060801D02*
X0109362Y0059700D01*
X0110463Y0059700D01*
X0110830Y0060067D01*
X0110463Y0060434D01*
X0109362Y0060434D01*
X0110463Y0060434D01*
X0110830Y0060067D01*
X0110463Y0059700D01*
X0109362Y0059700D01*
X0109362Y0060801D01*
X0109729Y0061168D01*
X0110463Y0061168D01*
X0109729Y0061168D01*
X0109362Y0060801D01*
X0107147Y0060801D02*
X0106780Y0061168D01*
X0106046Y0061168D01*
X0105679Y0060801D01*
X0105679Y0060434D01*
X0107147Y0060434D01*
X0105679Y0060434D01*
X0105679Y0060801D01*
X0106046Y0061168D01*
X0106780Y0061168D01*
X0107147Y0060801D01*
X0107147Y0060067D01*
X0106780Y0059700D01*
X0106046Y0059700D01*
X0106780Y0059700D01*
X0107147Y0060067D01*
X0107147Y0060801D01*
X0110463Y0057935D02*
X0110463Y0056467D01*
X0110096Y0056100D01*
X0110463Y0056467D01*
X0110463Y0057935D01*
X0110830Y0057568D02*
X0110096Y0057568D01*
X0110830Y0057568D01*
X0111572Y0057568D02*
X0112673Y0057568D01*
X0113040Y0057201D01*
X0113040Y0056467D01*
X0112673Y0056100D01*
X0111572Y0056100D01*
X0112673Y0056100D01*
X0113040Y0056467D01*
X0113040Y0057201D01*
X0112673Y0057568D01*
X0111572Y0057568D01*
X0113782Y0057201D02*
X0113782Y0056834D01*
X0115250Y0056834D01*
X0113782Y0056834D01*
X0113782Y0057201D01*
X0114149Y0057568D01*
X0114883Y0057568D01*
X0115250Y0057201D01*
X0115250Y0056467D01*
X0114883Y0056100D01*
X0114149Y0056100D01*
X0114883Y0056100D01*
X0115250Y0056467D01*
X0115250Y0057201D01*
X0114883Y0057568D01*
X0114149Y0057568D01*
X0113782Y0057201D01*
X0115989Y0057201D02*
X0116723Y0057201D01*
X0115989Y0057201D01*
X0116356Y0057935D02*
X0116356Y0056100D01*
X0116356Y0057935D01*
X0115989Y0058302D01*
X0116356Y0057935D01*
X0117465Y0057201D02*
X0117465Y0056834D01*
X0118933Y0056834D01*
X0117465Y0056834D01*
X0117465Y0057201D01*
X0117832Y0057568D01*
X0118566Y0057568D01*
X0118933Y0057201D01*
X0118933Y0056467D01*
X0118566Y0056100D01*
X0117832Y0056100D01*
X0118566Y0056100D01*
X0118933Y0056467D01*
X0118933Y0057201D01*
X0118566Y0057568D01*
X0117832Y0057568D01*
X0117465Y0057201D01*
X0114513Y0060067D02*
X0114146Y0059700D01*
X0113412Y0059700D01*
X0113045Y0060067D01*
X0113045Y0060434D01*
X0113412Y0060801D01*
X0114146Y0060801D01*
X0114513Y0061168D01*
X0114513Y0061535D01*
X0114146Y0061902D01*
X0113412Y0061902D01*
X0113045Y0061535D01*
X0113412Y0061902D01*
X0114146Y0061902D01*
X0114513Y0061535D01*
X0114513Y0061168D01*
X0114146Y0060801D01*
X0113412Y0060801D01*
X0113045Y0060434D01*
X0113045Y0060067D01*
X0113412Y0059700D01*
X0114146Y0059700D01*
X0114513Y0060067D01*
X0112303Y0061168D02*
X0111569Y0061168D01*
X0112303Y0061168D01*
X0111936Y0061535D02*
X0111936Y0060067D01*
X0111569Y0059700D01*
X0111936Y0060067D01*
X0111936Y0061535D01*
X0108990Y0057568D02*
X0107889Y0057568D01*
X0108990Y0057568D01*
X0109357Y0057201D01*
X0108990Y0056834D01*
X0108256Y0056834D01*
X0107889Y0056467D01*
X0108256Y0056100D01*
X0109357Y0056100D01*
X0108256Y0056100D01*
X0107889Y0056467D01*
X0108256Y0056834D01*
X0108990Y0056834D01*
X0109357Y0057201D01*
X0108990Y0057568D01*
X0109361Y0053968D02*
X0108994Y0053601D01*
X0108994Y0053234D01*
X0110462Y0053234D01*
X0108994Y0053234D01*
X0108994Y0053601D01*
X0109361Y0053968D01*
X0110095Y0053968D01*
X0110462Y0053601D01*
X0110462Y0052867D01*
X0110095Y0052500D01*
X0109361Y0052500D01*
X0110095Y0052500D01*
X0110462Y0052867D01*
X0110462Y0053601D01*
X0110095Y0053968D01*
X0109361Y0053968D01*
X0111202Y0053968D02*
X0111569Y0053968D01*
X0112303Y0053234D01*
X0111569Y0053968D01*
X0111202Y0053968D01*
X0112303Y0053968D02*
X0112303Y0052500D01*
X0112303Y0053968D01*
X0115255Y0053968D02*
X0115255Y0052867D01*
X0115622Y0052500D01*
X0115989Y0052867D01*
X0116356Y0052500D01*
X0116723Y0052867D01*
X0116723Y0053968D01*
X0116723Y0052867D01*
X0116356Y0052500D01*
X0115989Y0052867D01*
X0115622Y0052500D01*
X0115255Y0052867D01*
X0115255Y0053968D01*
X0121516Y0050368D02*
X0122617Y0050368D01*
X0122984Y0050001D01*
X0122984Y0049267D01*
X0122617Y0048900D01*
X0121516Y0048900D01*
X0122617Y0048900D01*
X0122984Y0049267D01*
X0122984Y0050001D01*
X0122617Y0050368D01*
X0121516Y0050368D01*
X0101990Y0050368D02*
X0101623Y0050368D01*
X0101623Y0048900D01*
X0101623Y0050368D01*
X0101990Y0050368D01*
X0101623Y0051102D02*
X0101623Y0051469D01*
X0101623Y0051102D01*
X0100517Y0050368D02*
X0099416Y0050368D01*
X0099049Y0050001D01*
X0099049Y0048900D01*
X0099049Y0050001D01*
X0099416Y0050368D01*
X0100517Y0050368D01*
X0100517Y0048900D01*
X0100517Y0050368D01*
X0101257Y0048900D02*
X0101990Y0048900D01*
X0101257Y0048900D01*
X0100150Y0052500D02*
X0100517Y0052867D01*
X0100517Y0053601D01*
X0100150Y0053968D01*
X0099416Y0053968D01*
X0099049Y0053601D01*
X0099049Y0053234D01*
X0100517Y0053234D01*
X0099049Y0053234D01*
X0099049Y0053601D01*
X0099416Y0053968D01*
X0100150Y0053968D01*
X0100517Y0053601D01*
X0100517Y0052867D01*
X0100150Y0052500D01*
X0099416Y0052500D01*
X0100150Y0052500D01*
X0098307Y0052500D02*
X0097206Y0052500D01*
X0096839Y0052867D01*
X0097206Y0053234D01*
X0097940Y0053234D01*
X0098307Y0053601D01*
X0097940Y0053968D01*
X0096839Y0053968D01*
X0097940Y0053968D01*
X0098307Y0053601D01*
X0097940Y0053234D01*
X0097206Y0053234D01*
X0096839Y0052867D01*
X0097206Y0052500D01*
X0098307Y0052500D01*
X0096097Y0050368D02*
X0095364Y0050368D01*
X0096097Y0050368D01*
X0095730Y0050735D02*
X0095730Y0049267D01*
X0095364Y0048900D01*
X0095730Y0049267D01*
X0095730Y0050735D01*
X0094624Y0051102D02*
X0094624Y0048900D01*
X0094624Y0051102D01*
X0094257Y0050368D02*
X0093523Y0050368D01*
X0093156Y0050001D01*
X0093156Y0048900D01*
X0093156Y0050001D01*
X0093523Y0050368D01*
X0094257Y0050368D01*
X0094624Y0050001D01*
X0094257Y0050368D01*
X0092414Y0050001D02*
X0092414Y0049267D01*
X0092047Y0048900D01*
X0091313Y0048900D01*
X0092047Y0048900D01*
X0092414Y0049267D01*
X0092414Y0050001D01*
X0092047Y0050368D01*
X0091313Y0050368D01*
X0090946Y0050001D01*
X0090946Y0049634D01*
X0092414Y0049634D01*
X0090946Y0049634D01*
X0090946Y0050001D01*
X0091313Y0050368D01*
X0092047Y0050368D01*
X0092414Y0050001D01*
X0092414Y0052500D02*
X0092414Y0054702D01*
X0092414Y0052500D01*
X0093154Y0052500D02*
X0093521Y0052867D01*
X0093521Y0054335D01*
X0093521Y0052867D01*
X0093154Y0052500D01*
X0092414Y0053601D02*
X0092047Y0053968D01*
X0091313Y0053968D01*
X0090946Y0053601D01*
X0090946Y0052500D01*
X0090946Y0053601D01*
X0091313Y0053968D01*
X0092047Y0053968D01*
X0092414Y0053601D01*
X0093154Y0053968D02*
X0093888Y0053968D01*
X0093154Y0053968D01*
X0090204Y0053968D02*
X0089837Y0053968D01*
X0089837Y0052500D01*
X0089837Y0053968D01*
X0090204Y0053968D01*
X0089837Y0054702D02*
X0089837Y0055069D01*
X0089837Y0054702D01*
X0088731Y0053601D02*
X0088364Y0053968D01*
X0087263Y0053968D01*
X0088364Y0053968D01*
X0088731Y0053601D01*
X0088364Y0053234D01*
X0087630Y0053234D01*
X0087263Y0052867D01*
X0087630Y0052500D01*
X0088731Y0052500D01*
X0087630Y0052500D01*
X0087263Y0052867D01*
X0087630Y0053234D01*
X0088364Y0053234D01*
X0088731Y0053601D01*
X0089470Y0052500D02*
X0090204Y0052500D01*
X0089470Y0052500D01*
X0087995Y0050735D02*
X0087628Y0051102D01*
X0086894Y0051102D01*
X0086527Y0050735D01*
X0086894Y0051102D01*
X0087628Y0051102D01*
X0087995Y0050735D01*
X0087995Y0050368D01*
X0087628Y0050001D01*
X0086894Y0050001D01*
X0086527Y0049634D01*
X0086527Y0049267D01*
X0086894Y0048900D01*
X0087628Y0048900D01*
X0087995Y0049267D01*
X0087628Y0048900D01*
X0086894Y0048900D01*
X0086527Y0049267D01*
X0086527Y0049634D01*
X0086894Y0050001D01*
X0087628Y0050001D01*
X0087995Y0050368D01*
X0087995Y0050735D01*
X0085785Y0050368D02*
X0085051Y0050368D01*
X0085785Y0050368D01*
X0085418Y0050735D02*
X0085418Y0049267D01*
X0085051Y0048900D01*
X0085418Y0049267D01*
X0085418Y0050735D01*
X0083944Y0050368D02*
X0083211Y0050368D01*
X0082844Y0050001D01*
X0082844Y0048900D01*
X0083944Y0048900D01*
X0084311Y0049267D01*
X0083944Y0049634D01*
X0082844Y0049634D01*
X0083944Y0049634D01*
X0084311Y0049267D01*
X0083944Y0048900D01*
X0082844Y0048900D01*
X0082844Y0050001D01*
X0083211Y0050368D01*
X0083944Y0050368D01*
X0082102Y0050368D02*
X0081368Y0050368D01*
X0082102Y0050368D01*
X0081735Y0050735D02*
X0081735Y0049267D01*
X0081368Y0048900D01*
X0081735Y0049267D01*
X0081735Y0050735D01*
X0080628Y0050001D02*
X0080628Y0049267D01*
X0080261Y0048900D01*
X0079527Y0048900D01*
X0080261Y0048900D01*
X0080628Y0049267D01*
X0080628Y0050001D01*
X0080261Y0050368D01*
X0079527Y0050368D01*
X0079160Y0050001D01*
X0079160Y0049634D01*
X0080628Y0049634D01*
X0079160Y0049634D01*
X0079160Y0050001D01*
X0079527Y0050368D01*
X0080261Y0050368D01*
X0080628Y0050001D01*
X0080634Y0052500D02*
X0081735Y0052500D01*
X0082102Y0052867D01*
X0081735Y0053234D01*
X0080634Y0053234D01*
X0081735Y0053234D01*
X0082102Y0052867D01*
X0081735Y0052500D01*
X0080634Y0052500D01*
X0080634Y0053601D01*
X0081001Y0053968D01*
X0081735Y0053968D01*
X0081001Y0053968D01*
X0080634Y0053601D01*
X0080634Y0052500D01*
X0079892Y0052500D02*
X0079892Y0053968D01*
X0079892Y0052500D01*
X0079892Y0053234D02*
X0079158Y0053968D01*
X0078791Y0053968D01*
X0079158Y0053968D01*
X0079892Y0053234D01*
X0078050Y0052500D02*
X0078050Y0053968D01*
X0076949Y0053968D01*
X0076582Y0053601D01*
X0076582Y0052500D01*
X0076582Y0053601D01*
X0076949Y0053968D01*
X0078050Y0053968D01*
X0078050Y0052500D01*
X0075840Y0052500D02*
X0075106Y0052500D01*
X0075840Y0052500D01*
X0075473Y0052500D02*
X0075473Y0053968D01*
X0075840Y0053968D01*
X0075473Y0053968D01*
X0075473Y0052500D01*
X0074367Y0052500D02*
X0074367Y0053968D01*
X0073266Y0053968D01*
X0072899Y0053601D01*
X0072899Y0052500D01*
X0072899Y0053601D01*
X0073266Y0053968D01*
X0074367Y0053968D01*
X0074367Y0052500D01*
X0073265Y0051102D02*
X0073632Y0050735D01*
X0073632Y0048900D01*
X0073632Y0050735D01*
X0073265Y0051102D01*
X0073265Y0050001D02*
X0073999Y0050001D01*
X0073265Y0050001D01*
X0074741Y0050001D02*
X0074741Y0049267D01*
X0075108Y0048900D01*
X0075842Y0048900D01*
X0076209Y0049267D01*
X0076209Y0050001D01*
X0075842Y0050368D01*
X0075108Y0050368D01*
X0074741Y0050001D01*
X0075108Y0050368D01*
X0075842Y0050368D01*
X0076209Y0050001D01*
X0076209Y0049267D01*
X0075842Y0048900D01*
X0075108Y0048900D01*
X0074741Y0049267D01*
X0074741Y0050001D01*
X0071423Y0051766D02*
X0071056Y0051766D01*
X0070689Y0052133D01*
X0070689Y0053968D01*
X0071790Y0053968D01*
X0072157Y0053601D01*
X0072157Y0052867D01*
X0071790Y0052500D01*
X0070689Y0052500D01*
X0071790Y0052500D01*
X0072157Y0052867D01*
X0072157Y0053601D01*
X0071790Y0053968D01*
X0070689Y0053968D01*
X0070689Y0052133D01*
X0071056Y0051766D01*
X0071423Y0051766D01*
X0070316Y0050735D02*
X0070316Y0049267D01*
X0069949Y0048900D01*
X0069215Y0048900D01*
X0068848Y0049267D01*
X0069215Y0048900D01*
X0069949Y0048900D01*
X0070316Y0049267D01*
X0070316Y0050735D01*
X0069949Y0051102D01*
X0069215Y0051102D01*
X0068848Y0050735D01*
X0069215Y0051102D01*
X0069949Y0051102D01*
X0070316Y0050735D01*
X0067739Y0050368D02*
X0067005Y0050368D01*
X0066638Y0050001D01*
X0066638Y0048900D01*
X0067739Y0048900D01*
X0068106Y0049267D01*
X0067739Y0049634D01*
X0066638Y0049634D01*
X0067739Y0049634D01*
X0068106Y0049267D01*
X0067739Y0048900D01*
X0066638Y0048900D01*
X0066638Y0050001D01*
X0067005Y0050368D01*
X0067739Y0050368D01*
X0065896Y0051102D02*
X0065529Y0051102D01*
X0065529Y0048900D01*
X0065529Y0051102D01*
X0065896Y0051102D01*
X0065897Y0052500D02*
X0065163Y0052500D01*
X0064796Y0052867D01*
X0064796Y0053601D01*
X0065163Y0053968D01*
X0065897Y0053968D01*
X0066264Y0053601D01*
X0066264Y0052867D01*
X0065897Y0052500D01*
X0066264Y0052867D01*
X0066264Y0053601D01*
X0065897Y0053968D01*
X0065163Y0053968D01*
X0064796Y0053601D01*
X0064796Y0052867D01*
X0065163Y0052500D01*
X0065897Y0052500D01*
X0067003Y0052500D02*
X0067370Y0052867D01*
X0067370Y0054335D01*
X0067370Y0052867D01*
X0067003Y0052500D01*
X0067003Y0053968D02*
X0067737Y0053968D01*
X0067003Y0053968D01*
X0067372Y0056100D02*
X0068106Y0056100D01*
X0067372Y0056100D01*
X0067739Y0056100D02*
X0067739Y0057568D01*
X0068106Y0057568D01*
X0067739Y0057568D01*
X0067739Y0056100D01*
X0068845Y0056100D02*
X0069212Y0056467D01*
X0069212Y0057935D01*
X0069212Y0056467D01*
X0068845Y0056100D01*
X0068845Y0057568D02*
X0069579Y0057568D01*
X0068845Y0057568D01*
X0067739Y0058302D02*
X0067739Y0058669D01*
X0067739Y0058302D01*
X0066632Y0057568D02*
X0065898Y0056100D01*
X0065164Y0057568D01*
X0065898Y0056100D01*
X0066632Y0057568D01*
X0064423Y0057201D02*
X0064423Y0056467D01*
X0064056Y0056100D01*
X0063322Y0056100D01*
X0064056Y0056100D01*
X0064423Y0056467D01*
X0064423Y0057201D01*
X0064056Y0057568D01*
X0063322Y0057568D01*
X0062955Y0057201D01*
X0062955Y0056834D01*
X0064423Y0056834D01*
X0062955Y0056834D01*
X0062955Y0057201D01*
X0063322Y0057568D01*
X0064056Y0057568D01*
X0064423Y0057201D01*
X0064060Y0059700D02*
X0064060Y0061168D01*
X0064060Y0059700D01*
X0065160Y0059700D01*
X0065527Y0060067D01*
X0065527Y0061168D01*
X0065527Y0060067D01*
X0065160Y0059700D01*
X0064060Y0059700D01*
X0063318Y0059700D02*
X0062217Y0059700D01*
X0061850Y0060067D01*
X0062217Y0060434D01*
X0062951Y0060434D01*
X0063318Y0060801D01*
X0062951Y0061168D01*
X0061850Y0061168D01*
X0062951Y0061168D01*
X0063318Y0060801D01*
X0062951Y0060434D01*
X0062217Y0060434D01*
X0061850Y0060067D01*
X0062217Y0059700D01*
X0063318Y0059700D01*
X0061108Y0060067D02*
X0061108Y0060801D01*
X0060741Y0061168D01*
X0060007Y0061168D01*
X0059640Y0060801D01*
X0059640Y0060434D01*
X0061108Y0060434D01*
X0059640Y0060434D01*
X0059640Y0060801D01*
X0060007Y0061168D01*
X0060741Y0061168D01*
X0061108Y0060801D01*
X0061108Y0060067D01*
X0060741Y0059700D01*
X0060007Y0059700D01*
X0060741Y0059700D01*
X0061108Y0060067D01*
X0060003Y0058302D02*
X0060003Y0056100D01*
X0060003Y0058302D01*
X0059636Y0057568D02*
X0058902Y0057568D01*
X0058535Y0057201D01*
X0058535Y0056100D01*
X0058535Y0057201D01*
X0058902Y0057568D01*
X0059636Y0057568D01*
X0060003Y0057201D01*
X0059636Y0057568D01*
X0057793Y0056467D02*
X0057426Y0056834D01*
X0056325Y0056834D01*
X0057426Y0056834D01*
X0057793Y0056467D01*
X0057426Y0056100D01*
X0056325Y0056100D01*
X0056325Y0057201D01*
X0056692Y0057568D01*
X0057426Y0057568D01*
X0056692Y0057568D01*
X0056325Y0057201D01*
X0056325Y0056100D01*
X0057426Y0056100D01*
X0057793Y0056467D01*
X0055583Y0056834D02*
X0054849Y0057568D01*
X0054482Y0057568D01*
X0054849Y0057568D01*
X0055583Y0056834D01*
X0055583Y0056100D02*
X0055583Y0057568D01*
X0055583Y0056100D01*
X0053741Y0056100D02*
X0053741Y0057568D01*
X0053374Y0057568D01*
X0053007Y0057201D01*
X0052640Y0057568D01*
X0052273Y0057201D01*
X0052273Y0056100D01*
X0052273Y0057201D01*
X0052640Y0057568D01*
X0053007Y0057201D01*
X0053007Y0056100D01*
X0053007Y0057201D01*
X0053374Y0057568D01*
X0053741Y0057568D01*
X0053741Y0056100D01*
X0051532Y0056100D02*
X0051165Y0056100D01*
X0051165Y0056467D01*
X0051532Y0056467D01*
X0051532Y0056100D01*
X0051165Y0056100D01*
X0051165Y0056467D01*
X0051532Y0056467D01*
X0051532Y0056100D01*
X0050800Y0059700D02*
X0050800Y0060801D01*
X0051167Y0061168D01*
X0052268Y0061168D01*
X0052268Y0059700D01*
X0052268Y0061168D01*
X0051167Y0061168D01*
X0050800Y0060801D01*
X0050800Y0059700D01*
X0050058Y0060067D02*
X0049691Y0059700D01*
X0048590Y0059700D01*
X0049691Y0059700D01*
X0050058Y0060067D01*
X0050058Y0060801D01*
X0049691Y0061168D01*
X0048590Y0061168D01*
X0049691Y0061168D01*
X0050058Y0060801D01*
X0050058Y0060067D01*
X0047848Y0060067D02*
X0047848Y0060801D01*
X0047481Y0061168D01*
X0046747Y0061168D01*
X0046381Y0060801D01*
X0046381Y0060434D01*
X0047848Y0060434D01*
X0046381Y0060434D01*
X0046381Y0060801D01*
X0046747Y0061168D01*
X0047481Y0061168D01*
X0047848Y0060801D01*
X0047848Y0060067D01*
X0047481Y0059700D01*
X0046747Y0059700D01*
X0047481Y0059700D01*
X0047848Y0060067D01*
X0045639Y0060434D02*
X0044905Y0061168D01*
X0044538Y0061168D01*
X0044905Y0061168D01*
X0045639Y0060434D01*
X0045639Y0059700D02*
X0045639Y0061168D01*
X0045639Y0059700D01*
X0053010Y0059700D02*
X0054111Y0059700D01*
X0054478Y0060067D01*
X0054111Y0060434D01*
X0053010Y0060434D01*
X0054111Y0060434D01*
X0054478Y0060067D01*
X0054111Y0059700D01*
X0053010Y0059700D01*
X0053010Y0060801D01*
X0053377Y0061168D01*
X0054111Y0061168D01*
X0053377Y0061168D01*
X0053010Y0060801D01*
X0053010Y0059700D01*
X0055220Y0059700D02*
X0056321Y0059700D01*
X0056688Y0060067D01*
X0056688Y0060801D01*
X0056321Y0061168D01*
X0055220Y0061168D01*
X0056321Y0061168D01*
X0056688Y0060801D01*
X0056688Y0060067D01*
X0056321Y0059700D01*
X0055220Y0059700D01*
X0060376Y0063667D02*
X0060743Y0064034D01*
X0061477Y0064034D01*
X0061844Y0064401D01*
X0061477Y0064768D01*
X0060376Y0064768D01*
X0061477Y0064768D01*
X0061844Y0064401D01*
X0061477Y0064034D01*
X0060743Y0064034D01*
X0060376Y0063667D01*
X0060743Y0063300D01*
X0061844Y0063300D01*
X0060743Y0063300D01*
X0060376Y0063667D01*
X0062584Y0063300D02*
X0063318Y0063300D01*
X0062584Y0063300D01*
X0062951Y0063300D02*
X0062951Y0065502D01*
X0063318Y0065502D01*
X0062951Y0065502D01*
X0062951Y0063300D01*
X0064060Y0063300D02*
X0065160Y0063300D01*
X0065527Y0063667D01*
X0065160Y0064034D01*
X0064060Y0064034D01*
X0065160Y0064034D01*
X0065527Y0063667D01*
X0065160Y0063300D01*
X0064060Y0063300D01*
X0064060Y0064401D01*
X0064427Y0064768D01*
X0065160Y0064768D01*
X0064427Y0064768D01*
X0064060Y0064401D01*
X0064060Y0063300D01*
X0066269Y0063300D02*
X0067370Y0063300D01*
X0067737Y0063667D01*
X0067737Y0064401D01*
X0067370Y0064768D01*
X0066269Y0064768D01*
X0067370Y0064768D01*
X0067737Y0064401D01*
X0067737Y0063667D01*
X0067370Y0063300D01*
X0066269Y0063300D01*
X0068477Y0063300D02*
X0069211Y0063300D01*
X0068477Y0063300D01*
X0068844Y0063300D02*
X0068844Y0064768D01*
X0069211Y0064768D01*
X0068844Y0064768D01*
X0068844Y0063300D01*
X0069953Y0063300D02*
X0069953Y0064401D01*
X0070320Y0064768D01*
X0070687Y0064401D01*
X0070687Y0063300D01*
X0070687Y0064401D01*
X0071054Y0064768D01*
X0071420Y0064768D01*
X0071420Y0063300D01*
X0071420Y0064768D01*
X0071054Y0064768D01*
X0070687Y0064401D01*
X0070320Y0064768D01*
X0069953Y0064401D01*
X0069953Y0063300D01*
X0072162Y0064034D02*
X0073630Y0064034D01*
X0072162Y0064034D01*
X0072162Y0064401D01*
X0072529Y0064768D01*
X0073263Y0064768D01*
X0073630Y0064401D01*
X0073630Y0063667D01*
X0073263Y0063300D01*
X0072529Y0063300D01*
X0073263Y0063300D01*
X0073630Y0063667D01*
X0073630Y0064401D01*
X0073263Y0064768D01*
X0072529Y0064768D01*
X0072162Y0064401D01*
X0072162Y0064034D01*
X0074372Y0064401D02*
X0074739Y0064768D01*
X0075473Y0064768D01*
X0075840Y0064401D01*
X0075473Y0064768D01*
X0074739Y0064768D01*
X0074372Y0064401D01*
X0074372Y0063300D01*
X0074372Y0064401D01*
X0075840Y0065502D02*
X0075840Y0063300D01*
X0075840Y0065502D01*
X0076582Y0064768D02*
X0077683Y0064768D01*
X0078050Y0064401D01*
X0078050Y0063667D01*
X0077683Y0063300D01*
X0076582Y0063300D01*
X0077683Y0063300D01*
X0078050Y0063667D01*
X0078050Y0064401D01*
X0077683Y0064768D01*
X0076582Y0064768D01*
X0076582Y0066900D02*
X0076582Y0068368D01*
X0077316Y0069102D01*
X0078050Y0068368D01*
X0078050Y0066900D01*
X0078050Y0068368D01*
X0077316Y0069102D01*
X0076582Y0068368D01*
X0076582Y0066900D01*
X0075840Y0066900D02*
X0075840Y0069102D01*
X0074739Y0069102D01*
X0074372Y0068735D01*
X0074372Y0068001D01*
X0074739Y0067634D01*
X0075840Y0067634D01*
X0074739Y0067634D01*
X0074372Y0068001D01*
X0074372Y0068735D01*
X0074739Y0069102D01*
X0075840Y0069102D01*
X0075840Y0066900D01*
X0075106Y0067634D02*
X0074372Y0066900D01*
X0075106Y0067634D01*
X0076582Y0068001D02*
X0078050Y0068001D01*
X0076582Y0068001D01*
X0078792Y0066900D02*
X0078792Y0069102D01*
X0078792Y0066900D01*
X0079526Y0067634D01*
X0080260Y0066900D01*
X0080260Y0069102D01*
X0080260Y0066900D01*
X0079526Y0067634D01*
X0078792Y0066900D01*
X0081002Y0064768D02*
X0082103Y0064768D01*
X0082470Y0064401D01*
X0082103Y0064034D01*
X0081369Y0064034D01*
X0081002Y0063667D01*
X0081369Y0063300D01*
X0082470Y0063300D01*
X0081369Y0063300D01*
X0081002Y0063667D01*
X0081369Y0064034D01*
X0082103Y0064034D01*
X0082470Y0064401D01*
X0082103Y0064768D01*
X0081002Y0064768D01*
X0083212Y0064401D02*
X0083212Y0063300D01*
X0083212Y0064401D01*
X0083579Y0064768D01*
X0084680Y0064768D01*
X0084680Y0063300D01*
X0084680Y0064768D01*
X0083579Y0064768D01*
X0083212Y0064401D01*
X0081366Y0062269D02*
X0081366Y0061902D01*
X0081366Y0062269D01*
X0081366Y0061168D02*
X0081366Y0059700D01*
X0081366Y0061168D01*
X0081733Y0061168D01*
X0081366Y0061168D01*
X0082475Y0060801D02*
X0082842Y0061168D01*
X0083943Y0061168D01*
X0083943Y0059700D01*
X0083943Y0061168D01*
X0082842Y0061168D01*
X0082475Y0060801D01*
X0082475Y0059700D01*
X0082475Y0060801D01*
X0081733Y0059700D02*
X0080999Y0059700D01*
X0081733Y0059700D01*
X0080260Y0060067D02*
X0079893Y0060434D01*
X0078792Y0060434D01*
X0079893Y0060434D01*
X0080260Y0060067D01*
X0079893Y0059700D01*
X0078792Y0059700D01*
X0078792Y0060801D01*
X0079159Y0061168D01*
X0079893Y0061168D01*
X0079159Y0061168D01*
X0078792Y0060801D01*
X0078792Y0059700D01*
X0079893Y0059700D01*
X0080260Y0060067D01*
X0075840Y0061168D02*
X0075106Y0061168D01*
X0075840Y0061168D01*
X0075473Y0061535D02*
X0075473Y0060067D01*
X0075106Y0059700D01*
X0075473Y0060067D01*
X0075473Y0061535D01*
X0074367Y0060801D02*
X0074367Y0060067D01*
X0074000Y0059700D01*
X0073266Y0059700D01*
X0072899Y0060067D01*
X0072899Y0060801D01*
X0073266Y0061168D01*
X0074000Y0061168D01*
X0074367Y0060801D01*
X0074367Y0060067D01*
X0074000Y0059700D01*
X0073266Y0059700D01*
X0072899Y0060067D01*
X0072899Y0060801D01*
X0073266Y0061168D01*
X0074000Y0061168D01*
X0074367Y0060801D01*
X0074741Y0058302D02*
X0074741Y0056100D01*
X0075842Y0056100D01*
X0076209Y0056467D01*
X0076209Y0057201D01*
X0075842Y0057568D01*
X0074741Y0057568D01*
X0075842Y0057568D01*
X0076209Y0057201D01*
X0076209Y0056467D01*
X0075842Y0056100D01*
X0074741Y0056100D01*
X0074741Y0058302D01*
X0073999Y0057568D02*
X0073999Y0056467D01*
X0073632Y0056100D01*
X0072531Y0056100D01*
X0072531Y0057568D01*
X0072531Y0056100D01*
X0073632Y0056100D01*
X0073999Y0056467D01*
X0073999Y0057568D01*
X0071789Y0057201D02*
X0071789Y0056467D01*
X0071422Y0056100D01*
X0070321Y0056100D01*
X0071422Y0056100D01*
X0071789Y0056467D01*
X0071789Y0057201D01*
X0071422Y0057568D01*
X0070321Y0057568D01*
X0071422Y0057568D01*
X0071789Y0057201D01*
X0069580Y0059700D02*
X0068479Y0059700D01*
X0069580Y0059700D01*
X0069947Y0060067D01*
X0069947Y0060801D01*
X0069580Y0061168D01*
X0068479Y0061168D01*
X0069580Y0061168D01*
X0069947Y0060801D01*
X0069947Y0060067D01*
X0069580Y0059700D01*
X0067737Y0060067D02*
X0067370Y0060434D01*
X0066269Y0060434D01*
X0067370Y0060434D01*
X0067737Y0060067D01*
X0067370Y0059700D01*
X0066269Y0059700D01*
X0066269Y0060801D01*
X0066636Y0061168D01*
X0067370Y0061168D01*
X0066636Y0061168D01*
X0066269Y0060801D01*
X0066269Y0059700D01*
X0067370Y0059700D01*
X0067737Y0060067D01*
X0068844Y0065502D02*
X0068844Y0065869D01*
X0068844Y0065502D01*
X0068479Y0066900D02*
X0068479Y0069102D01*
X0068479Y0066900D01*
X0069947Y0069102D01*
X0069947Y0066900D01*
X0069947Y0069102D01*
X0068479Y0066900D01*
X0067737Y0067267D02*
X0067370Y0066900D01*
X0066636Y0066900D01*
X0066269Y0067267D01*
X0066269Y0068001D01*
X0067003Y0068001D01*
X0066269Y0068001D01*
X0066269Y0067267D01*
X0066636Y0066900D01*
X0067370Y0066900D01*
X0067737Y0067267D01*
X0067737Y0068735D01*
X0067370Y0069102D01*
X0066636Y0069102D01*
X0066269Y0068735D01*
X0066636Y0069102D01*
X0067370Y0069102D01*
X0067737Y0068735D01*
X0067737Y0067267D01*
X0070687Y0066900D02*
X0071420Y0066900D01*
X0070687Y0066900D01*
X0071054Y0066900D02*
X0071054Y0069102D01*
X0071054Y0066900D01*
X0072162Y0066900D02*
X0072162Y0069102D01*
X0072162Y0066900D01*
X0073630Y0069102D01*
X0073630Y0066900D01*
X0073630Y0069102D01*
X0072162Y0066900D01*
X0071420Y0069102D02*
X0070687Y0069102D01*
X0071420Y0069102D01*
X0083212Y0069102D02*
X0084680Y0069102D01*
X0084680Y0068001D01*
X0083946Y0068368D01*
X0083579Y0068368D01*
X0083212Y0068001D01*
X0083212Y0067267D01*
X0083579Y0066900D01*
X0084313Y0066900D01*
X0084680Y0067267D01*
X0084313Y0066900D01*
X0083579Y0066900D01*
X0083212Y0067267D01*
X0083212Y0068001D01*
X0083579Y0068368D01*
X0083946Y0068368D01*
X0084680Y0068001D01*
X0084680Y0069102D01*
X0083212Y0069102D01*
X0085422Y0069102D02*
X0086156Y0068735D01*
X0086890Y0068001D01*
X0085789Y0068001D01*
X0085422Y0067634D01*
X0085422Y0067267D01*
X0085789Y0066900D01*
X0086523Y0066900D01*
X0086890Y0067267D01*
X0086890Y0068001D01*
X0085789Y0068001D01*
X0085422Y0067634D01*
X0085422Y0067267D01*
X0085789Y0066900D01*
X0086523Y0066900D01*
X0086890Y0067267D01*
X0086890Y0068001D01*
X0086156Y0068735D01*
X0085422Y0069102D01*
X0089841Y0069102D02*
X0089841Y0066900D01*
X0091309Y0069102D01*
X0091309Y0066900D01*
X0091309Y0069102D01*
X0089841Y0066900D01*
X0089841Y0069102D01*
X0092051Y0068735D02*
X0092418Y0069102D01*
X0093152Y0069102D01*
X0093519Y0068735D01*
X0093519Y0067267D01*
X0093152Y0066900D01*
X0092418Y0066900D01*
X0092051Y0067267D01*
X0092051Y0068735D01*
X0092418Y0069102D01*
X0093152Y0069102D01*
X0093519Y0068735D01*
X0093519Y0067267D01*
X0093152Y0066900D01*
X0092418Y0066900D01*
X0092051Y0067267D01*
X0092051Y0068735D01*
X0094259Y0069102D02*
X0094993Y0069102D01*
X0094259Y0069102D01*
X0094626Y0069102D02*
X0094626Y0066900D01*
X0094626Y0069102D01*
X0095734Y0069102D02*
X0097202Y0069102D01*
X0095734Y0069102D01*
X0096468Y0069102D02*
X0096468Y0066900D01*
X0096468Y0069102D01*
X0097942Y0069102D02*
X0098676Y0069102D01*
X0097942Y0069102D01*
X0098309Y0069102D02*
X0098309Y0066900D01*
X0098309Y0069102D01*
X0099418Y0068735D02*
X0099785Y0069102D01*
X0100519Y0069102D01*
X0100886Y0068735D01*
X0100886Y0068368D01*
X0100519Y0068001D01*
X0099785Y0068001D01*
X0099418Y0067634D01*
X0099418Y0067267D01*
X0099785Y0066900D01*
X0100519Y0066900D01*
X0100886Y0067267D01*
X0100519Y0066900D01*
X0099785Y0066900D01*
X0099418Y0067267D01*
X0099418Y0067634D01*
X0099785Y0068001D01*
X0100519Y0068001D01*
X0100886Y0068368D01*
X0100886Y0068735D01*
X0100519Y0069102D01*
X0099785Y0069102D01*
X0099418Y0068735D01*
X0098676Y0066900D02*
X0097942Y0066900D01*
X0098676Y0066900D01*
X0096466Y0064401D02*
X0096099Y0064768D01*
X0094998Y0064768D01*
X0096099Y0064768D01*
X0096466Y0064401D01*
X0096466Y0063667D01*
X0096099Y0063300D01*
X0094998Y0063300D01*
X0096099Y0063300D01*
X0096466Y0063667D01*
X0096466Y0064401D01*
X0094256Y0064401D02*
X0093889Y0064768D01*
X0093155Y0064768D01*
X0092788Y0064401D01*
X0092788Y0063667D01*
X0093155Y0063300D01*
X0093889Y0063300D01*
X0094256Y0063667D01*
X0094256Y0064401D01*
X0094256Y0063667D01*
X0093889Y0063300D01*
X0093155Y0063300D01*
X0092788Y0063667D01*
X0092788Y0064401D01*
X0093155Y0064768D01*
X0093889Y0064768D01*
X0094256Y0064401D01*
X0092046Y0064768D02*
X0090945Y0064768D01*
X0090578Y0064401D01*
X0090578Y0063300D01*
X0090578Y0064401D01*
X0090945Y0064768D01*
X0092046Y0064768D01*
X0092046Y0063300D01*
X0092046Y0064768D01*
X0089836Y0064768D02*
X0089102Y0064768D01*
X0089836Y0064768D01*
X0089469Y0065135D02*
X0089469Y0063667D01*
X0089102Y0063300D01*
X0089469Y0063667D01*
X0089469Y0065135D01*
X0087996Y0064768D02*
X0087262Y0064768D01*
X0086895Y0064401D01*
X0086895Y0063300D01*
X0087996Y0063300D01*
X0088363Y0063667D01*
X0087996Y0064034D01*
X0086895Y0064034D01*
X0087996Y0064034D01*
X0088363Y0063667D01*
X0087996Y0063300D01*
X0086895Y0063300D01*
X0086895Y0064401D01*
X0087262Y0064768D01*
X0087996Y0064768D01*
X0086153Y0064768D02*
X0085786Y0064768D01*
X0085786Y0063300D01*
X0085786Y0064768D01*
X0086153Y0064768D01*
X0085786Y0065502D02*
X0085786Y0065869D01*
X0085786Y0065502D01*
X0086153Y0063300D02*
X0085419Y0063300D01*
X0086153Y0063300D01*
X0085785Y0061168D02*
X0085785Y0059700D01*
X0085785Y0061168D01*
X0085785Y0060434D02*
X0085051Y0061168D01*
X0084684Y0061168D01*
X0085051Y0061168D01*
X0085785Y0060434D01*
X0086527Y0060801D02*
X0086894Y0061168D01*
X0087628Y0061168D01*
X0087995Y0060801D01*
X0087995Y0060067D01*
X0087628Y0059700D01*
X0086894Y0059700D01*
X0086527Y0060067D01*
X0086527Y0060801D01*
X0086894Y0061168D01*
X0087628Y0061168D01*
X0087995Y0060801D01*
X0087995Y0060067D01*
X0087628Y0059700D01*
X0086894Y0059700D01*
X0086527Y0060067D01*
X0086527Y0060801D01*
X0088734Y0060801D02*
X0089468Y0060801D01*
X0088734Y0060801D01*
X0089101Y0061535D02*
X0089101Y0059700D01*
X0089101Y0061535D01*
X0088734Y0061902D01*
X0089101Y0061535D01*
X0090574Y0061902D02*
X0090574Y0062269D01*
X0090574Y0061902D01*
X0090574Y0061168D02*
X0090574Y0059700D01*
X0090574Y0061168D01*
X0090941Y0061168D01*
X0090574Y0061168D01*
X0092047Y0061902D02*
X0092047Y0059700D01*
X0092047Y0061902D01*
X0092414Y0061902D01*
X0092047Y0061902D01*
X0093156Y0060801D02*
X0093156Y0059700D01*
X0094257Y0059700D01*
X0094624Y0060067D01*
X0094257Y0060434D01*
X0093156Y0060434D01*
X0094257Y0060434D01*
X0094624Y0060067D01*
X0094257Y0059700D01*
X0093156Y0059700D01*
X0093156Y0060801D01*
X0093523Y0061168D01*
X0094257Y0061168D01*
X0093523Y0061168D01*
X0093156Y0060801D01*
X0092414Y0059700D02*
X0091680Y0059700D01*
X0092414Y0059700D01*
X0090941Y0059700D02*
X0090207Y0059700D01*
X0090941Y0059700D01*
X0090573Y0057568D02*
X0090573Y0056100D01*
X0090573Y0057568D01*
X0090573Y0056834D02*
X0089839Y0057568D01*
X0089472Y0057568D01*
X0089839Y0057568D01*
X0090573Y0056834D01*
X0091315Y0056834D02*
X0092783Y0056834D01*
X0091315Y0056834D01*
X0091315Y0057201D01*
X0091682Y0057568D01*
X0092416Y0057568D01*
X0092783Y0057201D01*
X0092783Y0056467D01*
X0092416Y0056100D01*
X0091682Y0056100D01*
X0092416Y0056100D01*
X0092783Y0056467D01*
X0092783Y0057201D01*
X0092416Y0057568D01*
X0091682Y0057568D01*
X0091315Y0057201D01*
X0091315Y0056834D01*
X0093525Y0057201D02*
X0093525Y0056100D01*
X0093525Y0057201D01*
X0093892Y0057568D01*
X0094626Y0057568D01*
X0094993Y0057201D01*
X0094626Y0057568D01*
X0093892Y0057568D01*
X0093525Y0057201D01*
X0094993Y0058302D02*
X0094993Y0056100D01*
X0094993Y0058302D01*
X0095732Y0057568D02*
X0096466Y0057568D01*
X0095732Y0057568D01*
X0096099Y0057935D02*
X0096099Y0056467D01*
X0095732Y0056100D01*
X0096099Y0056467D01*
X0096099Y0057935D01*
X0097208Y0057201D02*
X0097575Y0057568D01*
X0098309Y0057568D01*
X0098676Y0057201D01*
X0098676Y0056467D01*
X0098309Y0056100D01*
X0097575Y0056100D01*
X0097208Y0056467D01*
X0097208Y0057201D01*
X0097575Y0057568D01*
X0098309Y0057568D01*
X0098676Y0057201D01*
X0098676Y0056467D01*
X0098309Y0056100D01*
X0097575Y0056100D01*
X0097208Y0056467D01*
X0097208Y0057201D01*
X0096467Y0059700D02*
X0095733Y0059700D01*
X0095366Y0060067D01*
X0095733Y0059700D01*
X0096467Y0059700D01*
X0096834Y0060067D01*
X0096834Y0061535D01*
X0096467Y0061902D01*
X0095733Y0061902D01*
X0095366Y0061535D01*
X0095733Y0061902D01*
X0096467Y0061902D01*
X0096834Y0061535D01*
X0096834Y0060067D01*
X0096467Y0059700D01*
X0086521Y0057568D02*
X0086521Y0056100D01*
X0086521Y0057568D01*
X0085787Y0057568D02*
X0085420Y0057568D01*
X0085787Y0057568D01*
X0086521Y0056834D01*
X0085787Y0057568D01*
X0084680Y0057201D02*
X0084680Y0056467D01*
X0084313Y0056100D01*
X0083579Y0056100D01*
X0084313Y0056100D01*
X0084680Y0056467D01*
X0084680Y0057201D01*
X0084313Y0057568D01*
X0083579Y0057568D01*
X0083212Y0057201D01*
X0083212Y0056834D01*
X0084680Y0056834D01*
X0083212Y0056834D01*
X0083212Y0057201D01*
X0083579Y0057568D01*
X0084313Y0057568D01*
X0084680Y0057201D01*
X0082470Y0057568D02*
X0081369Y0057568D01*
X0081002Y0057201D01*
X0081002Y0056467D01*
X0081369Y0056100D01*
X0082470Y0056100D01*
X0081369Y0056100D01*
X0081002Y0056467D01*
X0081002Y0057201D01*
X0081369Y0057568D01*
X0082470Y0057568D01*
X0082470Y0055366D01*
X0082470Y0057568D01*
X0080260Y0057568D02*
X0080260Y0056100D01*
X0080260Y0057568D01*
X0079526Y0057568D02*
X0079159Y0057568D01*
X0079526Y0057568D01*
X0080260Y0056834D01*
X0079526Y0057568D01*
X0078418Y0057201D02*
X0078418Y0056467D01*
X0078051Y0056100D01*
X0077317Y0056100D01*
X0076950Y0056467D01*
X0076950Y0057201D01*
X0077317Y0057568D01*
X0078051Y0057568D01*
X0078418Y0057201D01*
X0078418Y0056467D01*
X0078051Y0056100D01*
X0077317Y0056100D01*
X0076950Y0056467D01*
X0076950Y0057201D01*
X0077317Y0057568D01*
X0078051Y0057568D01*
X0078418Y0057201D01*
X0075473Y0055069D02*
X0075473Y0054702D01*
X0075473Y0055069D01*
X0082844Y0053968D02*
X0082844Y0052867D01*
X0083210Y0052500D01*
X0083577Y0052867D01*
X0083944Y0052500D01*
X0084311Y0052867D01*
X0084311Y0053968D01*
X0084311Y0052867D01*
X0083944Y0052500D01*
X0083577Y0052867D01*
X0083210Y0052500D01*
X0082844Y0052867D01*
X0082844Y0053968D01*
X0065896Y0048900D02*
X0065162Y0048900D01*
X0065896Y0048900D01*
X0064423Y0048900D02*
X0063689Y0048900D01*
X0064423Y0048900D01*
X0064056Y0048900D02*
X0064056Y0050368D01*
X0064423Y0050368D01*
X0064056Y0050368D01*
X0064056Y0048900D01*
X0062582Y0048900D02*
X0062582Y0050735D01*
X0062215Y0051102D01*
X0062582Y0050735D01*
X0062582Y0048900D01*
X0062949Y0050001D02*
X0062215Y0050001D01*
X0062949Y0050001D01*
X0061476Y0050001D02*
X0061476Y0049267D01*
X0061109Y0048900D01*
X0060375Y0048900D01*
X0060008Y0049267D01*
X0060008Y0050001D01*
X0060375Y0050368D01*
X0061109Y0050368D01*
X0061476Y0050001D01*
X0061476Y0049267D01*
X0061109Y0048900D01*
X0060375Y0048900D01*
X0060008Y0049267D01*
X0060008Y0050001D01*
X0060375Y0050368D01*
X0061109Y0050368D01*
X0061476Y0050001D01*
X0059266Y0050368D02*
X0059266Y0048900D01*
X0059266Y0050368D01*
X0058532Y0050368D02*
X0058165Y0050368D01*
X0058532Y0050368D01*
X0059266Y0049634D01*
X0058532Y0050368D01*
X0057425Y0050368D02*
X0057425Y0048900D01*
X0057425Y0050368D01*
X0056324Y0050368D01*
X0055957Y0050001D01*
X0055957Y0048900D01*
X0055957Y0050001D01*
X0056324Y0050368D01*
X0057425Y0050368D01*
X0055215Y0050368D02*
X0054848Y0050368D01*
X0054848Y0048900D01*
X0054848Y0050368D01*
X0055215Y0050368D01*
X0054848Y0051102D02*
X0054848Y0051469D01*
X0054848Y0051102D01*
X0053374Y0050368D02*
X0052641Y0050368D01*
X0052274Y0050001D01*
X0052274Y0048900D01*
X0053374Y0048900D01*
X0053741Y0049267D01*
X0053374Y0049634D01*
X0052274Y0049634D01*
X0053374Y0049634D01*
X0053741Y0049267D01*
X0053374Y0048900D01*
X0052274Y0048900D01*
X0052274Y0050001D01*
X0052641Y0050368D01*
X0053374Y0050368D01*
X0054481Y0048900D02*
X0055215Y0048900D01*
X0054481Y0048900D01*
X0058534Y0052500D02*
X0059267Y0052500D01*
X0059634Y0052867D01*
X0059634Y0053601D01*
X0059267Y0053968D01*
X0058534Y0053968D01*
X0058167Y0053601D01*
X0058167Y0053234D01*
X0059634Y0053234D01*
X0058167Y0053234D01*
X0058167Y0053601D01*
X0058534Y0053968D01*
X0059267Y0053968D01*
X0059634Y0053601D01*
X0059634Y0052867D01*
X0059267Y0052500D01*
X0058534Y0052500D01*
X0060376Y0052867D02*
X0060376Y0053601D01*
X0060743Y0053968D01*
X0061844Y0053968D01*
X0060743Y0053968D01*
X0060376Y0053601D01*
X0060376Y0052867D01*
X0060743Y0052500D01*
X0061844Y0052500D01*
X0061844Y0054702D01*
X0061844Y0052500D01*
X0060743Y0052500D01*
X0060376Y0052867D01*
X0064056Y0051469D02*
X0064056Y0051102D01*
X0064056Y0051469D01*
X0094259Y0066900D02*
X0094993Y0066900D01*
X0094259Y0066900D01*
X0131827Y0065502D02*
X0132560Y0065502D01*
X0131827Y0065502D01*
X0148036Y0102600D02*
X0148770Y0102600D01*
X0148403Y0102600D02*
X0148403Y0104802D01*
X0148770Y0104802D01*
X0149512Y0103701D02*
X0149879Y0104068D01*
X0150613Y0104068D01*
X0150980Y0103701D01*
X0150980Y0102967D01*
X0150613Y0102600D01*
X0149879Y0102600D01*
X0149512Y0103334D02*
X0150980Y0103334D01*
X0151722Y0104068D02*
X0152823Y0104068D01*
X0153190Y0103701D01*
X0153190Y0102967D01*
X0152823Y0102600D01*
X0151722Y0102600D01*
X0151722Y0104802D01*
X0149512Y0103701D02*
X0149512Y0103334D01*
X0153932Y0103701D02*
X0154299Y0104068D01*
X0155033Y0104068D01*
X0155400Y0103701D01*
X0155400Y0102967D01*
X0155033Y0102600D01*
X0154299Y0102600D01*
X0153932Y0102967D01*
X0153932Y0103701D01*
D14*
X0160500Y0099500D02*
X0164000Y0103000D01*
X0164000Y0096500D02*
X0160000Y0096500D01*
X0164000Y0090000D02*
X0164000Y0086000D01*
X0162000Y0086000D01*
X0164000Y0086000D02*
X0166000Y0086000D01*
D15*
X0164000Y0090000D02*
X0164000Y0096500D01*
X0164000Y0103000D01*
X0164000Y0104000D01*
D16*
X0158850Y0105353D02*
X0157616Y0104119D01*
X0156381Y0105353D01*
X0156381Y0101650D01*
X0156350Y0099353D02*
X0154498Y0099353D01*
X0153881Y0098736D01*
X0153881Y0097502D01*
X0154498Y0096884D01*
X0156350Y0096884D01*
X0156350Y0095650D02*
X0156350Y0099353D01*
X0155116Y0096884D02*
X0153881Y0095650D01*
X0153233Y0094353D02*
X0151998Y0094353D01*
X0151381Y0093736D01*
X0153233Y0094353D02*
X0153850Y0093736D01*
X0153850Y0091267D01*
X0153233Y0090650D01*
X0151998Y0090650D01*
X0151381Y0091267D01*
X0150733Y0089353D02*
X0151350Y0088736D01*
X0151350Y0088119D01*
X0150733Y0087502D01*
X0149498Y0087502D01*
X0148881Y0086884D01*
X0148881Y0086267D01*
X0149498Y0085650D01*
X0150733Y0085650D01*
X0151350Y0086267D01*
X0148881Y0088736D02*
X0149498Y0089353D01*
X0150733Y0089353D01*
X0158850Y0101650D02*
X0158850Y0105353D01*
M02*
