%
M48
M72
T01C0.04000
T02C0.04331
T03C0.06693
T04C0.14400
%
T01
X26500Y36000
X16500Y37000
X36500Y37000
X46500Y36000
X56500Y37000
X46500Y76000
X36500Y77000
X26500Y76000
X16500Y77000
X56500Y77000
T02
X76441Y76106
X90220Y76106
X104000Y76106
X117780Y76106
X131559Y76106
X131559Y36106
X117780Y36106
X104000Y36106
X90220Y36106
X76441Y36106
T03
X166500Y30909
X166500Y15319
X166500Y46500
X166500Y62091
X166500Y77681
T04
X11500Y11500
X186500Y101500
M30
