G75*
%MOIN*%
%OFA0B0*%
%FSLAX25Y25*%
%IPPOS*%
%LPD*%
%AMOC8*
5,1,8,0,0,1.08239X$1,22.5*
%
%ADD10C,0.00000*%
%ADD11C,0.10039*%
%ADD12C,0.07400*%
%ADD13C,0.06693*%
%ADD14C,0.01000*%
%ADD15C,0.01200*%
D10*
X0001500Y0003333D02*
X0001500Y0113333D01*
X0196500Y0113333D01*
X0196500Y0003333D01*
X0001500Y0003333D01*
X0004300Y0013333D02*
X0004302Y0013510D01*
X0004309Y0013686D01*
X0004320Y0013863D01*
X0004335Y0014039D01*
X0004354Y0014214D01*
X0004378Y0014389D01*
X0004406Y0014564D01*
X0004438Y0014738D01*
X0004475Y0014911D01*
X0004516Y0015082D01*
X0004561Y0015253D01*
X0004610Y0015423D01*
X0004663Y0015592D01*
X0004721Y0015759D01*
X0004782Y0015924D01*
X0004848Y0016088D01*
X0004918Y0016251D01*
X0004991Y0016411D01*
X0005069Y0016570D01*
X0005150Y0016727D01*
X0005235Y0016882D01*
X0005324Y0017035D01*
X0005417Y0017185D01*
X0005513Y0017333D01*
X0005613Y0017479D01*
X0005717Y0017622D01*
X0005824Y0017763D01*
X0005934Y0017901D01*
X0006048Y0018036D01*
X0006165Y0018168D01*
X0006285Y0018298D01*
X0006409Y0018424D01*
X0006535Y0018548D01*
X0006665Y0018668D01*
X0006797Y0018785D01*
X0006932Y0018899D01*
X0007070Y0019009D01*
X0007211Y0019116D01*
X0007354Y0019220D01*
X0007500Y0019320D01*
X0007648Y0019416D01*
X0007798Y0019509D01*
X0007951Y0019598D01*
X0008106Y0019683D01*
X0008263Y0019764D01*
X0008422Y0019842D01*
X0008582Y0019915D01*
X0008745Y0019985D01*
X0008909Y0020051D01*
X0009074Y0020112D01*
X0009241Y0020170D01*
X0009410Y0020223D01*
X0009580Y0020272D01*
X0009751Y0020317D01*
X0009922Y0020358D01*
X0010095Y0020395D01*
X0010269Y0020427D01*
X0010444Y0020455D01*
X0010619Y0020479D01*
X0010794Y0020498D01*
X0010970Y0020513D01*
X0011147Y0020524D01*
X0011323Y0020531D01*
X0011500Y0020533D01*
X0011677Y0020531D01*
X0011853Y0020524D01*
X0012030Y0020513D01*
X0012206Y0020498D01*
X0012381Y0020479D01*
X0012556Y0020455D01*
X0012731Y0020427D01*
X0012905Y0020395D01*
X0013078Y0020358D01*
X0013249Y0020317D01*
X0013420Y0020272D01*
X0013590Y0020223D01*
X0013759Y0020170D01*
X0013926Y0020112D01*
X0014091Y0020051D01*
X0014255Y0019985D01*
X0014418Y0019915D01*
X0014578Y0019842D01*
X0014737Y0019764D01*
X0014894Y0019683D01*
X0015049Y0019598D01*
X0015202Y0019509D01*
X0015352Y0019416D01*
X0015500Y0019320D01*
X0015646Y0019220D01*
X0015789Y0019116D01*
X0015930Y0019009D01*
X0016068Y0018899D01*
X0016203Y0018785D01*
X0016335Y0018668D01*
X0016465Y0018548D01*
X0016591Y0018424D01*
X0016715Y0018298D01*
X0016835Y0018168D01*
X0016952Y0018036D01*
X0017066Y0017901D01*
X0017176Y0017763D01*
X0017283Y0017622D01*
X0017387Y0017479D01*
X0017487Y0017333D01*
X0017583Y0017185D01*
X0017676Y0017035D01*
X0017765Y0016882D01*
X0017850Y0016727D01*
X0017931Y0016570D01*
X0018009Y0016411D01*
X0018082Y0016251D01*
X0018152Y0016088D01*
X0018218Y0015924D01*
X0018279Y0015759D01*
X0018337Y0015592D01*
X0018390Y0015423D01*
X0018439Y0015253D01*
X0018484Y0015082D01*
X0018525Y0014911D01*
X0018562Y0014738D01*
X0018594Y0014564D01*
X0018622Y0014389D01*
X0018646Y0014214D01*
X0018665Y0014039D01*
X0018680Y0013863D01*
X0018691Y0013686D01*
X0018698Y0013510D01*
X0018700Y0013333D01*
X0018698Y0013156D01*
X0018691Y0012980D01*
X0018680Y0012803D01*
X0018665Y0012627D01*
X0018646Y0012452D01*
X0018622Y0012277D01*
X0018594Y0012102D01*
X0018562Y0011928D01*
X0018525Y0011755D01*
X0018484Y0011584D01*
X0018439Y0011413D01*
X0018390Y0011243D01*
X0018337Y0011074D01*
X0018279Y0010907D01*
X0018218Y0010742D01*
X0018152Y0010578D01*
X0018082Y0010415D01*
X0018009Y0010255D01*
X0017931Y0010096D01*
X0017850Y0009939D01*
X0017765Y0009784D01*
X0017676Y0009631D01*
X0017583Y0009481D01*
X0017487Y0009333D01*
X0017387Y0009187D01*
X0017283Y0009044D01*
X0017176Y0008903D01*
X0017066Y0008765D01*
X0016952Y0008630D01*
X0016835Y0008498D01*
X0016715Y0008368D01*
X0016591Y0008242D01*
X0016465Y0008118D01*
X0016335Y0007998D01*
X0016203Y0007881D01*
X0016068Y0007767D01*
X0015930Y0007657D01*
X0015789Y0007550D01*
X0015646Y0007446D01*
X0015500Y0007346D01*
X0015352Y0007250D01*
X0015202Y0007157D01*
X0015049Y0007068D01*
X0014894Y0006983D01*
X0014737Y0006902D01*
X0014578Y0006824D01*
X0014418Y0006751D01*
X0014255Y0006681D01*
X0014091Y0006615D01*
X0013926Y0006554D01*
X0013759Y0006496D01*
X0013590Y0006443D01*
X0013420Y0006394D01*
X0013249Y0006349D01*
X0013078Y0006308D01*
X0012905Y0006271D01*
X0012731Y0006239D01*
X0012556Y0006211D01*
X0012381Y0006187D01*
X0012206Y0006168D01*
X0012030Y0006153D01*
X0011853Y0006142D01*
X0011677Y0006135D01*
X0011500Y0006133D01*
X0011323Y0006135D01*
X0011147Y0006142D01*
X0010970Y0006153D01*
X0010794Y0006168D01*
X0010619Y0006187D01*
X0010444Y0006211D01*
X0010269Y0006239D01*
X0010095Y0006271D01*
X0009922Y0006308D01*
X0009751Y0006349D01*
X0009580Y0006394D01*
X0009410Y0006443D01*
X0009241Y0006496D01*
X0009074Y0006554D01*
X0008909Y0006615D01*
X0008745Y0006681D01*
X0008582Y0006751D01*
X0008422Y0006824D01*
X0008263Y0006902D01*
X0008106Y0006983D01*
X0007951Y0007068D01*
X0007798Y0007157D01*
X0007648Y0007250D01*
X0007500Y0007346D01*
X0007354Y0007446D01*
X0007211Y0007550D01*
X0007070Y0007657D01*
X0006932Y0007767D01*
X0006797Y0007881D01*
X0006665Y0007998D01*
X0006535Y0008118D01*
X0006409Y0008242D01*
X0006285Y0008368D01*
X0006165Y0008498D01*
X0006048Y0008630D01*
X0005934Y0008765D01*
X0005824Y0008903D01*
X0005717Y0009044D01*
X0005613Y0009187D01*
X0005513Y0009333D01*
X0005417Y0009481D01*
X0005324Y0009631D01*
X0005235Y0009784D01*
X0005150Y0009939D01*
X0005069Y0010096D01*
X0004991Y0010255D01*
X0004918Y0010415D01*
X0004848Y0010578D01*
X0004782Y0010742D01*
X0004721Y0010907D01*
X0004663Y0011074D01*
X0004610Y0011243D01*
X0004561Y0011413D01*
X0004516Y0011584D01*
X0004475Y0011755D01*
X0004438Y0011928D01*
X0004406Y0012102D01*
X0004378Y0012277D01*
X0004354Y0012452D01*
X0004335Y0012627D01*
X0004320Y0012803D01*
X0004309Y0012980D01*
X0004302Y0013156D01*
X0004300Y0013333D01*
X0179300Y0103333D02*
X0179302Y0103510D01*
X0179309Y0103686D01*
X0179320Y0103863D01*
X0179335Y0104039D01*
X0179354Y0104214D01*
X0179378Y0104389D01*
X0179406Y0104564D01*
X0179438Y0104738D01*
X0179475Y0104911D01*
X0179516Y0105082D01*
X0179561Y0105253D01*
X0179610Y0105423D01*
X0179663Y0105592D01*
X0179721Y0105759D01*
X0179782Y0105924D01*
X0179848Y0106088D01*
X0179918Y0106251D01*
X0179991Y0106411D01*
X0180069Y0106570D01*
X0180150Y0106727D01*
X0180235Y0106882D01*
X0180324Y0107035D01*
X0180417Y0107185D01*
X0180513Y0107333D01*
X0180613Y0107479D01*
X0180717Y0107622D01*
X0180824Y0107763D01*
X0180934Y0107901D01*
X0181048Y0108036D01*
X0181165Y0108168D01*
X0181285Y0108298D01*
X0181409Y0108424D01*
X0181535Y0108548D01*
X0181665Y0108668D01*
X0181797Y0108785D01*
X0181932Y0108899D01*
X0182070Y0109009D01*
X0182211Y0109116D01*
X0182354Y0109220D01*
X0182500Y0109320D01*
X0182648Y0109416D01*
X0182798Y0109509D01*
X0182951Y0109598D01*
X0183106Y0109683D01*
X0183263Y0109764D01*
X0183422Y0109842D01*
X0183582Y0109915D01*
X0183745Y0109985D01*
X0183909Y0110051D01*
X0184074Y0110112D01*
X0184241Y0110170D01*
X0184410Y0110223D01*
X0184580Y0110272D01*
X0184751Y0110317D01*
X0184922Y0110358D01*
X0185095Y0110395D01*
X0185269Y0110427D01*
X0185444Y0110455D01*
X0185619Y0110479D01*
X0185794Y0110498D01*
X0185970Y0110513D01*
X0186147Y0110524D01*
X0186323Y0110531D01*
X0186500Y0110533D01*
X0186677Y0110531D01*
X0186853Y0110524D01*
X0187030Y0110513D01*
X0187206Y0110498D01*
X0187381Y0110479D01*
X0187556Y0110455D01*
X0187731Y0110427D01*
X0187905Y0110395D01*
X0188078Y0110358D01*
X0188249Y0110317D01*
X0188420Y0110272D01*
X0188590Y0110223D01*
X0188759Y0110170D01*
X0188926Y0110112D01*
X0189091Y0110051D01*
X0189255Y0109985D01*
X0189418Y0109915D01*
X0189578Y0109842D01*
X0189737Y0109764D01*
X0189894Y0109683D01*
X0190049Y0109598D01*
X0190202Y0109509D01*
X0190352Y0109416D01*
X0190500Y0109320D01*
X0190646Y0109220D01*
X0190789Y0109116D01*
X0190930Y0109009D01*
X0191068Y0108899D01*
X0191203Y0108785D01*
X0191335Y0108668D01*
X0191465Y0108548D01*
X0191591Y0108424D01*
X0191715Y0108298D01*
X0191835Y0108168D01*
X0191952Y0108036D01*
X0192066Y0107901D01*
X0192176Y0107763D01*
X0192283Y0107622D01*
X0192387Y0107479D01*
X0192487Y0107333D01*
X0192583Y0107185D01*
X0192676Y0107035D01*
X0192765Y0106882D01*
X0192850Y0106727D01*
X0192931Y0106570D01*
X0193009Y0106411D01*
X0193082Y0106251D01*
X0193152Y0106088D01*
X0193218Y0105924D01*
X0193279Y0105759D01*
X0193337Y0105592D01*
X0193390Y0105423D01*
X0193439Y0105253D01*
X0193484Y0105082D01*
X0193525Y0104911D01*
X0193562Y0104738D01*
X0193594Y0104564D01*
X0193622Y0104389D01*
X0193646Y0104214D01*
X0193665Y0104039D01*
X0193680Y0103863D01*
X0193691Y0103686D01*
X0193698Y0103510D01*
X0193700Y0103333D01*
X0193698Y0103156D01*
X0193691Y0102980D01*
X0193680Y0102803D01*
X0193665Y0102627D01*
X0193646Y0102452D01*
X0193622Y0102277D01*
X0193594Y0102102D01*
X0193562Y0101928D01*
X0193525Y0101755D01*
X0193484Y0101584D01*
X0193439Y0101413D01*
X0193390Y0101243D01*
X0193337Y0101074D01*
X0193279Y0100907D01*
X0193218Y0100742D01*
X0193152Y0100578D01*
X0193082Y0100415D01*
X0193009Y0100255D01*
X0192931Y0100096D01*
X0192850Y0099939D01*
X0192765Y0099784D01*
X0192676Y0099631D01*
X0192583Y0099481D01*
X0192487Y0099333D01*
X0192387Y0099187D01*
X0192283Y0099044D01*
X0192176Y0098903D01*
X0192066Y0098765D01*
X0191952Y0098630D01*
X0191835Y0098498D01*
X0191715Y0098368D01*
X0191591Y0098242D01*
X0191465Y0098118D01*
X0191335Y0097998D01*
X0191203Y0097881D01*
X0191068Y0097767D01*
X0190930Y0097657D01*
X0190789Y0097550D01*
X0190646Y0097446D01*
X0190500Y0097346D01*
X0190352Y0097250D01*
X0190202Y0097157D01*
X0190049Y0097068D01*
X0189894Y0096983D01*
X0189737Y0096902D01*
X0189578Y0096824D01*
X0189418Y0096751D01*
X0189255Y0096681D01*
X0189091Y0096615D01*
X0188926Y0096554D01*
X0188759Y0096496D01*
X0188590Y0096443D01*
X0188420Y0096394D01*
X0188249Y0096349D01*
X0188078Y0096308D01*
X0187905Y0096271D01*
X0187731Y0096239D01*
X0187556Y0096211D01*
X0187381Y0096187D01*
X0187206Y0096168D01*
X0187030Y0096153D01*
X0186853Y0096142D01*
X0186677Y0096135D01*
X0186500Y0096133D01*
X0186323Y0096135D01*
X0186147Y0096142D01*
X0185970Y0096153D01*
X0185794Y0096168D01*
X0185619Y0096187D01*
X0185444Y0096211D01*
X0185269Y0096239D01*
X0185095Y0096271D01*
X0184922Y0096308D01*
X0184751Y0096349D01*
X0184580Y0096394D01*
X0184410Y0096443D01*
X0184241Y0096496D01*
X0184074Y0096554D01*
X0183909Y0096615D01*
X0183745Y0096681D01*
X0183582Y0096751D01*
X0183422Y0096824D01*
X0183263Y0096902D01*
X0183106Y0096983D01*
X0182951Y0097068D01*
X0182798Y0097157D01*
X0182648Y0097250D01*
X0182500Y0097346D01*
X0182354Y0097446D01*
X0182211Y0097550D01*
X0182070Y0097657D01*
X0181932Y0097767D01*
X0181797Y0097881D01*
X0181665Y0097998D01*
X0181535Y0098118D01*
X0181409Y0098242D01*
X0181285Y0098368D01*
X0181165Y0098498D01*
X0181048Y0098630D01*
X0180934Y0098765D01*
X0180824Y0098903D01*
X0180717Y0099044D01*
X0180613Y0099187D01*
X0180513Y0099333D01*
X0180417Y0099481D01*
X0180324Y0099631D01*
X0180235Y0099784D01*
X0180150Y0099939D01*
X0180069Y0100096D01*
X0179991Y0100255D01*
X0179918Y0100415D01*
X0179848Y0100578D01*
X0179782Y0100742D01*
X0179721Y0100907D01*
X0179663Y0101074D01*
X0179610Y0101243D01*
X0179561Y0101413D01*
X0179516Y0101584D01*
X0179475Y0101755D01*
X0179438Y0101928D01*
X0179406Y0102102D01*
X0179378Y0102277D01*
X0179354Y0102452D01*
X0179335Y0102627D01*
X0179320Y0102803D01*
X0179309Y0102980D01*
X0179302Y0103156D01*
X0179300Y0103333D01*
D11*
X0171520Y0079514D02*
X0161480Y0079514D01*
X0161480Y0063924D02*
X0171520Y0063924D01*
X0171520Y0048333D02*
X0161480Y0048333D01*
X0161480Y0032743D02*
X0171520Y0032743D01*
X0171520Y0017152D02*
X0161480Y0017152D01*
D12*
X0056500Y0038833D03*
X0046500Y0037833D03*
X0036500Y0038833D03*
X0026500Y0037833D03*
X0016500Y0038833D03*
X0026500Y0077833D03*
X0016500Y0078833D03*
X0036500Y0078833D03*
X0046500Y0077833D03*
X0056500Y0078833D03*
D13*
X0076441Y0077940D03*
X0090220Y0077940D03*
X0104000Y0077940D03*
X0117780Y0077940D03*
X0131559Y0077940D03*
X0131559Y0037940D03*
X0117780Y0037940D03*
X0104000Y0037940D03*
X0090220Y0037940D03*
X0076441Y0037940D03*
D14*
X0079958Y0041277D02*
X0086704Y0041277D01*
X0086112Y0040685D02*
X0085374Y0038904D01*
X0085374Y0036976D01*
X0086112Y0035194D01*
X0087475Y0033831D01*
X0089256Y0033093D01*
X0091184Y0033093D01*
X0092966Y0033831D01*
X0094329Y0035194D01*
X0095067Y0036976D01*
X0095067Y0038904D01*
X0094329Y0040685D01*
X0092966Y0042048D01*
X0092320Y0042316D01*
X0092320Y0059203D01*
X0091090Y0060433D01*
X0089351Y0060433D01*
X0088120Y0059203D01*
X0088120Y0042316D01*
X0087475Y0042048D01*
X0086112Y0040685D01*
X0085943Y0040278D02*
X0080718Y0040278D01*
X0080550Y0040685D02*
X0079186Y0042048D01*
X0077405Y0042786D01*
X0075477Y0042786D01*
X0073696Y0042048D01*
X0072332Y0040685D01*
X0071594Y0038904D01*
X0071594Y0036976D01*
X0071814Y0036445D01*
X0060209Y0025433D01*
X0022370Y0025433D01*
X0018600Y0029203D01*
X0018600Y0034075D01*
X0019446Y0034425D01*
X0020908Y0035888D01*
X0021300Y0036833D01*
X0021300Y0036799D01*
X0022092Y0034888D01*
X0023554Y0033425D01*
X0025466Y0032633D01*
X0027534Y0032633D01*
X0029446Y0033425D01*
X0030908Y0034888D01*
X0031700Y0036799D01*
X0031700Y0036833D01*
X0032092Y0035888D01*
X0033554Y0034425D01*
X0035466Y0033633D01*
X0037534Y0033633D01*
X0039446Y0034425D01*
X0040908Y0035888D01*
X0041300Y0036833D01*
X0041300Y0036799D01*
X0042092Y0034888D01*
X0043554Y0033425D01*
X0045466Y0032633D01*
X0047534Y0032633D01*
X0049446Y0033425D01*
X0050908Y0034888D01*
X0051700Y0036799D01*
X0051700Y0036800D01*
X0052053Y0036108D01*
X0052534Y0035446D01*
X0053112Y0034867D01*
X0053775Y0034386D01*
X0054504Y0034014D01*
X0055282Y0033761D01*
X0056000Y0033648D01*
X0056000Y0038333D01*
X0057000Y0038333D01*
X0057000Y0033648D01*
X0057718Y0033761D01*
X0058496Y0034014D01*
X0059225Y0034386D01*
X0059888Y0034867D01*
X0060466Y0035446D01*
X0060947Y0036108D01*
X0061319Y0036837D01*
X0061572Y0037616D01*
X0061686Y0038333D01*
X0057000Y0038333D01*
X0057000Y0039333D01*
X0061686Y0039333D01*
X0061572Y0040051D01*
X0061319Y0040829D01*
X0060947Y0041559D01*
X0060466Y0042221D01*
X0059888Y0042800D01*
X0059225Y0043281D01*
X0058496Y0043652D01*
X0057718Y0043905D01*
X0057000Y0044019D01*
X0057000Y0039333D01*
X0056000Y0039333D01*
X0056000Y0044019D01*
X0055282Y0043905D01*
X0054504Y0043652D01*
X0053775Y0043281D01*
X0053112Y0042800D01*
X0052534Y0042221D01*
X0052053Y0041559D01*
X0051681Y0040829D01*
X0051428Y0040051D01*
X0051368Y0039670D01*
X0050908Y0040779D01*
X0049446Y0042242D01*
X0047534Y0043033D01*
X0045466Y0043033D01*
X0043554Y0042242D01*
X0042092Y0040779D01*
X0041700Y0039833D01*
X0041700Y0039868D01*
X0040908Y0041779D01*
X0039446Y0043242D01*
X0037534Y0044033D01*
X0035466Y0044033D01*
X0033554Y0043242D01*
X0032092Y0041779D01*
X0031300Y0039868D01*
X0031300Y0039833D01*
X0030908Y0040779D01*
X0029446Y0042242D01*
X0027534Y0043033D01*
X0025466Y0043033D01*
X0023554Y0042242D01*
X0022092Y0040779D01*
X0021700Y0039833D01*
X0021700Y0039868D01*
X0020908Y0041779D01*
X0019446Y0043242D01*
X0017534Y0044033D01*
X0015466Y0044033D01*
X0013554Y0043242D01*
X0012092Y0041779D01*
X0011300Y0039868D01*
X0011300Y0037799D01*
X0012092Y0035888D01*
X0013554Y0034425D01*
X0014400Y0034075D01*
X0014400Y0027463D01*
X0015630Y0026233D01*
X0019400Y0022463D01*
X0020630Y0021233D01*
X0061020Y0021233D01*
X0061862Y0021211D01*
X0061885Y0021233D01*
X0061917Y0021233D01*
X0062513Y0021829D01*
X0074716Y0033408D01*
X0075477Y0033093D01*
X0077405Y0033093D01*
X0079186Y0033831D01*
X0080550Y0035194D01*
X0081287Y0036976D01*
X0081287Y0038904D01*
X0080550Y0040685D01*
X0081132Y0039280D02*
X0085530Y0039280D01*
X0085374Y0038281D02*
X0081287Y0038281D01*
X0081287Y0037283D02*
X0085374Y0037283D01*
X0085660Y0036284D02*
X0081001Y0036284D01*
X0080587Y0035286D02*
X0086074Y0035286D01*
X0087019Y0034287D02*
X0079642Y0034287D01*
X0077877Y0033289D02*
X0088784Y0033289D01*
X0091656Y0033289D02*
X0102564Y0033289D01*
X0103036Y0033093D02*
X0104964Y0033093D01*
X0106745Y0033831D01*
X0108109Y0035194D01*
X0108846Y0036976D01*
X0108846Y0038904D01*
X0108109Y0040685D01*
X0106745Y0042048D01*
X0106100Y0042316D01*
X0106100Y0042463D01*
X0109870Y0046233D01*
X0155293Y0046233D01*
X0155953Y0044640D01*
X0157787Y0042806D01*
X0160183Y0041814D01*
X0172817Y0041814D01*
X0175213Y0042806D01*
X0177047Y0044640D01*
X0178039Y0047036D01*
X0178039Y0049630D01*
X0177047Y0052026D01*
X0175213Y0053860D01*
X0172817Y0054853D01*
X0160183Y0054853D01*
X0157787Y0053860D01*
X0155953Y0052026D01*
X0155293Y0050433D01*
X0108130Y0050433D01*
X0103130Y0045433D01*
X0101900Y0044203D01*
X0101900Y0042316D01*
X0101255Y0042048D01*
X0099891Y0040685D01*
X0099154Y0038904D01*
X0099154Y0036976D01*
X0099891Y0035194D01*
X0101255Y0033831D01*
X0103036Y0033093D01*
X0100799Y0034287D02*
X0093422Y0034287D01*
X0094367Y0035286D02*
X0099854Y0035286D01*
X0099440Y0036284D02*
X0094781Y0036284D01*
X0095067Y0037283D02*
X0099154Y0037283D01*
X0099154Y0038281D02*
X0095067Y0038281D01*
X0094911Y0039280D02*
X0099309Y0039280D01*
X0099723Y0040278D02*
X0094498Y0040278D01*
X0093737Y0041277D02*
X0100483Y0041277D01*
X0101803Y0042275D02*
X0092418Y0042275D01*
X0092320Y0043274D02*
X0101900Y0043274D01*
X0101969Y0044272D02*
X0092320Y0044272D01*
X0092320Y0045271D02*
X0102968Y0045271D01*
X0103966Y0046269D02*
X0092320Y0046269D01*
X0092320Y0047268D02*
X0104965Y0047268D01*
X0105963Y0048266D02*
X0092320Y0048266D01*
X0092320Y0049265D02*
X0106962Y0049265D01*
X0107960Y0050263D02*
X0092320Y0050263D01*
X0092320Y0051262D02*
X0155637Y0051262D01*
X0156187Y0052260D02*
X0092320Y0052260D01*
X0092320Y0053259D02*
X0157186Y0053259D01*
X0158746Y0054257D02*
X0092320Y0054257D01*
X0092320Y0055256D02*
X0194425Y0055256D01*
X0194425Y0056254D02*
X0092320Y0056254D01*
X0092320Y0057253D02*
X0194425Y0057253D01*
X0194425Y0058251D02*
X0174862Y0058251D01*
X0175213Y0058397D02*
X0177047Y0060231D01*
X0178039Y0062627D01*
X0178039Y0065221D01*
X0177047Y0067617D01*
X0175213Y0069451D01*
X0172817Y0070444D01*
X0160183Y0070444D01*
X0157787Y0069451D01*
X0155953Y0067617D01*
X0155566Y0066683D01*
X0094840Y0066683D01*
X0092320Y0069203D01*
X0092320Y0073564D01*
X0092966Y0073831D01*
X0094329Y0075194D01*
X0095067Y0076976D01*
X0095067Y0078904D01*
X0094329Y0080685D01*
X0092966Y0082048D01*
X0091184Y0082786D01*
X0089256Y0082786D01*
X0087475Y0082048D01*
X0086112Y0080685D01*
X0085374Y0078904D01*
X0085374Y0076976D01*
X0085641Y0076330D01*
X0079744Y0070433D01*
X0032370Y0070433D01*
X0029398Y0073405D01*
X0029446Y0073425D01*
X0030908Y0074888D01*
X0031700Y0076799D01*
X0031700Y0076833D01*
X0032092Y0075888D01*
X0033554Y0074425D01*
X0035466Y0073633D01*
X0037534Y0073633D01*
X0039446Y0074425D01*
X0040908Y0075888D01*
X0041300Y0076833D01*
X0041300Y0076799D01*
X0042092Y0074888D01*
X0043554Y0073425D01*
X0045466Y0072633D01*
X0047534Y0072633D01*
X0049446Y0073425D01*
X0050908Y0074888D01*
X0051700Y0076799D01*
X0051700Y0076800D01*
X0052053Y0076108D01*
X0052534Y0075446D01*
X0053112Y0074867D01*
X0053775Y0074386D01*
X0054504Y0074014D01*
X0055282Y0073761D01*
X0056000Y0073648D01*
X0056000Y0078333D01*
X0057000Y0078333D01*
X0057000Y0073648D01*
X0057718Y0073761D01*
X0058496Y0074014D01*
X0059225Y0074386D01*
X0059888Y0074867D01*
X0060466Y0075446D01*
X0060947Y0076108D01*
X0061319Y0076837D01*
X0061572Y0077616D01*
X0061686Y0078333D01*
X0057000Y0078333D01*
X0057000Y0079333D01*
X0061686Y0079333D01*
X0061572Y0080051D01*
X0061319Y0080829D01*
X0060947Y0081559D01*
X0060466Y0082221D01*
X0059888Y0082800D01*
X0059225Y0083281D01*
X0058496Y0083652D01*
X0057718Y0083905D01*
X0057000Y0084019D01*
X0057000Y0079333D01*
X0056000Y0079333D01*
X0056000Y0084019D01*
X0055282Y0083905D01*
X0054504Y0083652D01*
X0053775Y0083281D01*
X0053112Y0082800D01*
X0052534Y0082221D01*
X0052053Y0081559D01*
X0051681Y0080829D01*
X0051428Y0080051D01*
X0051368Y0079670D01*
X0050908Y0080779D01*
X0050162Y0081525D01*
X0054870Y0086233D01*
X0114380Y0086233D01*
X0115650Y0084963D01*
X0115650Y0082303D01*
X0115034Y0082048D01*
X0113671Y0080685D01*
X0112933Y0078904D01*
X0112933Y0076976D01*
X0113671Y0075194D01*
X0115034Y0073831D01*
X0116816Y0073093D01*
X0118744Y0073093D01*
X0120525Y0073831D01*
X0121888Y0075194D01*
X0122626Y0076976D01*
X0122626Y0078904D01*
X0121888Y0080685D01*
X0120525Y0082048D01*
X0119850Y0082328D01*
X0119850Y0086703D01*
X0118620Y0087933D01*
X0116120Y0090433D01*
X0053130Y0090433D01*
X0051900Y0089203D01*
X0045730Y0083033D01*
X0045466Y0083033D01*
X0043554Y0082242D01*
X0042092Y0080779D01*
X0041700Y0079833D01*
X0041700Y0079868D01*
X0040908Y0081779D01*
X0039446Y0083242D01*
X0037534Y0084033D01*
X0035466Y0084033D01*
X0033554Y0083242D01*
X0032092Y0081779D01*
X0031300Y0079868D01*
X0031300Y0079833D01*
X0030908Y0080779D01*
X0029446Y0082242D01*
X0027534Y0083033D01*
X0025466Y0083033D01*
X0023554Y0082242D01*
X0022092Y0080779D01*
X0021700Y0079833D01*
X0021700Y0079868D01*
X0020908Y0081779D01*
X0019446Y0083242D01*
X0018600Y0083592D01*
X0018600Y0102463D01*
X0022370Y0106233D01*
X0155798Y0106233D01*
X0164518Y0099668D01*
X0164518Y0086034D01*
X0160183Y0086034D01*
X0157787Y0085042D01*
X0155953Y0083208D01*
X0154961Y0080811D01*
X0154961Y0078218D01*
X0155953Y0075821D01*
X0157787Y0073987D01*
X0160183Y0072995D01*
X0172817Y0072995D01*
X0175213Y0073987D01*
X0177047Y0075821D01*
X0178039Y0078218D01*
X0178039Y0080811D01*
X0177047Y0083208D01*
X0175213Y0085042D01*
X0172817Y0086034D01*
X0168718Y0086034D01*
X0168718Y0100013D01*
X0168819Y0100147D01*
X0168718Y0100862D01*
X0168718Y0101585D01*
X0168600Y0101704D01*
X0168576Y0101870D01*
X0167999Y0102304D01*
X0167488Y0102815D01*
X0167320Y0102815D01*
X0157881Y0109922D01*
X0157370Y0110433D01*
X0157202Y0110433D01*
X0157068Y0110534D01*
X0156353Y0110433D01*
X0020630Y0110433D01*
X0015630Y0105433D01*
X0014400Y0104203D01*
X0014400Y0083592D01*
X0013554Y0083242D01*
X0012092Y0081779D01*
X0011300Y0079868D01*
X0011300Y0077799D01*
X0012092Y0075888D01*
X0013554Y0074425D01*
X0015466Y0073633D01*
X0017534Y0073633D01*
X0019446Y0074425D01*
X0020908Y0075888D01*
X0021300Y0076833D01*
X0021300Y0076799D01*
X0022092Y0074888D01*
X0023554Y0073425D01*
X0024400Y0073075D01*
X0024400Y0072463D01*
X0029400Y0067463D01*
X0030630Y0066233D01*
X0081484Y0066233D01*
X0088120Y0072870D01*
X0088120Y0067463D01*
X0089351Y0066233D01*
X0093101Y0062483D01*
X0155020Y0062483D01*
X0155953Y0060231D01*
X0157787Y0058397D01*
X0160183Y0057404D01*
X0172817Y0057404D01*
X0175213Y0058397D01*
X0176066Y0059250D02*
X0194425Y0059250D01*
X0194425Y0060248D02*
X0177054Y0060248D01*
X0177468Y0061247D02*
X0194425Y0061247D01*
X0194425Y0062245D02*
X0177881Y0062245D01*
X0178039Y0063244D02*
X0194425Y0063244D01*
X0194425Y0064243D02*
X0178039Y0064243D01*
X0178031Y0065241D02*
X0194425Y0065241D01*
X0194425Y0066240D02*
X0177617Y0066240D01*
X0177204Y0067238D02*
X0194425Y0067238D01*
X0194425Y0068237D02*
X0176427Y0068237D01*
X0175429Y0069235D02*
X0194425Y0069235D01*
X0194425Y0070234D02*
X0173323Y0070234D01*
X0173382Y0073229D02*
X0194425Y0073229D01*
X0194425Y0072231D02*
X0092320Y0072231D01*
X0092320Y0073229D02*
X0102708Y0073229D01*
X0103036Y0073093D02*
X0104964Y0073093D01*
X0106745Y0073831D01*
X0108109Y0075194D01*
X0108846Y0076976D01*
X0108846Y0078904D01*
X0108109Y0080685D01*
X0106745Y0082048D01*
X0104964Y0082786D01*
X0103036Y0082786D01*
X0101255Y0082048D01*
X0099891Y0080685D01*
X0099154Y0078904D01*
X0099154Y0076976D01*
X0099891Y0075194D01*
X0101255Y0073831D01*
X0103036Y0073093D01*
X0100858Y0074228D02*
X0093362Y0074228D01*
X0094342Y0075226D02*
X0099878Y0075226D01*
X0099465Y0076225D02*
X0094756Y0076225D01*
X0095067Y0077223D02*
X0099154Y0077223D01*
X0099154Y0078222D02*
X0095067Y0078222D01*
X0094936Y0079220D02*
X0099285Y0079220D01*
X0099698Y0080219D02*
X0094522Y0080219D01*
X0093797Y0081217D02*
X0100424Y0081217D01*
X0101659Y0082216D02*
X0092561Y0082216D01*
X0087880Y0082216D02*
X0078782Y0082216D01*
X0079186Y0082048D02*
X0077405Y0082786D01*
X0075477Y0082786D01*
X0073696Y0082048D01*
X0072332Y0080685D01*
X0071594Y0078904D01*
X0071594Y0076976D01*
X0072332Y0075194D01*
X0073696Y0073831D01*
X0075477Y0073093D01*
X0077405Y0073093D01*
X0079186Y0073831D01*
X0080550Y0075194D01*
X0081287Y0076976D01*
X0081287Y0078904D01*
X0080550Y0080685D01*
X0079186Y0082048D01*
X0080017Y0081217D02*
X0086644Y0081217D01*
X0085919Y0080219D02*
X0080743Y0080219D01*
X0081156Y0079220D02*
X0085505Y0079220D01*
X0085374Y0078222D02*
X0081287Y0078222D01*
X0081287Y0077223D02*
X0085374Y0077223D01*
X0085536Y0076225D02*
X0080976Y0076225D01*
X0080563Y0075226D02*
X0084537Y0075226D01*
X0083539Y0074228D02*
X0079583Y0074228D01*
X0077733Y0073229D02*
X0082540Y0073229D01*
X0081542Y0072231D02*
X0030573Y0072231D01*
X0031571Y0071232D02*
X0080543Y0071232D01*
X0084486Y0069235D02*
X0088120Y0069235D01*
X0088120Y0068237D02*
X0083487Y0068237D01*
X0082489Y0067238D02*
X0088346Y0067238D01*
X0089344Y0066240D02*
X0081490Y0066240D01*
X0085484Y0070234D02*
X0088120Y0070234D01*
X0088120Y0071232D02*
X0086483Y0071232D01*
X0087481Y0072231D02*
X0088120Y0072231D01*
X0092320Y0071232D02*
X0194425Y0071232D01*
X0194425Y0074228D02*
X0175453Y0074228D01*
X0176452Y0075226D02*
X0194425Y0075226D01*
X0194425Y0076225D02*
X0177214Y0076225D01*
X0177627Y0077223D02*
X0194425Y0077223D01*
X0194425Y0078222D02*
X0178039Y0078222D01*
X0178039Y0079220D02*
X0194425Y0079220D01*
X0194425Y0080219D02*
X0178039Y0080219D01*
X0177871Y0081217D02*
X0194425Y0081217D01*
X0194425Y0082216D02*
X0177458Y0082216D01*
X0177040Y0083214D02*
X0194425Y0083214D01*
X0194425Y0084213D02*
X0176042Y0084213D01*
X0174803Y0085211D02*
X0194425Y0085211D01*
X0194425Y0086210D02*
X0168718Y0086210D01*
X0168718Y0087208D02*
X0194425Y0087208D01*
X0194425Y0088207D02*
X0168718Y0088207D01*
X0168718Y0089205D02*
X0194425Y0089205D01*
X0194425Y0090204D02*
X0168718Y0090204D01*
X0168718Y0091202D02*
X0194425Y0091202D01*
X0194425Y0092201D02*
X0168718Y0092201D01*
X0168718Y0093199D02*
X0194425Y0093199D01*
X0194425Y0094198D02*
X0188681Y0094198D01*
X0188345Y0094059D02*
X0191754Y0095471D01*
X0194363Y0098080D01*
X0194425Y0098230D01*
X0194425Y0005408D01*
X0016603Y0005408D01*
X0016754Y0005471D01*
X0019363Y0008080D01*
X0020775Y0011488D01*
X0020775Y0015178D01*
X0019363Y0018587D01*
X0016754Y0021196D01*
X0013345Y0022608D01*
X0009655Y0022608D01*
X0006246Y0021196D01*
X0003637Y0018587D01*
X0003575Y0018436D01*
X0003575Y0111259D01*
X0181397Y0111259D01*
X0181246Y0111196D01*
X0178637Y0108587D01*
X0177225Y0105178D01*
X0177225Y0101488D01*
X0178637Y0098080D01*
X0181246Y0095471D01*
X0184655Y0094059D01*
X0188345Y0094059D01*
X0191092Y0095196D02*
X0194425Y0095196D01*
X0194425Y0096195D02*
X0192478Y0096195D01*
X0193477Y0097193D02*
X0194425Y0097193D01*
X0194409Y0098192D02*
X0194425Y0098192D01*
X0184319Y0094198D02*
X0168718Y0094198D01*
X0168718Y0095196D02*
X0181908Y0095196D01*
X0180522Y0096195D02*
X0168718Y0096195D01*
X0168718Y0097193D02*
X0179523Y0097193D01*
X0178591Y0098192D02*
X0168718Y0098192D01*
X0168718Y0099190D02*
X0178177Y0099190D01*
X0177763Y0100189D02*
X0168813Y0100189D01*
X0168718Y0101187D02*
X0177350Y0101187D01*
X0177225Y0102186D02*
X0168156Y0102186D01*
X0166830Y0103184D02*
X0177225Y0103184D01*
X0177225Y0104183D02*
X0165504Y0104183D01*
X0164177Y0105181D02*
X0177227Y0105181D01*
X0177640Y0106180D02*
X0162851Y0106180D01*
X0161525Y0107179D02*
X0178054Y0107179D01*
X0178467Y0108177D02*
X0160199Y0108177D01*
X0158873Y0109176D02*
X0179226Y0109176D01*
X0180224Y0110174D02*
X0157629Y0110174D01*
X0155869Y0106180D02*
X0022317Y0106180D01*
X0021318Y0105181D02*
X0157195Y0105181D01*
X0158521Y0104183D02*
X0020319Y0104183D01*
X0019321Y0103184D02*
X0159847Y0103184D01*
X0161173Y0102186D02*
X0018600Y0102186D01*
X0018600Y0101187D02*
X0162500Y0101187D01*
X0163826Y0100189D02*
X0018600Y0100189D01*
X0018600Y0099190D02*
X0164518Y0099190D01*
X0164518Y0098192D02*
X0018600Y0098192D01*
X0018600Y0097193D02*
X0164518Y0097193D01*
X0164518Y0096195D02*
X0018600Y0096195D01*
X0018600Y0095196D02*
X0164518Y0095196D01*
X0164518Y0094198D02*
X0018600Y0094198D01*
X0018600Y0093199D02*
X0164518Y0093199D01*
X0164518Y0092201D02*
X0018600Y0092201D01*
X0018600Y0091202D02*
X0164518Y0091202D01*
X0164518Y0090204D02*
X0116349Y0090204D01*
X0117348Y0089205D02*
X0164518Y0089205D01*
X0164518Y0088207D02*
X0118346Y0088207D01*
X0119345Y0087208D02*
X0164518Y0087208D01*
X0164518Y0086210D02*
X0119850Y0086210D01*
X0119850Y0085211D02*
X0158197Y0085211D01*
X0156958Y0084213D02*
X0119850Y0084213D01*
X0119850Y0083214D02*
X0155960Y0083214D01*
X0155542Y0082216D02*
X0133842Y0082216D01*
X0134099Y0082085D02*
X0133419Y0082431D01*
X0132694Y0082667D01*
X0132059Y0082767D01*
X0132059Y0078440D01*
X0131059Y0078440D01*
X0131059Y0082767D01*
X0130424Y0082667D01*
X0129699Y0082431D01*
X0129019Y0082085D01*
X0128402Y0081636D01*
X0127862Y0081097D01*
X0127414Y0080480D01*
X0127068Y0079800D01*
X0126832Y0079075D01*
X0126731Y0078440D01*
X0131059Y0078440D01*
X0131059Y0077440D01*
X0126731Y0077440D01*
X0126832Y0076805D01*
X0127068Y0076079D01*
X0127414Y0075400D01*
X0127862Y0074782D01*
X0128402Y0074243D01*
X0129019Y0073795D01*
X0129699Y0073448D01*
X0130424Y0073213D01*
X0131059Y0073112D01*
X0131059Y0077440D01*
X0132059Y0077440D01*
X0132059Y0078440D01*
X0136387Y0078440D01*
X0136286Y0079075D01*
X0136050Y0079800D01*
X0135704Y0080480D01*
X0135256Y0081097D01*
X0134716Y0081636D01*
X0134099Y0082085D01*
X0135135Y0081217D02*
X0155129Y0081217D01*
X0154961Y0080219D02*
X0135837Y0080219D01*
X0136239Y0079220D02*
X0154961Y0079220D01*
X0154961Y0078222D02*
X0132059Y0078222D01*
X0132059Y0077440D02*
X0136387Y0077440D01*
X0136286Y0076805D01*
X0136050Y0076079D01*
X0135704Y0075400D01*
X0135256Y0074782D01*
X0134716Y0074243D01*
X0134099Y0073795D01*
X0133419Y0073448D01*
X0132694Y0073213D01*
X0132059Y0073112D01*
X0132059Y0077440D01*
X0132059Y0077223D02*
X0131059Y0077223D01*
X0131059Y0076225D02*
X0132059Y0076225D01*
X0132059Y0075226D02*
X0131059Y0075226D01*
X0131059Y0074228D02*
X0132059Y0074228D01*
X0132059Y0073229D02*
X0131059Y0073229D01*
X0130373Y0073229D02*
X0119072Y0073229D01*
X0120921Y0074228D02*
X0128423Y0074228D01*
X0127540Y0075226D02*
X0121901Y0075226D01*
X0122315Y0076225D02*
X0127020Y0076225D01*
X0126766Y0077223D02*
X0122626Y0077223D01*
X0122626Y0078222D02*
X0131059Y0078222D01*
X0131059Y0079220D02*
X0132059Y0079220D01*
X0132059Y0080219D02*
X0131059Y0080219D01*
X0131059Y0081217D02*
X0132059Y0081217D01*
X0132059Y0082216D02*
X0131059Y0082216D01*
X0129276Y0082216D02*
X0120120Y0082216D01*
X0121356Y0081217D02*
X0127983Y0081217D01*
X0127281Y0080219D02*
X0122081Y0080219D01*
X0122495Y0079220D02*
X0126879Y0079220D01*
X0134695Y0074228D02*
X0157547Y0074228D01*
X0156548Y0075226D02*
X0135578Y0075226D01*
X0136098Y0076225D02*
X0155786Y0076225D01*
X0155373Y0077223D02*
X0136352Y0077223D01*
X0132745Y0073229D02*
X0159618Y0073229D01*
X0159677Y0070234D02*
X0092320Y0070234D01*
X0092320Y0069235D02*
X0157571Y0069235D01*
X0156573Y0068237D02*
X0093287Y0068237D01*
X0094286Y0067238D02*
X0155796Y0067238D01*
X0155119Y0062245D02*
X0003575Y0062245D01*
X0003575Y0061247D02*
X0155532Y0061247D01*
X0155946Y0060248D02*
X0091275Y0060248D01*
X0092274Y0059250D02*
X0156934Y0059250D01*
X0158138Y0058251D02*
X0092320Y0058251D01*
X0089166Y0060248D02*
X0003575Y0060248D01*
X0003575Y0059250D02*
X0088167Y0059250D01*
X0088120Y0058251D02*
X0003575Y0058251D01*
X0003575Y0057253D02*
X0088120Y0057253D01*
X0088120Y0056254D02*
X0003575Y0056254D01*
X0003575Y0055256D02*
X0088120Y0055256D01*
X0088120Y0054257D02*
X0003575Y0054257D01*
X0003575Y0053259D02*
X0088120Y0053259D01*
X0088120Y0052260D02*
X0003575Y0052260D01*
X0003575Y0051262D02*
X0088120Y0051262D01*
X0088120Y0050263D02*
X0003575Y0050263D01*
X0003575Y0049265D02*
X0088120Y0049265D01*
X0088120Y0048266D02*
X0003575Y0048266D01*
X0003575Y0047268D02*
X0088120Y0047268D01*
X0088120Y0046269D02*
X0003575Y0046269D01*
X0003575Y0045271D02*
X0088120Y0045271D01*
X0088120Y0044272D02*
X0003575Y0044272D01*
X0003575Y0043274D02*
X0013632Y0043274D01*
X0012588Y0042275D02*
X0003575Y0042275D01*
X0003575Y0041277D02*
X0011884Y0041277D01*
X0011470Y0040278D02*
X0003575Y0040278D01*
X0003575Y0039280D02*
X0011300Y0039280D01*
X0011300Y0038281D02*
X0003575Y0038281D01*
X0003575Y0037283D02*
X0011514Y0037283D01*
X0011927Y0036284D02*
X0003575Y0036284D01*
X0003575Y0035286D02*
X0012694Y0035286D01*
X0013887Y0034287D02*
X0003575Y0034287D01*
X0003575Y0033289D02*
X0014400Y0033289D01*
X0014400Y0032290D02*
X0003575Y0032290D01*
X0003575Y0031292D02*
X0014400Y0031292D01*
X0014400Y0030293D02*
X0003575Y0030293D01*
X0003575Y0029295D02*
X0014400Y0029295D01*
X0014400Y0028296D02*
X0003575Y0028296D01*
X0003575Y0027298D02*
X0014566Y0027298D01*
X0015564Y0026299D02*
X0003575Y0026299D01*
X0003575Y0025301D02*
X0016563Y0025301D01*
X0015630Y0026233D02*
X0015630Y0026233D01*
X0017561Y0024302D02*
X0003575Y0024302D01*
X0003575Y0023304D02*
X0018560Y0023304D01*
X0019400Y0022463D02*
X0019400Y0022463D01*
X0019558Y0022305D02*
X0014077Y0022305D01*
X0016487Y0021307D02*
X0020557Y0021307D01*
X0018640Y0019310D02*
X0155317Y0019310D01*
X0155293Y0019252D02*
X0155072Y0018427D01*
X0154970Y0017652D01*
X0166000Y0017652D01*
X0166000Y0016652D01*
X0167000Y0016652D01*
X0167000Y0010633D01*
X0171947Y0010633D01*
X0172794Y0010744D01*
X0173620Y0010965D01*
X0174409Y0011292D01*
X0175150Y0011720D01*
X0175828Y0012240D01*
X0176432Y0012844D01*
X0176952Y0013522D01*
X0177380Y0014262D01*
X0177707Y0015052D01*
X0177928Y0015878D01*
X0178030Y0016652D01*
X0167000Y0016652D01*
X0167000Y0017652D01*
X0178030Y0017652D01*
X0177928Y0018427D01*
X0177707Y0019252D01*
X0177380Y0020042D01*
X0176952Y0020782D01*
X0176432Y0021460D01*
X0175828Y0022064D01*
X0175150Y0022585D01*
X0174409Y0023012D01*
X0173620Y0023339D01*
X0172794Y0023560D01*
X0171947Y0023672D01*
X0167000Y0023672D01*
X0167000Y0017652D01*
X0166000Y0017652D01*
X0166000Y0023672D01*
X0161053Y0023672D01*
X0160206Y0023560D01*
X0159380Y0023339D01*
X0158591Y0023012D01*
X0157850Y0022585D01*
X0157172Y0022064D01*
X0156568Y0021460D01*
X0156048Y0020782D01*
X0155620Y0020042D01*
X0155293Y0019252D01*
X0155057Y0018311D02*
X0019477Y0018311D01*
X0019891Y0017312D02*
X0166000Y0017312D01*
X0166000Y0016652D02*
X0154970Y0016652D01*
X0155072Y0015878D01*
X0155293Y0015052D01*
X0155620Y0014262D01*
X0156048Y0013522D01*
X0156568Y0012844D01*
X0157172Y0012240D01*
X0157850Y0011720D01*
X0158591Y0011292D01*
X0159380Y0010965D01*
X0160206Y0010744D01*
X0161053Y0010633D01*
X0166000Y0010633D01*
X0166000Y0016652D01*
X0166000Y0016314D02*
X0167000Y0016314D01*
X0167000Y0017312D02*
X0194425Y0017312D01*
X0194425Y0016314D02*
X0177985Y0016314D01*
X0177777Y0015315D02*
X0194425Y0015315D01*
X0194425Y0014317D02*
X0177402Y0014317D01*
X0176796Y0013318D02*
X0194425Y0013318D01*
X0194425Y0012320D02*
X0175908Y0012320D01*
X0174460Y0011321D02*
X0194425Y0011321D01*
X0194425Y0010323D02*
X0020292Y0010323D01*
X0020706Y0011321D02*
X0158540Y0011321D01*
X0157092Y0012320D02*
X0020775Y0012320D01*
X0020775Y0013318D02*
X0156204Y0013318D01*
X0155598Y0014317D02*
X0020775Y0014317D01*
X0020718Y0015315D02*
X0155223Y0015315D01*
X0155015Y0016314D02*
X0020304Y0016314D01*
X0017642Y0020308D02*
X0155774Y0020308D01*
X0156450Y0021307D02*
X0061990Y0021307D01*
X0063014Y0022305D02*
X0157486Y0022305D01*
X0159294Y0023304D02*
X0064067Y0023304D01*
X0065119Y0024302D02*
X0194425Y0024302D01*
X0194425Y0023304D02*
X0173706Y0023304D01*
X0175514Y0022305D02*
X0194425Y0022305D01*
X0194425Y0021307D02*
X0176550Y0021307D01*
X0177226Y0020308D02*
X0194425Y0020308D01*
X0194425Y0019310D02*
X0177683Y0019310D01*
X0177943Y0018311D02*
X0194425Y0018311D01*
X0194425Y0025301D02*
X0066171Y0025301D01*
X0067224Y0026299D02*
X0160000Y0026299D01*
X0160183Y0026223D02*
X0172817Y0026223D01*
X0175213Y0027216D01*
X0177047Y0029050D01*
X0178039Y0031446D01*
X0178039Y0034040D01*
X0177047Y0036436D01*
X0175213Y0038270D01*
X0172817Y0039262D01*
X0160183Y0039262D01*
X0157787Y0038270D01*
X0155953Y0036436D01*
X0154961Y0034040D01*
X0154961Y0031446D01*
X0155953Y0029050D01*
X0157787Y0027216D01*
X0160183Y0026223D01*
X0157705Y0027298D02*
X0068276Y0027298D01*
X0069328Y0028296D02*
X0156707Y0028296D01*
X0155852Y0029295D02*
X0070381Y0029295D01*
X0071433Y0030293D02*
X0155438Y0030293D01*
X0155025Y0031292D02*
X0072485Y0031292D01*
X0073538Y0032290D02*
X0154961Y0032290D01*
X0154961Y0033289D02*
X0132928Y0033289D01*
X0132694Y0033213D02*
X0133419Y0033448D01*
X0134099Y0033795D01*
X0134716Y0034243D01*
X0135256Y0034782D01*
X0135704Y0035400D01*
X0136050Y0036079D01*
X0136286Y0036805D01*
X0136387Y0037440D01*
X0132059Y0037440D01*
X0132059Y0038440D01*
X0131059Y0038440D01*
X0131059Y0042767D01*
X0130424Y0042667D01*
X0129699Y0042431D01*
X0129019Y0042085D01*
X0128402Y0041636D01*
X0127862Y0041097D01*
X0127414Y0040480D01*
X0127068Y0039800D01*
X0126832Y0039075D01*
X0126731Y0038440D01*
X0131059Y0038440D01*
X0131059Y0037440D01*
X0126731Y0037440D01*
X0126832Y0036805D01*
X0127068Y0036079D01*
X0127414Y0035400D01*
X0127862Y0034782D01*
X0128402Y0034243D01*
X0129019Y0033795D01*
X0129699Y0033448D01*
X0130424Y0033213D01*
X0131059Y0033112D01*
X0131059Y0037440D01*
X0132059Y0037440D01*
X0132059Y0033112D01*
X0132694Y0033213D01*
X0132059Y0033289D02*
X0131059Y0033289D01*
X0130190Y0033289D02*
X0119216Y0033289D01*
X0118744Y0033093D02*
X0120525Y0033831D01*
X0121888Y0035194D01*
X0122626Y0036976D01*
X0122626Y0038904D01*
X0121888Y0040685D01*
X0120525Y0042048D01*
X0118744Y0042786D01*
X0116816Y0042786D01*
X0115034Y0042048D01*
X0113671Y0040685D01*
X0112933Y0038904D01*
X0112933Y0036976D01*
X0113671Y0035194D01*
X0115034Y0033831D01*
X0116816Y0033093D01*
X0118744Y0033093D01*
X0116344Y0033289D02*
X0105436Y0033289D01*
X0107201Y0034287D02*
X0114578Y0034287D01*
X0113633Y0035286D02*
X0108146Y0035286D01*
X0108560Y0036284D02*
X0113219Y0036284D01*
X0112933Y0037283D02*
X0108846Y0037283D01*
X0108846Y0038281D02*
X0112933Y0038281D01*
X0113089Y0039280D02*
X0108691Y0039280D01*
X0108277Y0040278D02*
X0113502Y0040278D01*
X0114263Y0041277D02*
X0107517Y0041277D01*
X0106197Y0042275D02*
X0115582Y0042275D01*
X0119977Y0042275D02*
X0129393Y0042275D01*
X0131059Y0042275D02*
X0132059Y0042275D01*
X0132059Y0042767D02*
X0132059Y0038440D01*
X0136387Y0038440D01*
X0136286Y0039075D01*
X0136050Y0039800D01*
X0135704Y0040480D01*
X0135256Y0041097D01*
X0134716Y0041636D01*
X0134099Y0042085D01*
X0133419Y0042431D01*
X0132694Y0042667D01*
X0132059Y0042767D01*
X0133725Y0042275D02*
X0159069Y0042275D01*
X0157320Y0043274D02*
X0106910Y0043274D01*
X0107909Y0044272D02*
X0156321Y0044272D01*
X0155692Y0045271D02*
X0108907Y0045271D01*
X0121296Y0041277D02*
X0128042Y0041277D01*
X0127311Y0040278D02*
X0122057Y0040278D01*
X0122470Y0039280D02*
X0126899Y0039280D01*
X0126756Y0037283D02*
X0122626Y0037283D01*
X0122626Y0038281D02*
X0131059Y0038281D01*
X0131059Y0037283D02*
X0132059Y0037283D01*
X0132059Y0038281D02*
X0157815Y0038281D01*
X0156800Y0037283D02*
X0136362Y0037283D01*
X0136117Y0036284D02*
X0155890Y0036284D01*
X0155477Y0035286D02*
X0135621Y0035286D01*
X0134761Y0034287D02*
X0155063Y0034287D01*
X0166000Y0023304D02*
X0167000Y0023304D01*
X0167000Y0022305D02*
X0166000Y0022305D01*
X0166000Y0021307D02*
X0167000Y0021307D01*
X0167000Y0020308D02*
X0166000Y0020308D01*
X0166000Y0019310D02*
X0167000Y0019310D01*
X0167000Y0018311D02*
X0166000Y0018311D01*
X0166000Y0015315D02*
X0167000Y0015315D01*
X0167000Y0014317D02*
X0166000Y0014317D01*
X0166000Y0013318D02*
X0167000Y0013318D01*
X0167000Y0012320D02*
X0166000Y0012320D01*
X0166000Y0011321D02*
X0167000Y0011321D01*
X0173000Y0026299D02*
X0194425Y0026299D01*
X0194425Y0027298D02*
X0175295Y0027298D01*
X0176293Y0028296D02*
X0194425Y0028296D01*
X0194425Y0029295D02*
X0177148Y0029295D01*
X0177562Y0030293D02*
X0194425Y0030293D01*
X0194425Y0031292D02*
X0177975Y0031292D01*
X0178039Y0032290D02*
X0194425Y0032290D01*
X0194425Y0033289D02*
X0178039Y0033289D01*
X0177937Y0034287D02*
X0194425Y0034287D01*
X0194425Y0035286D02*
X0177523Y0035286D01*
X0177110Y0036284D02*
X0194425Y0036284D01*
X0194425Y0037283D02*
X0176200Y0037283D01*
X0175185Y0038281D02*
X0194425Y0038281D01*
X0194425Y0039280D02*
X0136219Y0039280D01*
X0135807Y0040278D02*
X0194425Y0040278D01*
X0194425Y0041277D02*
X0135076Y0041277D01*
X0132059Y0041277D02*
X0131059Y0041277D01*
X0131059Y0040278D02*
X0132059Y0040278D01*
X0132059Y0039280D02*
X0131059Y0039280D01*
X0131059Y0036284D02*
X0132059Y0036284D01*
X0132059Y0035286D02*
X0131059Y0035286D01*
X0131059Y0034287D02*
X0132059Y0034287D01*
X0128358Y0034287D02*
X0120981Y0034287D01*
X0121926Y0035286D02*
X0127497Y0035286D01*
X0127001Y0036284D02*
X0122340Y0036284D01*
X0088023Y0042275D02*
X0078638Y0042275D01*
X0074244Y0042275D02*
X0060412Y0042275D01*
X0061091Y0041277D02*
X0072924Y0041277D01*
X0072164Y0040278D02*
X0061498Y0040278D01*
X0061677Y0038281D02*
X0071594Y0038281D01*
X0071594Y0037283D02*
X0061464Y0037283D01*
X0061037Y0036284D02*
X0071645Y0036284D01*
X0070593Y0035286D02*
X0060306Y0035286D01*
X0059032Y0034287D02*
X0069541Y0034287D01*
X0068488Y0033289D02*
X0049116Y0033289D01*
X0050308Y0034287D02*
X0053968Y0034287D01*
X0052694Y0035286D02*
X0051073Y0035286D01*
X0051487Y0036284D02*
X0051963Y0036284D01*
X0056000Y0036284D02*
X0057000Y0036284D01*
X0057000Y0035286D02*
X0056000Y0035286D01*
X0056000Y0034287D02*
X0057000Y0034287D01*
X0057000Y0037283D02*
X0056000Y0037283D01*
X0056000Y0038281D02*
X0057000Y0038281D01*
X0057000Y0039280D02*
X0071750Y0039280D01*
X0074590Y0033289D02*
X0075005Y0033289D01*
X0067436Y0032290D02*
X0018600Y0032290D01*
X0018600Y0031292D02*
X0066384Y0031292D01*
X0065331Y0030293D02*
X0018600Y0030293D01*
X0018600Y0029295D02*
X0064279Y0029295D01*
X0063227Y0028296D02*
X0019507Y0028296D01*
X0020506Y0027298D02*
X0062174Y0027298D01*
X0061122Y0026299D02*
X0021504Y0026299D01*
X0023884Y0033289D02*
X0018600Y0033289D01*
X0019113Y0034287D02*
X0022692Y0034287D01*
X0021927Y0035286D02*
X0020306Y0035286D01*
X0021073Y0036284D02*
X0021513Y0036284D01*
X0021530Y0040278D02*
X0021884Y0040278D01*
X0022590Y0041277D02*
X0021116Y0041277D01*
X0020412Y0042275D02*
X0023636Y0042275D01*
X0019368Y0043274D02*
X0033632Y0043274D01*
X0032588Y0042275D02*
X0029364Y0042275D01*
X0030410Y0041277D02*
X0031884Y0041277D01*
X0031470Y0040278D02*
X0031116Y0040278D01*
X0031487Y0036284D02*
X0031927Y0036284D01*
X0032694Y0035286D02*
X0031073Y0035286D01*
X0030308Y0034287D02*
X0033887Y0034287D01*
X0039113Y0034287D02*
X0042692Y0034287D01*
X0041927Y0035286D02*
X0040306Y0035286D01*
X0041073Y0036284D02*
X0041513Y0036284D01*
X0043884Y0033289D02*
X0029116Y0033289D01*
X0041530Y0040278D02*
X0041884Y0040278D01*
X0042590Y0041277D02*
X0041116Y0041277D01*
X0040412Y0042275D02*
X0043636Y0042275D01*
X0049364Y0042275D02*
X0052588Y0042275D01*
X0051909Y0041277D02*
X0050410Y0041277D01*
X0051116Y0040278D02*
X0051502Y0040278D01*
X0053765Y0043274D02*
X0039368Y0043274D01*
X0056000Y0043274D02*
X0057000Y0043274D01*
X0057000Y0042275D02*
X0056000Y0042275D01*
X0056000Y0041277D02*
X0057000Y0041277D01*
X0057000Y0040278D02*
X0056000Y0040278D01*
X0059235Y0043274D02*
X0088120Y0043274D01*
X0092340Y0063244D02*
X0003575Y0063244D01*
X0003575Y0064243D02*
X0091341Y0064243D01*
X0090343Y0065241D02*
X0003575Y0065241D01*
X0003575Y0066240D02*
X0030624Y0066240D01*
X0029625Y0067238D02*
X0003575Y0067238D01*
X0003575Y0068237D02*
X0028627Y0068237D01*
X0027628Y0069235D02*
X0003575Y0069235D01*
X0003575Y0070234D02*
X0026630Y0070234D01*
X0025631Y0071232D02*
X0003575Y0071232D01*
X0003575Y0072231D02*
X0024633Y0072231D01*
X0024027Y0073229D02*
X0003575Y0073229D01*
X0003575Y0074228D02*
X0014031Y0074228D01*
X0012753Y0075226D02*
X0003575Y0075226D01*
X0003575Y0076225D02*
X0011952Y0076225D01*
X0011538Y0077223D02*
X0003575Y0077223D01*
X0003575Y0078222D02*
X0011300Y0078222D01*
X0011300Y0079220D02*
X0003575Y0079220D01*
X0003575Y0080219D02*
X0011445Y0080219D01*
X0011859Y0081217D02*
X0003575Y0081217D01*
X0003575Y0082216D02*
X0012528Y0082216D01*
X0013527Y0083214D02*
X0003575Y0083214D01*
X0003575Y0084213D02*
X0014400Y0084213D01*
X0014400Y0085211D02*
X0003575Y0085211D01*
X0003575Y0086210D02*
X0014400Y0086210D01*
X0014400Y0087208D02*
X0003575Y0087208D01*
X0003575Y0088207D02*
X0014400Y0088207D01*
X0014400Y0089205D02*
X0003575Y0089205D01*
X0003575Y0090204D02*
X0014400Y0090204D01*
X0014400Y0091202D02*
X0003575Y0091202D01*
X0003575Y0092201D02*
X0014400Y0092201D01*
X0014400Y0093199D02*
X0003575Y0093199D01*
X0003575Y0094198D02*
X0014400Y0094198D01*
X0014400Y0095196D02*
X0003575Y0095196D01*
X0003575Y0096195D02*
X0014400Y0096195D01*
X0014400Y0097193D02*
X0003575Y0097193D01*
X0003575Y0098192D02*
X0014400Y0098192D01*
X0014400Y0099190D02*
X0003575Y0099190D01*
X0003575Y0100189D02*
X0014400Y0100189D01*
X0014400Y0101187D02*
X0003575Y0101187D01*
X0003575Y0102186D02*
X0014400Y0102186D01*
X0014400Y0103184D02*
X0003575Y0103184D01*
X0003575Y0104183D02*
X0014400Y0104183D01*
X0015378Y0105181D02*
X0003575Y0105181D01*
X0003575Y0106180D02*
X0016377Y0106180D01*
X0017375Y0107179D02*
X0003575Y0107179D01*
X0003575Y0108177D02*
X0018374Y0108177D01*
X0019372Y0109176D02*
X0003575Y0109176D01*
X0003575Y0110174D02*
X0020371Y0110174D01*
X0003575Y0111173D02*
X0181223Y0111173D01*
X0115402Y0085211D02*
X0053848Y0085211D01*
X0052849Y0084213D02*
X0115650Y0084213D01*
X0115650Y0083214D02*
X0059317Y0083214D01*
X0060470Y0082216D02*
X0074100Y0082216D01*
X0072865Y0081217D02*
X0061121Y0081217D01*
X0061517Y0080219D02*
X0072139Y0080219D01*
X0071726Y0079220D02*
X0057000Y0079220D01*
X0057000Y0078222D02*
X0056000Y0078222D01*
X0056000Y0077223D02*
X0057000Y0077223D01*
X0057000Y0076225D02*
X0056000Y0076225D01*
X0056000Y0075226D02*
X0057000Y0075226D01*
X0057000Y0074228D02*
X0056000Y0074228D01*
X0054085Y0074228D02*
X0050248Y0074228D01*
X0051048Y0075226D02*
X0052753Y0075226D01*
X0051993Y0076225D02*
X0051462Y0076225D01*
X0048973Y0073229D02*
X0075149Y0073229D01*
X0073299Y0074228D02*
X0058915Y0074228D01*
X0060247Y0075226D02*
X0072319Y0075226D01*
X0071906Y0076225D02*
X0061007Y0076225D01*
X0061444Y0077223D02*
X0071594Y0077223D01*
X0071594Y0078222D02*
X0061668Y0078222D01*
X0057000Y0080219D02*
X0056000Y0080219D01*
X0056000Y0081217D02*
X0057000Y0081217D01*
X0057000Y0082216D02*
X0056000Y0082216D01*
X0056000Y0083214D02*
X0057000Y0083214D01*
X0053683Y0083214D02*
X0051851Y0083214D01*
X0052530Y0082216D02*
X0050852Y0082216D01*
X0050470Y0081217D02*
X0051879Y0081217D01*
X0051483Y0080219D02*
X0051140Y0080219D01*
X0045911Y0083214D02*
X0039473Y0083214D01*
X0040472Y0082216D02*
X0043528Y0082216D01*
X0042530Y0081217D02*
X0041141Y0081217D01*
X0041555Y0080219D02*
X0041860Y0080219D01*
X0041538Y0076225D02*
X0041048Y0076225D01*
X0040247Y0075226D02*
X0041951Y0075226D01*
X0042752Y0074228D02*
X0038969Y0074228D01*
X0034031Y0074228D02*
X0030248Y0074228D01*
X0029574Y0073229D02*
X0044027Y0073229D01*
X0032753Y0075226D02*
X0031048Y0075226D01*
X0031462Y0076225D02*
X0031952Y0076225D01*
X0031445Y0080219D02*
X0031140Y0080219D01*
X0030470Y0081217D02*
X0031859Y0081217D01*
X0032528Y0082216D02*
X0029472Y0082216D01*
X0033527Y0083214D02*
X0019473Y0083214D01*
X0018600Y0084213D02*
X0046910Y0084213D01*
X0047908Y0085211D02*
X0018600Y0085211D01*
X0018600Y0086210D02*
X0048907Y0086210D01*
X0049905Y0087208D02*
X0018600Y0087208D01*
X0018600Y0088207D02*
X0050904Y0088207D01*
X0051902Y0089205D02*
X0018600Y0089205D01*
X0018600Y0090204D02*
X0052901Y0090204D01*
X0054846Y0086210D02*
X0114404Y0086210D01*
X0115439Y0082216D02*
X0106341Y0082216D01*
X0107576Y0081217D02*
X0114203Y0081217D01*
X0113478Y0080219D02*
X0108302Y0080219D01*
X0108715Y0079220D02*
X0113064Y0079220D01*
X0112933Y0078222D02*
X0108846Y0078222D01*
X0108846Y0077223D02*
X0112933Y0077223D01*
X0113244Y0076225D02*
X0108535Y0076225D01*
X0108122Y0075226D02*
X0113658Y0075226D01*
X0114638Y0074228D02*
X0107142Y0074228D01*
X0105292Y0073229D02*
X0116487Y0073229D01*
X0174254Y0054257D02*
X0194425Y0054257D01*
X0194425Y0053259D02*
X0175814Y0053259D01*
X0176813Y0052260D02*
X0194425Y0052260D01*
X0194425Y0051262D02*
X0177363Y0051262D01*
X0177777Y0050263D02*
X0194425Y0050263D01*
X0194425Y0049265D02*
X0178039Y0049265D01*
X0178039Y0048266D02*
X0194425Y0048266D01*
X0194425Y0047268D02*
X0178039Y0047268D01*
X0177722Y0046269D02*
X0194425Y0046269D01*
X0194425Y0045271D02*
X0177308Y0045271D01*
X0176679Y0044272D02*
X0194425Y0044272D01*
X0194425Y0043274D02*
X0175680Y0043274D01*
X0173931Y0042275D02*
X0194425Y0042275D01*
X0194425Y0009324D02*
X0019878Y0009324D01*
X0019465Y0008326D02*
X0194425Y0008326D01*
X0194425Y0007327D02*
X0018611Y0007327D01*
X0017612Y0006329D02*
X0194425Y0006329D01*
X0022752Y0074228D02*
X0018969Y0074228D01*
X0020247Y0075226D02*
X0021951Y0075226D01*
X0021538Y0076225D02*
X0021048Y0076225D01*
X0021555Y0080219D02*
X0021860Y0080219D01*
X0022530Y0081217D02*
X0021141Y0081217D01*
X0020472Y0082216D02*
X0023528Y0082216D01*
X0008923Y0022305D02*
X0003575Y0022305D01*
X0003575Y0021307D02*
X0006513Y0021307D01*
X0005358Y0020308D02*
X0003575Y0020308D01*
X0003575Y0019310D02*
X0004360Y0019310D01*
D15*
X0016500Y0028333D02*
X0021500Y0023333D01*
X0061047Y0023333D01*
X0076441Y0037940D01*
X0090220Y0037940D02*
X0090220Y0058333D01*
X0093970Y0064583D02*
X0090220Y0068333D01*
X0090220Y0077940D01*
X0080614Y0068333D01*
X0031500Y0068333D01*
X0026500Y0073333D01*
X0026500Y0077833D01*
X0016500Y0078833D02*
X0016500Y0103333D01*
X0021500Y0108333D01*
X0156500Y0108333D01*
X0166618Y0100715D01*
X0166618Y0079633D01*
X0166500Y0079514D01*
X0165841Y0064583D02*
X0093970Y0064583D01*
X0117750Y0077969D02*
X0117780Y0077940D01*
X0117750Y0077969D02*
X0117750Y0085833D01*
X0115250Y0088333D01*
X0054000Y0088333D01*
X0046500Y0080833D01*
X0046500Y0077833D01*
X0104000Y0043333D02*
X0104000Y0037940D01*
X0104000Y0043333D02*
X0109000Y0048333D01*
X0166500Y0048333D01*
X0016500Y0038833D02*
X0016500Y0028333D01*
M02*
