G75*
%MOIN*%
%OFA0B0*%
%FSLAX25Y25*%
%IPPOS*%
%LPD*%
%AMOC8*
5,1,8,0,0,1.08239X$1,22.5*
%
%ADD10C,0.00000*%
%ADD11C,0.10039*%
%ADD12C,0.07400*%
%ADD13C,0.06693*%
%ADD14C,0.01200*%
D10*
X0001500Y0003333D02*
X0001500Y0113333D01*
X0196500Y0113333D01*
X0196500Y0003333D01*
X0001500Y0003333D01*
X0004300Y0013333D02*
X0004302Y0013510D01*
X0004309Y0013686D01*
X0004320Y0013863D01*
X0004335Y0014039D01*
X0004354Y0014214D01*
X0004378Y0014389D01*
X0004406Y0014564D01*
X0004438Y0014738D01*
X0004475Y0014911D01*
X0004516Y0015082D01*
X0004561Y0015253D01*
X0004610Y0015423D01*
X0004663Y0015592D01*
X0004721Y0015759D01*
X0004782Y0015924D01*
X0004848Y0016088D01*
X0004918Y0016251D01*
X0004991Y0016411D01*
X0005069Y0016570D01*
X0005150Y0016727D01*
X0005235Y0016882D01*
X0005324Y0017035D01*
X0005417Y0017185D01*
X0005513Y0017333D01*
X0005613Y0017479D01*
X0005717Y0017622D01*
X0005824Y0017763D01*
X0005934Y0017901D01*
X0006048Y0018036D01*
X0006165Y0018168D01*
X0006285Y0018298D01*
X0006409Y0018424D01*
X0006535Y0018548D01*
X0006665Y0018668D01*
X0006797Y0018785D01*
X0006932Y0018899D01*
X0007070Y0019009D01*
X0007211Y0019116D01*
X0007354Y0019220D01*
X0007500Y0019320D01*
X0007648Y0019416D01*
X0007798Y0019509D01*
X0007951Y0019598D01*
X0008106Y0019683D01*
X0008263Y0019764D01*
X0008422Y0019842D01*
X0008582Y0019915D01*
X0008745Y0019985D01*
X0008909Y0020051D01*
X0009074Y0020112D01*
X0009241Y0020170D01*
X0009410Y0020223D01*
X0009580Y0020272D01*
X0009751Y0020317D01*
X0009922Y0020358D01*
X0010095Y0020395D01*
X0010269Y0020427D01*
X0010444Y0020455D01*
X0010619Y0020479D01*
X0010794Y0020498D01*
X0010970Y0020513D01*
X0011147Y0020524D01*
X0011323Y0020531D01*
X0011500Y0020533D01*
X0011677Y0020531D01*
X0011853Y0020524D01*
X0012030Y0020513D01*
X0012206Y0020498D01*
X0012381Y0020479D01*
X0012556Y0020455D01*
X0012731Y0020427D01*
X0012905Y0020395D01*
X0013078Y0020358D01*
X0013249Y0020317D01*
X0013420Y0020272D01*
X0013590Y0020223D01*
X0013759Y0020170D01*
X0013926Y0020112D01*
X0014091Y0020051D01*
X0014255Y0019985D01*
X0014418Y0019915D01*
X0014578Y0019842D01*
X0014737Y0019764D01*
X0014894Y0019683D01*
X0015049Y0019598D01*
X0015202Y0019509D01*
X0015352Y0019416D01*
X0015500Y0019320D01*
X0015646Y0019220D01*
X0015789Y0019116D01*
X0015930Y0019009D01*
X0016068Y0018899D01*
X0016203Y0018785D01*
X0016335Y0018668D01*
X0016465Y0018548D01*
X0016591Y0018424D01*
X0016715Y0018298D01*
X0016835Y0018168D01*
X0016952Y0018036D01*
X0017066Y0017901D01*
X0017176Y0017763D01*
X0017283Y0017622D01*
X0017387Y0017479D01*
X0017487Y0017333D01*
X0017583Y0017185D01*
X0017676Y0017035D01*
X0017765Y0016882D01*
X0017850Y0016727D01*
X0017931Y0016570D01*
X0018009Y0016411D01*
X0018082Y0016251D01*
X0018152Y0016088D01*
X0018218Y0015924D01*
X0018279Y0015759D01*
X0018337Y0015592D01*
X0018390Y0015423D01*
X0018439Y0015253D01*
X0018484Y0015082D01*
X0018525Y0014911D01*
X0018562Y0014738D01*
X0018594Y0014564D01*
X0018622Y0014389D01*
X0018646Y0014214D01*
X0018665Y0014039D01*
X0018680Y0013863D01*
X0018691Y0013686D01*
X0018698Y0013510D01*
X0018700Y0013333D01*
X0018698Y0013156D01*
X0018691Y0012980D01*
X0018680Y0012803D01*
X0018665Y0012627D01*
X0018646Y0012452D01*
X0018622Y0012277D01*
X0018594Y0012102D01*
X0018562Y0011928D01*
X0018525Y0011755D01*
X0018484Y0011584D01*
X0018439Y0011413D01*
X0018390Y0011243D01*
X0018337Y0011074D01*
X0018279Y0010907D01*
X0018218Y0010742D01*
X0018152Y0010578D01*
X0018082Y0010415D01*
X0018009Y0010255D01*
X0017931Y0010096D01*
X0017850Y0009939D01*
X0017765Y0009784D01*
X0017676Y0009631D01*
X0017583Y0009481D01*
X0017487Y0009333D01*
X0017387Y0009187D01*
X0017283Y0009044D01*
X0017176Y0008903D01*
X0017066Y0008765D01*
X0016952Y0008630D01*
X0016835Y0008498D01*
X0016715Y0008368D01*
X0016591Y0008242D01*
X0016465Y0008118D01*
X0016335Y0007998D01*
X0016203Y0007881D01*
X0016068Y0007767D01*
X0015930Y0007657D01*
X0015789Y0007550D01*
X0015646Y0007446D01*
X0015500Y0007346D01*
X0015352Y0007250D01*
X0015202Y0007157D01*
X0015049Y0007068D01*
X0014894Y0006983D01*
X0014737Y0006902D01*
X0014578Y0006824D01*
X0014418Y0006751D01*
X0014255Y0006681D01*
X0014091Y0006615D01*
X0013926Y0006554D01*
X0013759Y0006496D01*
X0013590Y0006443D01*
X0013420Y0006394D01*
X0013249Y0006349D01*
X0013078Y0006308D01*
X0012905Y0006271D01*
X0012731Y0006239D01*
X0012556Y0006211D01*
X0012381Y0006187D01*
X0012206Y0006168D01*
X0012030Y0006153D01*
X0011853Y0006142D01*
X0011677Y0006135D01*
X0011500Y0006133D01*
X0011323Y0006135D01*
X0011147Y0006142D01*
X0010970Y0006153D01*
X0010794Y0006168D01*
X0010619Y0006187D01*
X0010444Y0006211D01*
X0010269Y0006239D01*
X0010095Y0006271D01*
X0009922Y0006308D01*
X0009751Y0006349D01*
X0009580Y0006394D01*
X0009410Y0006443D01*
X0009241Y0006496D01*
X0009074Y0006554D01*
X0008909Y0006615D01*
X0008745Y0006681D01*
X0008582Y0006751D01*
X0008422Y0006824D01*
X0008263Y0006902D01*
X0008106Y0006983D01*
X0007951Y0007068D01*
X0007798Y0007157D01*
X0007648Y0007250D01*
X0007500Y0007346D01*
X0007354Y0007446D01*
X0007211Y0007550D01*
X0007070Y0007657D01*
X0006932Y0007767D01*
X0006797Y0007881D01*
X0006665Y0007998D01*
X0006535Y0008118D01*
X0006409Y0008242D01*
X0006285Y0008368D01*
X0006165Y0008498D01*
X0006048Y0008630D01*
X0005934Y0008765D01*
X0005824Y0008903D01*
X0005717Y0009044D01*
X0005613Y0009187D01*
X0005513Y0009333D01*
X0005417Y0009481D01*
X0005324Y0009631D01*
X0005235Y0009784D01*
X0005150Y0009939D01*
X0005069Y0010096D01*
X0004991Y0010255D01*
X0004918Y0010415D01*
X0004848Y0010578D01*
X0004782Y0010742D01*
X0004721Y0010907D01*
X0004663Y0011074D01*
X0004610Y0011243D01*
X0004561Y0011413D01*
X0004516Y0011584D01*
X0004475Y0011755D01*
X0004438Y0011928D01*
X0004406Y0012102D01*
X0004378Y0012277D01*
X0004354Y0012452D01*
X0004335Y0012627D01*
X0004320Y0012803D01*
X0004309Y0012980D01*
X0004302Y0013156D01*
X0004300Y0013333D01*
X0179300Y0103333D02*
X0179302Y0103510D01*
X0179309Y0103686D01*
X0179320Y0103863D01*
X0179335Y0104039D01*
X0179354Y0104214D01*
X0179378Y0104389D01*
X0179406Y0104564D01*
X0179438Y0104738D01*
X0179475Y0104911D01*
X0179516Y0105082D01*
X0179561Y0105253D01*
X0179610Y0105423D01*
X0179663Y0105592D01*
X0179721Y0105759D01*
X0179782Y0105924D01*
X0179848Y0106088D01*
X0179918Y0106251D01*
X0179991Y0106411D01*
X0180069Y0106570D01*
X0180150Y0106727D01*
X0180235Y0106882D01*
X0180324Y0107035D01*
X0180417Y0107185D01*
X0180513Y0107333D01*
X0180613Y0107479D01*
X0180717Y0107622D01*
X0180824Y0107763D01*
X0180934Y0107901D01*
X0181048Y0108036D01*
X0181165Y0108168D01*
X0181285Y0108298D01*
X0181409Y0108424D01*
X0181535Y0108548D01*
X0181665Y0108668D01*
X0181797Y0108785D01*
X0181932Y0108899D01*
X0182070Y0109009D01*
X0182211Y0109116D01*
X0182354Y0109220D01*
X0182500Y0109320D01*
X0182648Y0109416D01*
X0182798Y0109509D01*
X0182951Y0109598D01*
X0183106Y0109683D01*
X0183263Y0109764D01*
X0183422Y0109842D01*
X0183582Y0109915D01*
X0183745Y0109985D01*
X0183909Y0110051D01*
X0184074Y0110112D01*
X0184241Y0110170D01*
X0184410Y0110223D01*
X0184580Y0110272D01*
X0184751Y0110317D01*
X0184922Y0110358D01*
X0185095Y0110395D01*
X0185269Y0110427D01*
X0185444Y0110455D01*
X0185619Y0110479D01*
X0185794Y0110498D01*
X0185970Y0110513D01*
X0186147Y0110524D01*
X0186323Y0110531D01*
X0186500Y0110533D01*
X0186677Y0110531D01*
X0186853Y0110524D01*
X0187030Y0110513D01*
X0187206Y0110498D01*
X0187381Y0110479D01*
X0187556Y0110455D01*
X0187731Y0110427D01*
X0187905Y0110395D01*
X0188078Y0110358D01*
X0188249Y0110317D01*
X0188420Y0110272D01*
X0188590Y0110223D01*
X0188759Y0110170D01*
X0188926Y0110112D01*
X0189091Y0110051D01*
X0189255Y0109985D01*
X0189418Y0109915D01*
X0189578Y0109842D01*
X0189737Y0109764D01*
X0189894Y0109683D01*
X0190049Y0109598D01*
X0190202Y0109509D01*
X0190352Y0109416D01*
X0190500Y0109320D01*
X0190646Y0109220D01*
X0190789Y0109116D01*
X0190930Y0109009D01*
X0191068Y0108899D01*
X0191203Y0108785D01*
X0191335Y0108668D01*
X0191465Y0108548D01*
X0191591Y0108424D01*
X0191715Y0108298D01*
X0191835Y0108168D01*
X0191952Y0108036D01*
X0192066Y0107901D01*
X0192176Y0107763D01*
X0192283Y0107622D01*
X0192387Y0107479D01*
X0192487Y0107333D01*
X0192583Y0107185D01*
X0192676Y0107035D01*
X0192765Y0106882D01*
X0192850Y0106727D01*
X0192931Y0106570D01*
X0193009Y0106411D01*
X0193082Y0106251D01*
X0193152Y0106088D01*
X0193218Y0105924D01*
X0193279Y0105759D01*
X0193337Y0105592D01*
X0193390Y0105423D01*
X0193439Y0105253D01*
X0193484Y0105082D01*
X0193525Y0104911D01*
X0193562Y0104738D01*
X0193594Y0104564D01*
X0193622Y0104389D01*
X0193646Y0104214D01*
X0193665Y0104039D01*
X0193680Y0103863D01*
X0193691Y0103686D01*
X0193698Y0103510D01*
X0193700Y0103333D01*
X0193698Y0103156D01*
X0193691Y0102980D01*
X0193680Y0102803D01*
X0193665Y0102627D01*
X0193646Y0102452D01*
X0193622Y0102277D01*
X0193594Y0102102D01*
X0193562Y0101928D01*
X0193525Y0101755D01*
X0193484Y0101584D01*
X0193439Y0101413D01*
X0193390Y0101243D01*
X0193337Y0101074D01*
X0193279Y0100907D01*
X0193218Y0100742D01*
X0193152Y0100578D01*
X0193082Y0100415D01*
X0193009Y0100255D01*
X0192931Y0100096D01*
X0192850Y0099939D01*
X0192765Y0099784D01*
X0192676Y0099631D01*
X0192583Y0099481D01*
X0192487Y0099333D01*
X0192387Y0099187D01*
X0192283Y0099044D01*
X0192176Y0098903D01*
X0192066Y0098765D01*
X0191952Y0098630D01*
X0191835Y0098498D01*
X0191715Y0098368D01*
X0191591Y0098242D01*
X0191465Y0098118D01*
X0191335Y0097998D01*
X0191203Y0097881D01*
X0191068Y0097767D01*
X0190930Y0097657D01*
X0190789Y0097550D01*
X0190646Y0097446D01*
X0190500Y0097346D01*
X0190352Y0097250D01*
X0190202Y0097157D01*
X0190049Y0097068D01*
X0189894Y0096983D01*
X0189737Y0096902D01*
X0189578Y0096824D01*
X0189418Y0096751D01*
X0189255Y0096681D01*
X0189091Y0096615D01*
X0188926Y0096554D01*
X0188759Y0096496D01*
X0188590Y0096443D01*
X0188420Y0096394D01*
X0188249Y0096349D01*
X0188078Y0096308D01*
X0187905Y0096271D01*
X0187731Y0096239D01*
X0187556Y0096211D01*
X0187381Y0096187D01*
X0187206Y0096168D01*
X0187030Y0096153D01*
X0186853Y0096142D01*
X0186677Y0096135D01*
X0186500Y0096133D01*
X0186323Y0096135D01*
X0186147Y0096142D01*
X0185970Y0096153D01*
X0185794Y0096168D01*
X0185619Y0096187D01*
X0185444Y0096211D01*
X0185269Y0096239D01*
X0185095Y0096271D01*
X0184922Y0096308D01*
X0184751Y0096349D01*
X0184580Y0096394D01*
X0184410Y0096443D01*
X0184241Y0096496D01*
X0184074Y0096554D01*
X0183909Y0096615D01*
X0183745Y0096681D01*
X0183582Y0096751D01*
X0183422Y0096824D01*
X0183263Y0096902D01*
X0183106Y0096983D01*
X0182951Y0097068D01*
X0182798Y0097157D01*
X0182648Y0097250D01*
X0182500Y0097346D01*
X0182354Y0097446D01*
X0182211Y0097550D01*
X0182070Y0097657D01*
X0181932Y0097767D01*
X0181797Y0097881D01*
X0181665Y0097998D01*
X0181535Y0098118D01*
X0181409Y0098242D01*
X0181285Y0098368D01*
X0181165Y0098498D01*
X0181048Y0098630D01*
X0180934Y0098765D01*
X0180824Y0098903D01*
X0180717Y0099044D01*
X0180613Y0099187D01*
X0180513Y0099333D01*
X0180417Y0099481D01*
X0180324Y0099631D01*
X0180235Y0099784D01*
X0180150Y0099939D01*
X0180069Y0100096D01*
X0179991Y0100255D01*
X0179918Y0100415D01*
X0179848Y0100578D01*
X0179782Y0100742D01*
X0179721Y0100907D01*
X0179663Y0101074D01*
X0179610Y0101243D01*
X0179561Y0101413D01*
X0179516Y0101584D01*
X0179475Y0101755D01*
X0179438Y0101928D01*
X0179406Y0102102D01*
X0179378Y0102277D01*
X0179354Y0102452D01*
X0179335Y0102627D01*
X0179320Y0102803D01*
X0179309Y0102980D01*
X0179302Y0103156D01*
X0179300Y0103333D01*
D11*
X0171520Y0079514D02*
X0161480Y0079514D01*
X0161480Y0063924D02*
X0171520Y0063924D01*
X0171520Y0048333D02*
X0161480Y0048333D01*
X0161480Y0032743D02*
X0171520Y0032743D01*
X0171520Y0017152D02*
X0161480Y0017152D01*
D12*
X0056500Y0038833D03*
X0046500Y0037833D03*
X0036500Y0038833D03*
X0026500Y0037833D03*
X0016500Y0038833D03*
X0026500Y0077833D03*
X0016500Y0078833D03*
X0036500Y0078833D03*
X0046500Y0077833D03*
X0056500Y0078833D03*
D13*
X0076441Y0077940D03*
X0090220Y0077940D03*
X0104000Y0077940D03*
X0117780Y0077940D03*
X0131559Y0077940D03*
X0131559Y0037940D03*
X0117780Y0037940D03*
X0104000Y0037940D03*
X0090220Y0037940D03*
X0076441Y0037940D03*
D14*
X0076441Y0077940D01*
X0090220Y0077940D02*
X0090220Y0037940D01*
X0104000Y0037940D02*
X0104000Y0077940D01*
X0104000Y0080833D01*
X0099000Y0085833D01*
X0039000Y0085833D01*
X0036500Y0083333D01*
X0036500Y0078833D01*
X0036500Y0038833D01*
X0026500Y0037833D02*
X0026500Y0077833D01*
X0016500Y0078833D02*
X0016500Y0038833D01*
X0046500Y0037833D02*
X0046500Y0077833D01*
X0117780Y0077940D02*
X0117780Y0037940D01*
X0117780Y0029554D01*
X0121500Y0025833D01*
X0141500Y0025833D01*
X0147750Y0033333D01*
X0165909Y0033333D01*
X0166500Y0032743D01*
M02*
