%
M48
M72
T01C0.04000
T02C0.04331
T03C0.06693
T04C0.14400
%
T01
X26500Y37833
X16500Y38833
X36500Y38833
X46500Y37833
X56500Y38833
X46500Y77833
X36500Y78833
X26500Y77833
X16500Y78833
X56500Y78833
T02
X76441Y77940
X90220Y77940
X104000Y77940
X117780Y77940
X131559Y77940
X131559Y37940
X117780Y37940
X104000Y37940
X90220Y37940
X76441Y37940
T03
X166500Y32743
X166500Y48333
X166500Y63924
X166500Y79514
X166500Y17152
T04
X11500Y13333
X186500Y103333
M30
